<svg viewBox="0 0 1434 400" xmlns="http://www.w3.org/2000/svg"><g><g><g><g><g><line x1="30.70800018310547" y1="377.95999908447266" x2="25.70800018310547" y2="377.95999908447266" style="visibility: inherit;" fill="rgb(0, 0, 0)" stroke="rgb(204, 204, 204)" stroke-width="1px"></line><line x1="30.70800018310547" y1="330.7149991989136" x2="25.70800018310547" y2="330.7149991989136" style="visibility: inherit;" fill="rgb(0, 0, 0)" stroke="rgb(204, 204, 204)" stroke-width="1px"></line><line x1="30.70800018310547" y1="283.4699993133545" x2="25.70800018310547" y2="283.4699993133545" style="visibility: inherit;" fill="rgb(0, 0, 0)" stroke="rgb(204, 204, 204)" stroke-width="1px"></line><line x1="30.70800018310547" y1="236.2249994277954" x2="25.70800018310547" y2="236.2249994277954" style="visibility: inherit;" fill="rgb(0, 0, 0)" stroke="rgb(204, 204, 204)" stroke-width="1px"></line><line x1="30.70800018310547" y1="188.97999954223633" x2="25.70800018310547" y2="188.97999954223633" style="visibility: inherit;" fill="rgb(0, 0, 0)" stroke="rgb(204, 204, 204)" stroke-width="1px"></line><line x1="30.70800018310547" y1="141.73499965667725" x2="25.70800018310547" y2="141.73499965667725" style="visibility: inherit;" fill="rgb(0, 0, 0)" stroke="rgb(204, 204, 204)" stroke-width="1px"></line><line x1="30.70800018310547" y1="94.48999977111816" x2="25.70800018310547" y2="94.48999977111816" style="visibility: inherit;" fill="rgb(0, 0, 0)" stroke="rgb(204, 204, 204)" stroke-width="1px"></line><line x1="30.70800018310547" y1="47.24499988555908" x2="25.70800018310547" y2="47.24499988555908" style="visibility: inherit;" fill="rgb(0, 0, 0)" stroke="rgb(204, 204, 204)" stroke-width="1px"></line><line x1="30.70800018310547" y1="0" x2="25.70800018310547" y2="0" style="visibility: inherit;" fill="rgb(0, 0, 0)" stroke="rgb(204, 204, 204)" stroke-width="1px"></line></g><g transform="translate(20.70800018310547, 0)"><text style="text-anchor: end; visibility: hidden; font-family: &quot;Helvetica Neue&quot;, sans-serif; font-size: 12px; font-weight: 200;" x="0" y="377.95999908447266" dx="0em" dy="0.3em" fill="rgb(50, 49, 63)" stroke="none" stroke-width="1px">-5</text><text style="text-anchor: end; visibility: inherit; font-family: &quot;Helvetica Neue&quot;, sans-serif; font-size: 12px; font-weight: 200;" x="0" y="330.7149991989136" dx="0em" dy="0.3em" fill="rgb(50, 49, 63)" stroke="none" stroke-width="1px">0</text><text style="text-anchor: end; visibility: inherit; font-family: &quot;Helvetica Neue&quot;, sans-serif; font-size: 12px; font-weight: 200;" x="0" y="283.4699993133545" dx="0em" dy="0.3em" fill="rgb(50, 49, 63)" stroke="none" stroke-width="1px">5</text><text style="text-anchor: end; visibility: inherit; font-family: &quot;Helvetica Neue&quot;, sans-serif; font-size: 12px; font-weight: 200;" x="0" y="236.2249994277954" dx="0em" dy="0.3em" fill="rgb(50, 49, 63)" stroke="none" stroke-width="1px">10</text><text style="text-anchor: end; visibility: inherit; font-family: &quot;Helvetica Neue&quot;, sans-serif; font-size: 12px; font-weight: 200;" x="0" y="188.97999954223633" dx="0em" dy="0.3em" fill="rgb(50, 49, 63)" stroke="none" stroke-width="1px">15</text><text style="text-anchor: end; visibility: inherit; font-family: &quot;Helvetica Neue&quot;, sans-serif; font-size: 12px; font-weight: 200;" x="0" y="141.73499965667725" dx="0em" dy="0.3em" fill="rgb(50, 49, 63)" stroke="none" stroke-width="1px">20</text><text style="text-anchor: end; visibility: inherit; font-family: &quot;Helvetica Neue&quot;, sans-serif; font-size: 12px; font-weight: 200;" x="0" y="94.48999977111816" dx="0em" dy="0.3em" fill="rgb(50, 49, 63)" stroke="none" stroke-width="1px">25</text><text style="text-anchor: end; visibility: inherit; font-family: &quot;Helvetica Neue&quot;, sans-serif; font-size: 12px; font-weight: 200;" x="0" y="47.24499988555908" dx="0em" dy="0.3em" fill="rgb(50, 49, 63)" stroke="none" stroke-width="1px">30</text><text style="text-anchor: end; visibility: hidden; font-family: &quot;Helvetica Neue&quot;, sans-serif; font-size: 12px; font-weight: 200;" x="0" y="0" dx="0em" dy="0.3em" fill="rgb(50, 49, 63)" stroke="none" stroke-width="1px">35</text></g><line x1="30.70800018310547" y1="0" x2="30.70800018310547" y2="377.95999908447266" fill="rgb(0, 0, 0)" stroke="rgb(204, 204, 204)" stroke-width="1px"></line></g></g><g transform="translate(30, 0)" clip-path="url(#clip_0)"><clipPath id="clip_0"><rect width="1403" height="377"></rect></clipPath><g><g><g><line x1="0" y1="0" x2="0" y2="377.95999908447266" fill="rgb(0, 0, 0)" stroke="rgb(60, 60, 60)" stroke-width="1px" opacity="0.25"></line><line x1="116.94099998474121" y1="0" x2="116.94099998474121" y2="377.95999908447266" fill="rgb(0, 0, 0)" stroke="rgb(60, 60, 60)" stroke-width="1px" opacity="0.25"></line><line x1="233.88199996948242" y1="0" x2="233.88199996948242" y2="377.95999908447266" fill="rgb(0, 0, 0)" stroke="rgb(60, 60, 60)" stroke-width="1px" opacity="0.25"></line><line x1="350.82299995422363" y1="0" x2="350.82299995422363" y2="377.95999908447266" fill="rgb(0, 0, 0)" stroke="rgb(60, 60, 60)" stroke-width="1px" opacity="0.25"></line><line x1="467.76399993896484" y1="0" x2="467.76399993896484" y2="377.95999908447266" fill="rgb(0, 0, 0)" stroke="rgb(60, 60, 60)" stroke-width="1px" opacity="0.25"></line><line x1="584.704999923706" y1="0" x2="584.704999923706" y2="377.95999908447266" fill="rgb(0, 0, 0)" stroke="rgb(60, 60, 60)" stroke-width="1px" opacity="0.25"></line><line x1="701.6459999084473" y1="0" x2="701.6459999084473" y2="377.95999908447266" fill="rgb(0, 0, 0)" stroke="rgb(60, 60, 60)" stroke-width="1px" opacity="0.25"></line><line x1="818.5869998931885" y1="0" x2="818.5869998931885" y2="377.95999908447266" fill="rgb(0, 0, 0)" stroke="rgb(60, 60, 60)" stroke-width="1px" opacity="0.25"></line><line x1="935.5279998779297" y1="0" x2="935.5279998779297" y2="377.95999908447266" fill="rgb(0, 0, 0)" stroke="rgb(60, 60, 60)" stroke-width="1px" opacity="0.25"></line><line x1="1052.468999862671" y1="0" x2="1052.468999862671" y2="377.95999908447266" fill="rgb(0, 0, 0)" stroke="rgb(60, 60, 60)" stroke-width="1px" opacity="0.25"></line><line x1="1169.409999847412" y1="0" x2="1169.409999847412" y2="377.95999908447266" fill="rgb(0, 0, 0)" stroke="rgb(60, 60, 60)" stroke-width="1px" opacity="0.25"></line><line x1="1286.3509998321533" y1="0" x2="1286.3509998321533" y2="377.95999908447266" fill="rgb(0, 0, 0)" stroke="rgb(60, 60, 60)" stroke-width="1px" opacity="0.25"></line><line x1="1403.2919998168945" y1="0" x2="1403.2919998168945" y2="377.95999908447266" fill="rgb(0, 0, 0)" stroke="rgb(60, 60, 60)" stroke-width="1px" opacity="0.25"></line></g><g><line x1="0" y1="377.95999908447266" x2="1403.2919998168945" y2="377.95999908447266" fill="rgb(0, 0, 0)" stroke="rgb(60, 60, 60)" stroke-width="1px" opacity="0.25"></line><line x1="0" y1="330.7149991989136" x2="1403.2919998168945" y2="330.7149991989136" fill="rgb(0, 0, 0)" stroke="rgb(60, 60, 60)" stroke-width="1px" opacity="0.25"></line><line x1="0" y1="283.4699993133545" x2="1403.2919998168945" y2="283.4699993133545" fill="rgb(0, 0, 0)" stroke="rgb(60, 60, 60)" stroke-width="1px" opacity="0.25"></line><line x1="0" y1="236.2249994277954" x2="1403.2919998168945" y2="236.2249994277954" fill="rgb(0, 0, 0)" stroke="rgb(60, 60, 60)" stroke-width="1px" opacity="0.25"></line><line x1="0" y1="188.97999954223633" x2="1403.2919998168945" y2="188.97999954223633" fill="rgb(0, 0, 0)" stroke="rgb(60, 60, 60)" stroke-width="1px" opacity="0.25"></line><line x1="0" y1="141.73499965667725" x2="1403.2919998168945" y2="141.73499965667725" fill="rgb(0, 0, 0)" stroke="rgb(60, 60, 60)" stroke-width="1px" opacity="0.25"></line><line x1="0" y1="94.48999977111816" x2="1403.2919998168945" y2="94.48999977111816" fill="rgb(0, 0, 0)" stroke="rgb(60, 60, 60)" stroke-width="1px" opacity="0.25"></line><line x1="0" y1="47.24499988555908" x2="1403.2919998168945" y2="47.24499988555908" fill="rgb(0, 0, 0)" stroke="rgb(60, 60, 60)" stroke-width="1px" opacity="0.25"></line><line x1="0" y1="0" x2="1403.2919998168945" y2="0" fill="rgb(0, 0, 0)" stroke="rgb(60, 60, 60)" stroke-width="1px" opacity="0.25"></line></g></g></g><g><g><line x1="0" y1="330.7149991989136" x2="1403.2919998168945" y2="330.7149991989136" fill="rgb(0, 0, 0)" stroke="rgb(153, 153, 153)" stroke-width="1.5px"></line></g></g><g><g><line x1="116.94099998474121" y1="0" x2="116.94099998474121" y2="377.95999908447266" fill="rgb(0, 0, 0)" stroke="rgb(153, 153, 153)" stroke-width="1.5px"></line></g></g><g><g><g><g><g><path style="fill: none;" stroke="rgb(255, 112, 67)" stroke-width="2px" d="M116.94099998474121,149.38015993173758L140.32919998168947,169.38941150642313L163.7173999786377,181.0206972488208L187.10559997558593,189.55868797169083L210.49379997253416,196.32776131386177L233.88199996948242,201.91635380715493L257.27019996643065,206.62839203588635L280.65839996337894,210.74967357236886L304.04659996032717,214.18628444750283L327.4347999572754,217.25165909385427L350.82299995422363,220.00079788165186L374.21119995117186,222.36560678395404L397.5993999481201,224.58314062977257L420.9875999450683,226.63958196824552L444.37579994201656,228.51435872361125L467.76399993896484,230.33317824359466L491.1521999359131,231.76892054311577L514.5403999328613,233.30921353912493L537.9285999298096,234.64647384791508L561.3167999267579,235.80484774710425L584.704999923706,236.86035409608328L608.0931999206543,237.96883516089736L631.4813999176025,239.0028711526649L654.8695999145508,239.9423456135618L678.257799911499,240.96107977625675L701.6459999084473,241.88339875627437L725.0341999053956,242.68221309096452L748.4223999023437,243.428418712699L771.810599899292,244.1724215994768L795.1987998962402,244.87706454404528L818.5869998931885,245.42893124405663L841.9751998901367,246.15400588895557L865.363399887085,246.70146802229362L888.7515998840331,247.39236410076577L912.1397998809815,247.87532249653617L935.5279998779297,248.45382939093372L958.916199874878,248.97807343836095L982.3043998718261,249.37559562626157L1005.6925998687744,249.85645078714657L1029.0807998657226,250.34569169344292L1052.468999862671,250.90457484301595L1075.8571998596192,251.34729382261173L1099.2453998565675,251.80623854867235L1122.6335998535158,252.0718263555441L1146.0217998504638,252.55423662326984L1169.409999847412,252.94340508664692L1192.7981998443604,253.25609719306374L1216.1863998413087,253.65581609256677L1239.5745998382567,254.23038722447103L1262.962799835205,254.6582624608954" fill="none"></path></g><g><path style="fill: none;" stroke="rgb(187, 187, 187)" stroke-width="2px" d="M116.94099998474121,174.4509689854651L140.32919998168947,183.72892044135332L163.7173999786377,190.46519600531823L187.10559997558593,196.94289231098648L210.49379997253416,202.56172679783842L233.88199996948242,207.41407541525496L257.27019996643065,211.48383292359648L280.65839996337894,214.84832191446705L304.04659996032717,217.80175657114515L327.4347999572754,220.25915656194775L350.82299995422363,222.61028885566955L374.21119995117186,224.12895817982368L397.5993999481201,226.64703937523532L420.9875999450683,228.38009287805534L444.37579994201656,229.77681958064488L467.76399993896484,231.40642111000398L491.1521999359131,232.6934988616302L514.5403999328613,233.57043218642534L537.9285999298096,234.3172273855344L561.3167999267579,235.17575006720094L584.704999923706,236.36326838673628L608.0931999206543,237.85628941534523L631.4813999176025,238.53080699639096L654.8695999145508,238.7387287243156L678.257799911499,240.15444995307783L701.6459999084473,240.98927462532032L725.0341999053956,242.15763386516167L748.4223999023437,243.0988423533693L771.810599899292,243.24731119510346L795.1987998962402,244.08126409177618L818.5869998931885,244.54535633961478L841.9751998901367,245.4096522893714L865.363399887085,244.9617099357272L888.7515998840331,246.60527636343548L912.1397998809815,246.73328388049657L935.5279998779297,246.49041543491296L958.916199874878,247.09723622762166L982.3043998718261,247.86754948154976L1005.6925998687744,248.14062694894318L1029.0807998657226,248.34680115988567L1052.468999862671,249.85876370442654L1075.8571998596192,250.64986888181477L1099.2453998565675,251.58144655993573L1122.6335998535158,252.12590665124213L1146.0217998504638,252.13392983042257L1169.409999847412,252.599976509669L1192.7981998443604,252.76414853946153L1216.1863998413087,253.60306804812825L1239.5745998382567,254.05841852776962L1262.962799835205,254.34879708447573" fill="none"></path></g><g><path style="fill: none;" stroke="rgb(0, 153, 136)" stroke-width="2px" d="M116.94099998474121,61.21835957575638L140.32919998168947,90.39319771900716L163.7173999786377,105.96327678069412L187.10559997558593,116.6677511141936L210.49379997253416,125.01206577446831L233.88199996948242,132.2250135721676L257.27019996643065,138.67274428409223L280.65839996337894,144.36527428404742L304.04659996032717,149.71788810219735L327.4347999572754,154.59398394220923L350.82299995422363,159.18523896762565L374.21119995117186,163.47334392998215L397.5993999481201,167.3610630180656L420.9875999450683,170.8989497300072L444.37579994201656,174.2561345963778L467.76399993896484,177.48198733607845L491.1521999359131,180.41576477058118L514.5403999328613,183.303692733848L537.9285999298096,185.99450278871947L561.3167999267579,188.29383021583445L584.704999923706,190.84331711653357L608.0931999206543,193.08772785910952L631.4813999176025,195.03188291935004L654.8695999145508,196.7641791561902L678.257799911499,198.45490601330314L701.6459999084473,200.14488256949437L725.0341999053956,201.71449123487452L748.4223999023437,203.23199652350067L771.810599899292,204.6708011365227L795.1987998962402,205.93296925979382L818.5869998931885,207.24888577842336L841.9751998901367,208.43459620835856L865.363399887085,209.51597464895212L888.7515998840331,210.8395690964112L912.1397998809815,212.09747446648967L935.5279998779297,212.83016529796677L958.916199874878,214.0507143557334L982.3043998718261,215.09224203920837L1005.6925998687744,216.22208525881118L1029.0807998657226,216.92244006131295L1052.468999862671,217.95426576471024L1075.8571998596192,218.817180882935L1099.2453998565675,219.3873755368357L1122.6335998535158,220.27376213871403L1146.0217998504638,221.1460650588075L1169.409999847412,221.7375683968722L1192.7981998443604,222.69770324355045L1216.1863998413087,223.4956668158731L1239.5745998382567,223.74924254356847L1262.962799835205,224.41499424496527" fill="none"></path></g><g><path style="fill: none;" stroke="rgb(238, 51, 119)" stroke-width="2px" d="M116.94099998474121,99.94151088729228L140.32919998168947,110.62069771340254L163.7173999786377,120.28277069959626L187.10559997558593,127.46738692944547L210.49379997253416,133.36250559930443L233.88199996948242,139.18366126987874L257.27019996643065,142.8919390810352L280.65839996337894,145.88654983790497L304.04659996032717,150.43204292613007L327.4347999572754,154.42269637447708L350.82299995422363,158.53783539089244L374.21119995117186,161.72579202804877L397.5993999481201,164.8706525949427L420.9875999450683,168.15815510091443L444.37579994201656,170.47908281000647L467.76399993896484,172.5044170779087L491.1521999359131,173.71127017003934L514.5403999328613,176.9791564628681L537.9285999298096,179.1524412303936L561.3167999267579,180.1049002394854L584.704999923706,181.7743752913359L608.0931999206543,183.26161368046772L631.4813999176025,185.0418387012081L654.8695999145508,186.69477719162933L678.257799911499,189.64308909991593L701.6459999084473,188.87946393986286L725.0341999053956,190.7033128808606L748.4223999023437,192.91097478277788L771.810599899292,193.97049187713634L795.1987998962402,194.8273889272013L818.5869998931885,196.6107355497442L841.9751998901367,196.84046413566628L865.363399887085,195.6587090621523L888.7515998840331,197.8428717039288L912.1397998809815,199.3131967159805L935.5279998779297,199.86515033670707L958.916199874878,201.9199691367472L982.3043998718261,202.36392744481512L1005.6925998687744,202.255646320199L1029.0807998657226,201.98877476570638L1052.468999862671,203.37771413732415L1075.8571998596192,204.15302716727209L1099.2453998565675,204.54828393618578L1122.6335998535158,204.56303988852508L1146.0217998504638,205.02283175844218L1169.409999847412,205.35253298993027L1192.7981998443604,207.0371085161425L1216.1863998413087,207.56315932119767L1239.5745998382567,206.54352165100653L1262.962799835205,208.55905010212805" fill="none"></path></g><g><path style="fill: none;" stroke="rgb(51, 187, 238)" stroke-width="2px" d="M116.94099998474121,226.85743428496662L140.32919998168947,246.6867646180893L163.7173999786377,259.1351253017048L187.10559997558593,267.8804608153711L210.49379997253416,274.56580265354L233.88199996948242,279.7684816378423L257.27019996643065,283.9357948530684L280.65839996337894,287.33796314576426L304.04659996032717,290.1730722122173L327.4347999572754,292.5474533158889L350.82299995422363,294.49349976043266L374.21119995117186,296.050439773101L397.5993999481201,297.44267981173573L420.9875999450683,298.6643319654375L444.37579994201656,299.782121418112L467.76399993896484,300.76604462619855L491.1521999359131,301.64630936925835L514.5403999328613,302.4618615112644L537.9285999298096,303.2110126705987L561.3167999267579,303.8312304150385L584.704999923706,304.51361133260326L608.0931999206543,305.0845684296344L631.4813999176025,305.51378461337924L654.8695999145508,305.89131578672783L678.257799911499,306.446274293943L701.6459999084473,306.7504104775557L725.0341999053956,307.2415317254288L748.4223999023437,307.6787940486105L771.810599899292,308.00143037188184L795.1987998962402,308.24451370247345L818.5869998931885,308.53855399811835L841.9751998901367,308.8010150465449L865.363399887085,309.1583237618591L888.7515998840331,309.46950082112176L912.1397998809815,309.6123086552635L935.5279998779297,309.84678291710026L958.916199874878,310.17767733131154L982.3043998718261,310.323206993081L1005.6925998687744,310.5928434797753L1029.0807998657226,310.61766490211943L1052.468999862671,310.8217727690836L1075.8571998596192,310.9542814491369L1099.2453998565675,311.3201643225613L1122.6335998535158,311.576311336486L1146.0217998504638,311.52350587439844L1169.409999847412,311.87504166272186L1192.7981998443604,311.8568367631003L1216.1863998413087,311.77508795555883L1239.5745998382567,312.09553402508357L1262.962799835205,312.26271159164946" fill="none"></path></g><g><path style="fill: none;" stroke="rgb(204, 51, 17)" stroke-width="2px" d="M116.94099998474121,251.5021725370376L140.32919998168947,261.24513361258516L163.7173999786377,270.2686248889069L187.10559997558593,275.61947196200197L210.49379997253416,280.7185599294473L233.88199996948242,285.03246123962913L257.27019996643065,288.3471630504342L280.65839996337894,291.41214298955214L304.04659996032717,293.1543695083759L327.4347999572754,294.80982700450926L350.82299995422363,296.9986174313402L374.21119995117186,297.0606379936115L397.5993999481201,299.0535277672009L420.9875999450683,300.94079879603163L444.37579994201656,301.66068086601797L467.76399993896484,303.1477701310507L491.1521999359131,304.04904553732973L514.5403999328613,304.5372667314196L537.9285999298096,305.68527025967853L561.3167999267579,306.43120529258886L584.704999923706,306.9628907204402L608.0931999206543,307.73679204181553L631.4813999176025,308.2636668156043L654.8695999145508,307.8521950170892L678.257799911499,308.1766526682841L701.6459999084473,308.4545017207668L725.0341999053956,308.68992815016986L748.4223999023437,309.57448420678435L771.810599899292,310.04541238479175L795.1987998962402,310.6019604672227L818.5869998931885,311.00717198647715L841.9751998901367,310.9103802683129L865.363399887085,310.9078489023558L888.7515998840331,310.8666904123055L912.1397998809815,311.41674214997073L935.5279998779297,311.50084394940495L958.916199874878,311.6898758121705L982.3043998718261,312.1535715013316L1005.6925998687744,312.47177236312996L1029.0807998657226,312.7507239627667L1052.468999862671,312.9301353288515L1075.8571998596192,312.65256979006335L1099.2453998565675,313.0808453832667L1122.6335998535158,313.4914204280951L1146.0217998504638,313.7576681933286L1169.409999847412,313.9054760204365L1192.7981998443604,313.17363244583265L1216.1863998413087,313.88520762843507L1239.5745998382567,313.91324189986636L1262.962799835205,313.89090129166925" fill="none"></path></g></g></g></g><g opacity="0.2"><g><g><g><path style="fill: none;" stroke="rgb(255, 112, 67)" stroke-width="2px" d="M116.94099998474121,149.38015993173758L140.32919998168947,181.39496245123448L163.7173999786377,192.18673156152255L187.10559997558593,199.59936506178602L210.49379997253416,205.16546346940012L233.88199996948242,209.64738911867698L257.27019996643065,213.36668209558394L280.65839996337894,216.7585416168631L304.04659996032717,219.254617961029L327.4347999572754,221.80338319266338L350.82299995422363,224.0995715768795L374.21119995117186,225.8999509517909L397.5993999481201,227.90220076574278L420.9875999450683,229.72021519329246L444.37579994201656,231.32432012696026L467.76399993896484,233.06012475112783L491.1521999359131,233.92192643437357L514.5403999328613,235.6192619529138L537.9285999298096,236.65216059295182L561.3167999267579,237.54230271592533L584.704999923706,238.44355573307513L608.0931999206543,239.63152028307687L631.4813999176025,240.55390472507935L654.8695999145508,241.35154617593653L678.257799911499,242.48917377957278L701.6459999084473,243.26687329303167L725.0341999053956,243.88043254905278L748.4223999023437,244.54772599969928L771.810599899292,245.28842524431167L795.1987998962402,245.93402857145264L818.5869998931885,246.25673111106863L841.9751998901367,247.24161771203836L865.363399887085,247.52266115694474L888.7515998840331,248.42870816898647L912.1397998809815,248.5997600694358L935.5279998779297,249.32158971761254L958.916199874878,249.7644395013909L982.3043998718261,249.9718789044224L1005.6925998687744,250.57773352579568L1029.0807998657226,251.0795530512525L1052.468999862671,251.7428995662549L1075.8571998596192,252.0113722914728L1099.2453998565675,252.49465563743195L1122.6335998535158,252.47020806573676L1146.0217998504638,253.27785202473314L1169.409999847412,253.52715778165185L1192.7981998443604,253.72513535265972L1216.1863998413087,254.25539444179884L1239.5745998382567,255.09224392230806L1262.962799835205,255.30007531552337" fill="none"></path></g><g><path style="fill: none;" stroke="rgb(187, 187, 187)" stroke-width="2px" d="M116.94099998474121,174.4509689854651L140.32919998168947,189.29569131488626L163.7173999786377,196.93202054672457L187.10559997558593,204.5606631664523L210.49379997253416,209.8976771038724L233.88199996948242,214.12662039864426L257.27019996643065,217.30365127664498L280.65839996337894,219.75377916225062L304.04659996032717,222.15749901459768L327.4347999572754,223.90810915306503L350.82299995422363,226.11566269939158L374.21119995117186,226.39869763465722L397.5993999481201,230.4159391963527L420.9875999450683,230.97627790005828L444.37579994201656,231.87026783472137L467.76399993896484,233.84967408278771L491.1521999359131,234.6235708409L514.5403999328613,234.88560952034186L537.9285999298096,235.4373064174659L561.3167999267579,236.46345561732704L584.704999923706,238.14448073971235L608.0931999206543,240.09577182976574L631.4813999176025,239.54257005078654L654.8695999145508,239.05060885317144L678.257799911499,242.27802173388062L701.6459999084473,242.24150807353817L725.0341999053956,243.91016973541264L748.4223999023437,244.510653640704L771.810599899292,243.47001432094385L795.1987998962402,245.3321929758722L818.5869998931885,245.24149455747465L841.9751998901367,246.70609604204037L865.363399887085,244.28979645873625L888.7515998840331,249.07062588727257L912.1397998809815,246.92529515058686L935.5279998779297,246.12611277280013L958.916199874878,248.00746740729628L982.3043998718261,249.02301935529104L1005.6925998687744,248.55024314851235L1029.0807998657226,248.65606247561044L1052.468999862671,252.12670751820605L1075.8571998596192,251.83652664694546L1099.2453998565675,252.97881307644474L1122.6335998535158,252.9425967879659L1146.0217998504638,252.1459645991912L1169.409999847412,253.29904652846596L1192.7981998443604,253.01040658413496L1216.1863998413087,254.86144731108124L1239.5745998382567,254.74144424721635L1262.962799835205,254.78436491952908" fill="none"></path></g><g><path style="fill: none;" stroke="rgb(0, 153, 136)" stroke-width="2px" d="M116.94099998474121,61.21835957575638L140.32919998168947,107.89810060495768L163.7173999786377,120.91055267991362L187.10559997558593,129.25621293038895L210.49379997253416,135.90640299492296L233.88199996948242,142.20311703759288L257.27019996643065,147.89310236583586L280.65839996337894,152.66503767227005L304.04659996032717,157.61195379226046L327.4347999572754,161.8344179849133L350.82299995422363,166.03047916058605L374.21119995117186,169.8821656956745L397.5993999481201,173.1799475728334L420.9875999450683,176.19884870954846L444.37579994201656,179.28796565114718L467.76399993896484,182.31849132434834L491.1521999359131,184.81518944604724L514.5403999328613,187.63485143415127L537.9285999298096,190.03030795319773L561.3167999267579,191.74261118887244L584.704999923706,194.66740764766146L608.0931999206543,196.45427011968204L631.4813999176025,197.94807712576056L654.8695999145508,199.36260299075002L678.257799911499,200.99098428200978L701.6459999084473,202.67984019680316L725.0341999053956,204.06890021674627L748.4223999023437,205.50825212671188L771.810599899292,206.82900673071327L795.1987998962402,207.82622074711944L818.5869998931885,209.22276011999548L841.9751998901367,210.21316161734467L865.363399887085,211.13804218074765L888.7515998840331,212.82496067279334L912.1397998809815,213.98433246754666L935.5279998779297,213.9292015262892L958.916199874878,215.88153792349948L982.3043998718261,216.6545335547524L1005.6925998687744,217.91685008192235L1029.0807998657226,217.97297226272514L1052.468999862671,219.5020043177372L1075.8571998596192,220.111553559234L1099.2453998565675,220.24266751727518L1122.6335998535158,221.60334204114753L1146.0217998504638,222.45451943872104L1169.409999847412,222.62482340387706L1192.7981998443604,224.13790551347793L1216.1863998413087,224.6926121743123L1239.5745998382567,224.12960613510296L1262.962799835205,225.41362179704703" fill="none"></path></g><g><path style="fill: none;" stroke="rgb(238, 51, 119)" stroke-width="2px" d="M116.94099998474121,99.94151088729234L140.32919998168947,117.0282098090687L163.7173999786377,129.55836076634225L187.10559997558593,135.91649561574812L210.49379997253416,141.05917253467234L233.88199996948242,147.2364151783244L257.27019996643065,148.19483568343387L280.65839996337894,150.2527210696844L304.04659996032717,157.13576231468468L327.4347999572754,160.34835165855694L350.82299995422363,164.6732199075108L374.21119995117186,166.49037826454403L397.5993999481201,169.5776749298868L420.9875999450683,173.08296830022593L444.37579994201656,173.95774621024682L467.76399993896484,175.54099005711979L491.1521999359131,175.5210391084529L514.5403999328613,181.88015618613554L537.9285999298096,182.4120373036216L561.3167999267579,181.533501694597L584.704999923706,184.27849631113205L608.0931999206543,185.4924223259528L631.4813999176025,187.7121410848811L654.8695999145508,189.17416534662897L678.257799911499,194.06553600700664L701.6459999084473,187.7340294562957L725.0341999053956,193.43908162562767L748.4223999023437,196.22246424637268L771.810599899292,195.55976654270907L795.1987998962402,196.11273402870484L818.5869998931885,199.28575489218127L841.9751998901367,197.18505696884114L865.363399887085,193.88607659295923L888.7515998840331,201.11911551014637L912.1397998809815,201.51868417086826L935.5279998779297,200.6930807535642L958.916199874878,205.00219730501595L982.3043998718261,203.02986490279582L1005.6925998687744,202.0932246338778L1029.0807998657226,201.58846743485938L1052.468999862671,205.4611231919658L1075.8571998596192,205.31599671126114L1099.2453998565675,205.141169089271L1122.6335998535158,204.58517381702768L1146.0217998504638,205.7125195631983L1169.409999847412,205.8470848371109L1192.7981998443604,209.5639718053033L1216.1863998413087,208.35223552875087L1239.5745998382567,205.0140651457541L1262.962799835205,211.58234277876963" fill="none"></path></g><g><path style="fill: none;" stroke="rgb(51, 187, 238)" stroke-width="2px" d="M116.94099998474121,226.85743428496662L140.32919998168947,258.5843628179629L163.7173999786377,271.0855515579757L187.10559997558593,278.1649753794427L210.49379997253416,283.2941849574533L233.88199996948242,286.9656596375668L257.27019996643065,289.8951194278531L280.65839996337894,292.2983571773304L304.04659996032717,294.3543073936504L327.4347999572754,296.07313253496994L350.82299995422363,297.39491892922535L374.21119995117186,298.377376993309L397.5993999481201,299.52649396440245L420.9875999450683,300.49441685224417L444.37579994201656,301.4574916775824L467.76399993896484,302.2412354994507L491.1521999359131,302.96633398530986L514.5403999328613,303.68498265567297L537.9285999298096,304.33462528396115L561.3167999267579,304.7615003413397L584.704999923706,305.5371452855592L608.0931999206543,305.9409852875946L631.4813999176025,306.1576004148718L654.8695999145508,306.45760807453405L678.257799911499,307.27870811035825L701.6459999084473,307.20661345597284L725.0341999053956,307.97821234059364L748.4223999023437,308.3346868620824L771.810599899292,308.4853845595952L795.1987998962402,308.60913856401237L818.5869998931885,308.97961434407887L841.9751998901367,309.19470656696365L865.363399887085,309.6942867921749L888.7515998840331,309.93626638772673L912.1397998809815,309.82652040033884L935.5279998779297,310.19849430380907L958.916199874878,310.6740189475089L982.3043998718261,310.54150148438424L1005.6925998687744,310.9972982083149L1029.0807998657226,310.65489703555266L1052.468999862671,311.1279345691206L1075.8571998596192,311.1530444690575L1099.2453998565675,311.86898863243385L1122.6335998535158,311.9605318572621L1146.0217998504638,311.4442976812808L1169.409999847412,312.4023453451521L1192.7981998443604,311.8295294136698L1216.1863998413087,311.6524647442512L1239.5745998382567,312.5762031293599L1262.962799835205,312.5134779414949" fill="none"></path></g><g><path style="fill: none;" stroke="rgb(204, 51, 17)" stroke-width="2px" d="M116.94099998474121,251.5021725370376L140.32919998168947,267.09091025791366L163.7173999786377,278.9311765141758L187.10559997558593,281.9120681199618L210.49379997253416,287.3759291797439L233.88199996948242,291.0001397560824L257.27019996643065,293.08723967511435L280.65839996337894,295.8809131645936L304.04659996032717,295.7238152135619L327.4347999572754,297.26798845262886L350.82299995422363,300.26195090351035L374.21119995117186,297.1533313238573L397.5993999481201,302.03635529669987L420.9875999450683,303.7680079788628L444.37579994201656,302.73965777664756L467.76399993896484,305.3773552180351L491.1521999359131,305.4005772572016L514.5403999328613,305.26947456324615L537.9285999298096,307.4071006652841L561.3167999267579,307.5500396605376L584.704999923706,307.7603897033249L608.0931999206543,308.89761855832586L631.4813999176025,309.05396857406424L654.8695999145508,307.2349921935921L678.257799911499,308.66333683897034L701.6459999084473,308.8712741145916L725.0341999053956,309.04306719188276L748.4223999023437,310.90131693370415L771.810599899292,310.75180421801144L795.1987998962402,311.43678228327343L818.5869998931885,311.6149891309863L841.9751998901367,310.7651927103248L865.363399887085,310.9040518537224L888.7515998840331,310.8049526801782L912.1397998809815,312.2418197328291L935.5279998779297,311.6269966463877L958.916199874878,311.9734236033942L982.3043998718261,312.84911503076887L1005.6925998687744,312.9490736540552L1029.0807998657226,313.1691513612896L1052.468999862671,313.1992523776189L1075.8571998596192,312.2362214822151L1099.2453998565675,313.7232587727625L1122.6335998535158,314.1072829951599L1146.0217998504638,314.1570398411097L1169.409999847412,314.1271877610752L1192.7981998443604,312.0758670839953L1216.1863998413087,314.95257040229876L1239.5745998382567,313.9552933070124L1262.962799835205,313.857390379374" fill="none"></path></g></g></g></g></g><g><g opacity="0.00621511"><span fill="rgb(0, 0, 0)" stroke="none" stroke-width="1px">Alt + Scroll to Zoom</span></g></g></g><g transform="translate(30, 377)" clip-path="url(#clip_1)"><clipPath id="clip_1"><rect width="1403" height="22"></rect></clipPath><g><g><line x1="0" y1="0" x2="0" y2="5" style="visibility: inherit;" fill="rgb(0, 0, 0)" stroke="rgb(204, 204, 204)" stroke-width="1px"></line><line x1="116.94099998474121" y1="0" x2="116.94099998474121" y2="5" style="visibility: inherit;" fill="rgb(0, 0, 0)" stroke="rgb(204, 204, 204)" stroke-width="1px"></line><line x1="233.88199996948242" y1="0" x2="233.88199996948242" y2="5" style="visibility: inherit;" fill="rgb(0, 0, 0)" stroke="rgb(204, 204, 204)" stroke-width="1px"></line><line x1="350.82299995422363" y1="0" x2="350.82299995422363" y2="5" style="visibility: inherit;" fill="rgb(0, 0, 0)" stroke="rgb(204, 204, 204)" stroke-width="1px"></line><line x1="467.76399993896484" y1="0" x2="467.76399993896484" y2="5" style="visibility: inherit;" fill="rgb(0, 0, 0)" stroke="rgb(204, 204, 204)" stroke-width="1px"></line><line x1="584.704999923706" y1="0" x2="584.704999923706" y2="5" style="visibility: inherit;" fill="rgb(0, 0, 0)" stroke="rgb(204, 204, 204)" stroke-width="1px"></line><line x1="701.6459999084473" y1="0" x2="701.6459999084473" y2="5" style="visibility: inherit;" fill="rgb(0, 0, 0)" stroke="rgb(204, 204, 204)" stroke-width="1px"></line><line x1="818.5869998931885" y1="0" x2="818.5869998931885" y2="5" style="visibility: inherit;" fill="rgb(0, 0, 0)" stroke="rgb(204, 204, 204)" stroke-width="1px"></line><line x1="935.5279998779297" y1="0" x2="935.5279998779297" y2="5" style="visibility: inherit;" fill="rgb(0, 0, 0)" stroke="rgb(204, 204, 204)" stroke-width="1px"></line><line x1="1052.468999862671" y1="0" x2="1052.468999862671" y2="5" style="visibility: inherit;" fill="rgb(0, 0, 0)" stroke="rgb(204, 204, 204)" stroke-width="1px"></line><line x1="1169.409999847412" y1="0" x2="1169.409999847412" y2="5" style="visibility: inherit;" fill="rgb(0, 0, 0)" stroke="rgb(204, 204, 204)" stroke-width="1px"></line><line x1="1286.3509998321533" y1="0" x2="1286.3509998321533" y2="5" style="visibility: inherit;" fill="rgb(0, 0, 0)" stroke="rgb(204, 204, 204)" stroke-width="1px"></line><line x1="1403.2919998168945" y1="0" x2="1403.2919998168945" y2="5" style="visibility: inherit;" fill="rgb(0, 0, 0)" stroke="rgb(204, 204, 204)" stroke-width="1px"></line></g><g transform="translate(0, 8)"><text style="text-anchor: middle; visibility: hidden; font-family: &quot;Helvetica Neue&quot;, sans-serif; font-size: 12px; font-weight: 200;" x="0" y="0" dx="0em" dy="0.95em" fill="rgb(50, 49, 63)" stroke="none" stroke-width="1px">-5</text><text style="text-anchor: middle; visibility: inherit; font-family: &quot;Helvetica Neue&quot;, sans-serif; font-size: 12px; font-weight: 200;" x="116.94099998474121" y="0" dx="0em" dy="0.95em" fill="rgb(50, 49, 63)" stroke="none" stroke-width="1px">0</text><text style="text-anchor: middle; visibility: inherit; font-family: &quot;Helvetica Neue&quot;, sans-serif; font-size: 12px; font-weight: 200;" x="233.88199996948242" y="0" dx="0em" dy="0.95em" fill="rgb(50, 49, 63)" stroke="none" stroke-width="1px">5</text><text style="text-anchor: middle; visibility: inherit; font-family: &quot;Helvetica Neue&quot;, sans-serif; font-size: 12px; font-weight: 200;" x="350.82299995422363" y="0" dx="0em" dy="0.95em" fill="rgb(50, 49, 63)" stroke="none" stroke-width="1px">10</text><text style="text-anchor: middle; visibility: inherit; font-family: &quot;Helvetica Neue&quot;, sans-serif; font-size: 12px; font-weight: 200;" x="467.76399993896484" y="0" dx="0em" dy="0.95em" fill="rgb(50, 49, 63)" stroke="none" stroke-width="1px">15</text><text style="text-anchor: middle; visibility: inherit; font-family: &quot;Helvetica Neue&quot;, sans-serif; font-size: 12px; font-weight: 200;" x="584.704999923706" y="0" dx="0em" dy="0.95em" fill="rgb(50, 49, 63)" stroke="none" stroke-width="1px">20</text><text style="text-anchor: middle; visibility: inherit; font-family: &quot;Helvetica Neue&quot;, sans-serif; font-size: 12px; font-weight: 200;" x="701.6459999084473" y="0" dx="0em" dy="0.95em" fill="rgb(50, 49, 63)" stroke="none" stroke-width="1px">25</text><text style="text-anchor: middle; visibility: inherit; font-family: &quot;Helvetica Neue&quot;, sans-serif; font-size: 12px; font-weight: 200;" x="818.5869998931885" y="0" dx="0em" dy="0.95em" fill="rgb(50, 49, 63)" stroke="none" stroke-width="1px">30</text><text style="text-anchor: middle; visibility: inherit; font-family: &quot;Helvetica Neue&quot;, sans-serif; font-size: 12px; font-weight: 200;" x="935.5279998779297" y="0" dx="0em" dy="0.95em" fill="rgb(50, 49, 63)" stroke="none" stroke-width="1px">35</text><text style="text-anchor: middle; visibility: inherit; font-family: &quot;Helvetica Neue&quot;, sans-serif; font-size: 12px; font-weight: 200;" x="1052.468999862671" y="0" dx="0em" dy="0.95em" fill="rgb(50, 49, 63)" stroke="none" stroke-width="1px">40</text><text style="text-anchor: middle; visibility: inherit; font-family: &quot;Helvetica Neue&quot;, sans-serif; font-size: 12px; font-weight: 200;" x="1169.409999847412" y="0" dx="0em" dy="0.95em" fill="rgb(50, 49, 63)" stroke="none" stroke-width="1px">45</text><text style="text-anchor: middle; visibility: inherit; font-family: &quot;Helvetica Neue&quot;, sans-serif; font-size: 12px; font-weight: 200;" x="1286.3509998321533" y="0" dx="0em" dy="0.95em" fill="rgb(50, 49, 63)" stroke="none" stroke-width="1px">50</text><text style="text-anchor: middle; visibility: hidden; font-family: &quot;Helvetica Neue&quot;, sans-serif; font-size: 12px; font-weight: 200;" x="1403.2919998168945" y="0" dx="0em" dy="0.95em" fill="rgb(50, 49, 63)" stroke="none" stroke-width="1px">55</text></g><line x1="0" y1="0" x2="1403.2919998168945" y2="0" fill="rgb(0, 0, 0)" stroke="rgb(204, 204, 204)" stroke-width="1px"></line></g></g></g></g></svg>