<svg viewBox="0 0 1434 400" xmlns="http://www.w3.org/2000/svg"><g><g><g><g><g><line x1="30.70800018310547" y1="377.95999908447266" x2="25.70800018310547" y2="377.95999908447266" style="visibility: inherit;" fill="rgb(0, 0, 0)" stroke="rgb(204, 204, 204)" stroke-width="1px"></line><line x1="30.70800018310547" y1="348.8861530010517" x2="25.70800018310547" y2="348.8861530010517" style="visibility: inherit;" fill="rgb(0, 0, 0)" stroke="rgb(204, 204, 204)" stroke-width="1px"></line><line x1="30.70800018310547" y1="319.81230691763074" x2="25.70800018310547" y2="319.81230691763074" style="visibility: inherit;" fill="rgb(0, 0, 0)" stroke="rgb(204, 204, 204)" stroke-width="1px"></line><line x1="30.70800018310547" y1="290.7384608342097" x2="25.70800018310547" y2="290.7384608342097" style="visibility: inherit;" fill="rgb(0, 0, 0)" stroke="rgb(204, 204, 204)" stroke-width="1px"></line><line x1="30.70800018310547" y1="261.66461475078876" x2="25.70800018310547" y2="261.66461475078876" style="visibility: inherit;" fill="rgb(0, 0, 0)" stroke="rgb(204, 204, 204)" stroke-width="1px"></line><line x1="30.70800018310547" y1="232.59076866736777" x2="25.70800018310547" y2="232.59076866736777" style="visibility: inherit;" fill="rgb(0, 0, 0)" stroke="rgb(204, 204, 204)" stroke-width="1px"></line><line x1="30.70800018310547" y1="203.5169225839468" x2="25.70800018310547" y2="203.5169225839468" style="visibility: inherit;" fill="rgb(0, 0, 0)" stroke="rgb(204, 204, 204)" stroke-width="1px"></line><line x1="30.70800018310547" y1="174.44307650052585" x2="25.70800018310547" y2="174.44307650052585" style="visibility: inherit;" fill="rgb(0, 0, 0)" stroke="rgb(204, 204, 204)" stroke-width="1px"></line><line x1="30.70800018310547" y1="145.36923041710486" x2="25.70800018310547" y2="145.36923041710486" style="visibility: inherit;" fill="rgb(0, 0, 0)" stroke="rgb(204, 204, 204)" stroke-width="1px"></line><line x1="30.70800018310547" y1="116.2953843336839" x2="25.70800018310547" y2="116.2953843336839" style="visibility: inherit;" fill="rgb(0, 0, 0)" stroke="rgb(204, 204, 204)" stroke-width="1px"></line><line x1="30.70800018310547" y1="87.22153825026288" x2="25.70800018310547" y2="87.22153825026288" style="visibility: inherit;" fill="rgb(0, 0, 0)" stroke="rgb(204, 204, 204)" stroke-width="1px"></line><line x1="30.70800018310547" y1="58.14769216684198" x2="25.70800018310547" y2="58.14769216684198" style="visibility: inherit;" fill="rgb(0, 0, 0)" stroke="rgb(204, 204, 204)" stroke-width="1px"></line><line x1="30.70800018310547" y1="29.07384608342096" x2="25.70800018310547" y2="29.07384608342096" style="visibility: inherit;" fill="rgb(0, 0, 0)" stroke="rgb(204, 204, 204)" stroke-width="1px"></line><line x1="30.70800018310547" y1="0" x2="25.70800018310547" y2="0" style="visibility: inherit;" fill="rgb(0, 0, 0)" stroke="rgb(204, 204, 204)" stroke-width="1px"></line></g><g transform="translate(20.70800018310547, 0)"><text style="text-anchor: end; visibility: hidden; font-family: &quot;Helvetica Neue&quot;, sans-serif; font-size: 12px; font-weight: 200;" x="0" y="377.95999908447266" dx="0em" dy="0.3em" fill="rgb(50, 49, 63)" stroke="none" stroke-width="1px">-2</text><text style="text-anchor: end; visibility: inherit; font-family: &quot;Helvetica Neue&quot;, sans-serif; font-size: 12px; font-weight: 200;" x="0" y="348.8861530010517" dx="0em" dy="0.3em" fill="rgb(50, 49, 63)" stroke="none" stroke-width="1px">0</text><text style="text-anchor: end; visibility: inherit; font-family: &quot;Helvetica Neue&quot;, sans-serif; font-size: 12px; font-weight: 200;" x="0" y="319.81230691763074" dx="0em" dy="0.3em" fill="rgb(50, 49, 63)" stroke="none" stroke-width="1px">2</text><text style="text-anchor: end; visibility: inherit; font-family: &quot;Helvetica Neue&quot;, sans-serif; font-size: 12px; font-weight: 200;" x="0" y="290.7384608342097" dx="0em" dy="0.3em" fill="rgb(50, 49, 63)" stroke="none" stroke-width="1px">4</text><text style="text-anchor: end; visibility: inherit; font-family: &quot;Helvetica Neue&quot;, sans-serif; font-size: 12px; font-weight: 200;" x="0" y="261.66461475078876" dx="0em" dy="0.3em" fill="rgb(50, 49, 63)" stroke="none" stroke-width="1px">6</text><text style="text-anchor: end; visibility: inherit; font-family: &quot;Helvetica Neue&quot;, sans-serif; font-size: 12px; font-weight: 200;" x="0" y="232.59076866736777" dx="0em" dy="0.3em" fill="rgb(50, 49, 63)" stroke="none" stroke-width="1px">8</text><text style="text-anchor: end; visibility: inherit; font-family: &quot;Helvetica Neue&quot;, sans-serif; font-size: 12px; font-weight: 200;" x="0" y="203.5169225839468" dx="0em" dy="0.3em" fill="rgb(50, 49, 63)" stroke="none" stroke-width="1px">10</text><text style="text-anchor: end; visibility: inherit; font-family: &quot;Helvetica Neue&quot;, sans-serif; font-size: 12px; font-weight: 200;" x="0" y="174.44307650052585" dx="0em" dy="0.3em" fill="rgb(50, 49, 63)" stroke="none" stroke-width="1px">12</text><text style="text-anchor: end; visibility: inherit; font-family: &quot;Helvetica Neue&quot;, sans-serif; font-size: 12px; font-weight: 200;" x="0" y="145.36923041710486" dx="0em" dy="0.3em" fill="rgb(50, 49, 63)" stroke="none" stroke-width="1px">14</text><text style="text-anchor: end; visibility: inherit; font-family: &quot;Helvetica Neue&quot;, sans-serif; font-size: 12px; font-weight: 200;" x="0" y="116.2953843336839" dx="0em" dy="0.3em" fill="rgb(50, 49, 63)" stroke="none" stroke-width="1px">16</text><text style="text-anchor: end; visibility: inherit; font-family: &quot;Helvetica Neue&quot;, sans-serif; font-size: 12px; font-weight: 200;" x="0" y="87.22153825026288" dx="0em" dy="0.3em" fill="rgb(50, 49, 63)" stroke="none" stroke-width="1px">18</text><text style="text-anchor: end; visibility: inherit; font-family: &quot;Helvetica Neue&quot;, sans-serif; font-size: 12px; font-weight: 200;" x="0" y="58.14769216684198" dx="0em" dy="0.3em" fill="rgb(50, 49, 63)" stroke="none" stroke-width="1px">20</text><text style="text-anchor: end; visibility: inherit; font-family: &quot;Helvetica Neue&quot;, sans-serif; font-size: 12px; font-weight: 200;" x="0" y="29.07384608342096" dx="0em" dy="0.3em" fill="rgb(50, 49, 63)" stroke="none" stroke-width="1px">22</text><text style="text-anchor: end; visibility: hidden; font-family: &quot;Helvetica Neue&quot;, sans-serif; font-size: 12px; font-weight: 200;" x="0" y="0" dx="0em" dy="0.3em" fill="rgb(50, 49, 63)" stroke="none" stroke-width="1px">24</text></g><line x1="30.70800018310547" y1="0" x2="30.70800018310547" y2="377.95999908447266" fill="rgb(0, 0, 0)" stroke="rgb(204, 204, 204)" stroke-width="1px"></line></g></g><g transform="translate(30, 0)" clip-path="url(#clip_0)"><clipPath id="clip_0"><rect width="1403" height="377"></rect></clipPath><g><g><g><line x1="0" y1="0" x2="0" y2="377.95999908447266" fill="rgb(0, 0, 0)" stroke="rgb(60, 60, 60)" stroke-width="1px" opacity="0.25"></line><line x1="116.94099998474121" y1="0" x2="116.94099998474121" y2="377.95999908447266" fill="rgb(0, 0, 0)" stroke="rgb(60, 60, 60)" stroke-width="1px" opacity="0.25"></line><line x1="233.88199996948242" y1="0" x2="233.88199996948242" y2="377.95999908447266" fill="rgb(0, 0, 0)" stroke="rgb(60, 60, 60)" stroke-width="1px" opacity="0.25"></line><line x1="350.82299995422363" y1="0" x2="350.82299995422363" y2="377.95999908447266" fill="rgb(0, 0, 0)" stroke="rgb(60, 60, 60)" stroke-width="1px" opacity="0.25"></line><line x1="467.76399993896484" y1="0" x2="467.76399993896484" y2="377.95999908447266" fill="rgb(0, 0, 0)" stroke="rgb(60, 60, 60)" stroke-width="1px" opacity="0.25"></line><line x1="584.704999923706" y1="0" x2="584.704999923706" y2="377.95999908447266" fill="rgb(0, 0, 0)" stroke="rgb(60, 60, 60)" stroke-width="1px" opacity="0.25"></line><line x1="701.6459999084473" y1="0" x2="701.6459999084473" y2="377.95999908447266" fill="rgb(0, 0, 0)" stroke="rgb(60, 60, 60)" stroke-width="1px" opacity="0.25"></line><line x1="818.5869998931885" y1="0" x2="818.5869998931885" y2="377.95999908447266" fill="rgb(0, 0, 0)" stroke="rgb(60, 60, 60)" stroke-width="1px" opacity="0.25"></line><line x1="935.5279998779297" y1="0" x2="935.5279998779297" y2="377.95999908447266" fill="rgb(0, 0, 0)" stroke="rgb(60, 60, 60)" stroke-width="1px" opacity="0.25"></line><line x1="1052.468999862671" y1="0" x2="1052.468999862671" y2="377.95999908447266" fill="rgb(0, 0, 0)" stroke="rgb(60, 60, 60)" stroke-width="1px" opacity="0.25"></line><line x1="1169.409999847412" y1="0" x2="1169.409999847412" y2="377.95999908447266" fill="rgb(0, 0, 0)" stroke="rgb(60, 60, 60)" stroke-width="1px" opacity="0.25"></line><line x1="1286.3509998321533" y1="0" x2="1286.3509998321533" y2="377.95999908447266" fill="rgb(0, 0, 0)" stroke="rgb(60, 60, 60)" stroke-width="1px" opacity="0.25"></line><line x1="1403.2919998168945" y1="0" x2="1403.2919998168945" y2="377.95999908447266" fill="rgb(0, 0, 0)" stroke="rgb(60, 60, 60)" stroke-width="1px" opacity="0.25"></line></g><g><line x1="0" y1="377.95999908447266" x2="1403.2919998168945" y2="377.95999908447266" fill="rgb(0, 0, 0)" stroke="rgb(60, 60, 60)" stroke-width="1px" opacity="0.25"></line><line x1="0" y1="348.8861530010517" x2="1403.2919998168945" y2="348.8861530010517" fill="rgb(0, 0, 0)" stroke="rgb(60, 60, 60)" stroke-width="1px" opacity="0.25"></line><line x1="0" y1="319.81230691763074" x2="1403.2919998168945" y2="319.81230691763074" fill="rgb(0, 0, 0)" stroke="rgb(60, 60, 60)" stroke-width="1px" opacity="0.25"></line><line x1="0" y1="290.7384608342097" x2="1403.2919998168945" y2="290.7384608342097" fill="rgb(0, 0, 0)" stroke="rgb(60, 60, 60)" stroke-width="1px" opacity="0.25"></line><line x1="0" y1="261.66461475078876" x2="1403.2919998168945" y2="261.66461475078876" fill="rgb(0, 0, 0)" stroke="rgb(60, 60, 60)" stroke-width="1px" opacity="0.25"></line><line x1="0" y1="232.59076866736777" x2="1403.2919998168945" y2="232.59076866736777" fill="rgb(0, 0, 0)" stroke="rgb(60, 60, 60)" stroke-width="1px" opacity="0.25"></line><line x1="0" y1="203.5169225839468" x2="1403.2919998168945" y2="203.5169225839468" fill="rgb(0, 0, 0)" stroke="rgb(60, 60, 60)" stroke-width="1px" opacity="0.25"></line><line x1="0" y1="174.44307650052585" x2="1403.2919998168945" y2="174.44307650052585" fill="rgb(0, 0, 0)" stroke="rgb(60, 60, 60)" stroke-width="1px" opacity="0.25"></line><line x1="0" y1="145.36923041710486" x2="1403.2919998168945" y2="145.36923041710486" fill="rgb(0, 0, 0)" stroke="rgb(60, 60, 60)" stroke-width="1px" opacity="0.25"></line><line x1="0" y1="116.2953843336839" x2="1403.2919998168945" y2="116.2953843336839" fill="rgb(0, 0, 0)" stroke="rgb(60, 60, 60)" stroke-width="1px" opacity="0.25"></line><line x1="0" y1="87.22153825026288" x2="1403.2919998168945" y2="87.22153825026288" fill="rgb(0, 0, 0)" stroke="rgb(60, 60, 60)" stroke-width="1px" opacity="0.25"></line><line x1="0" y1="58.14769216684198" x2="1403.2919998168945" y2="58.14769216684198" fill="rgb(0, 0, 0)" stroke="rgb(60, 60, 60)" stroke-width="1px" opacity="0.25"></line><line x1="0" y1="29.07384608342096" x2="1403.2919998168945" y2="29.07384608342096" fill="rgb(0, 0, 0)" stroke="rgb(60, 60, 60)" stroke-width="1px" opacity="0.25"></line><line x1="0" y1="0" x2="1403.2919998168945" y2="0" fill="rgb(0, 0, 0)" stroke="rgb(60, 60, 60)" stroke-width="1px" opacity="0.25"></line></g></g></g><g><g><line x1="0" y1="348.8861530010517" x2="1403.2919998168945" y2="348.8861530010517" fill="rgb(0, 0, 0)" stroke="rgb(153, 153, 153)" stroke-width="1.5px"></line></g></g><g><g><line x1="116.94099998474121" y1="0" x2="116.94099998474121" y2="377.95999908447266" fill="rgb(0, 0, 0)" stroke="rgb(153, 153, 153)" stroke-width="1.5px"></line></g></g><g><g><g><g><g><path style="fill: none;" stroke="rgb(255, 112, 67)" stroke-width="2px" d="M116.94099998474121,139.79892166753388L140.32919998168947,175.39479296838869L163.7173999786377,195.26581348651226L187.10559997558593,208.14037198020202L210.49379997253416,217.0946302903876L233.88199996948242,223.77107108891875L257.27019996643065,228.93316252190513L280.65839996337894,233.03249600772128L304.04659996032717,236.22821891155294L327.4347999572754,238.97238013928464L350.82299995422363,241.35513177688625L374.21119995117186,243.33813029003872L397.5993999481201,245.0132465187199L420.9875999450683,246.4228732563187L444.37579994201656,247.94436304377922L467.76399993896484,249.22354735770972L491.1521999359131,250.2593194734937L514.5403999328613,251.31364911464516L537.9285999298096,252.2303611852932L561.3167999267579,253.06802506835922L584.704999923706,253.83889594371186L608.0931999206543,254.58816385050682L631.4813999176025,255.26079746449733L654.8695999145508,255.97763236814384L678.257799911499,256.6644809312021L701.6459999084473,257.1792398208171L725.0341999053956,257.86222621136176L748.4223999023437,258.3673929236763L771.810599899292,258.985083186795L795.1987998962402,259.4978950488552L818.5869998931885,259.9651592043587L841.9751998901367,260.4406989785732L865.363399887085,260.869476676349L888.7515998840331,261.2907899654899L912.1397998809815,261.63317489689484L935.5279998779297,261.9152570897701L958.916199874878,262.20333869649073L982.3043998718261,262.5152218298591L1005.6925998687744,262.93464003242286L1029.0807998657226,263.4529607320441L1052.468999862671,263.95024241398994L1075.8571998596192,264.25876504308894L1099.2453998565675,264.546205041239L1122.6335998535158,264.7952176872708L1146.0217998504638,265.13655697783815L1169.409999847412,265.4444688737626L1192.7981998443604,265.61658914448094L1216.1863998413087,265.96656488673193L1239.5745998382567,266.31835165467294L1262.962799835205,266.6147368610861" fill="none"></path></g><g><path style="fill: none;" stroke="rgb(187, 187, 187)" stroke-width="2px" d="M116.94099998474121,184.3382534990507L140.32919998168947,197.67067665947687L163.7173999786377,209.88813110065865L187.10559997558593,218.42970752455108L210.49379997253416,226.27327870793238L233.88199996948242,231.94048174919675L257.27019996643065,236.1312556449904L280.65839996337894,239.7870285908564L304.04659996032717,242.11398399746736L327.4347999572754,244.97239763908442L350.82299995422363,247.07819053060095L374.21119995117186,248.67694311267013L397.5993999481201,250.56582654098528L420.9875999450683,251.46542786038464L444.37579994201656,252.43031082855586L467.76399993896484,253.8215078402586L491.1521999359131,254.70251966490105L514.5403999328613,255.46332936089135L537.9285999298096,256.0819008030843L561.3167999267579,256.7396604553164L584.704999923706,257.6317005205662L608.0931999206543,258.6495647069661L631.4813999176025,258.5502725712002L654.8695999145508,258.70104952428113L678.257799911499,260.2659931067683L701.6459999084473,260.80130634118154L725.0341999053956,261.7693065829035L748.4223999023437,262.37166660697613L771.810599899292,262.7034477772281L795.1987998962402,263.0989676453145L818.5869998931885,263.63176597833865L841.9751998901367,263.9635117157048L865.363399887085,263.42837362240004L888.7515998840331,264.3491379023237L912.1397998809815,264.1265857505258L935.5279998779297,264.3381943706957L958.916199874878,264.45285153477437L982.3043998718261,265.2953755386965L1005.6925998687744,265.59709386077196L1029.0807998657226,265.9562901110677L1052.468999862671,266.91596396741454L1075.8571998596192,267.61474575646463L1099.2453998565675,268.23392081222414L1122.6335998535158,268.6475237197453L1146.0217998504638,268.73054911499037L1169.409999847412,268.84389518207183L1192.7981998443604,269.1418232609745L1216.1863998413087,269.91650223218164L1239.5745998382567,270.5527233524392L1262.962799835205,270.7583370184897" fill="none"></path></g><g><path style="fill: none;" stroke="rgb(0, 153, 136)" stroke-width="2px" d="M116.94099998474121,69.8720735089866L140.32919998168947,103.70414494685065L163.7173999786377,127.87053623862994L187.10559997558593,144.35494725368937L210.49379997253416,155.85917984150203L233.88199996948242,164.54866935754202L257.27019996643065,171.21037749211064L280.65839996337894,176.40144887733788L304.04659996032717,180.79152816778267L327.4347999572754,184.56274766889783L350.82299995422363,187.51523529219116L374.21119995117186,190.29447244441258L397.5993999481201,192.54950038995412L420.9875999450683,194.6484255858741L444.37579994201656,196.42898340229397L467.76399993896484,198.19340831896633L491.1521999359131,200.01081048985654L514.5403999328613,201.48698710821677L537.9285999298096,203.00710118759045L561.3167999267579,204.40470516460198L584.704999923706,205.75679969653922L608.0931999206543,207.21479994214116L631.4813999176025,208.3113721289516L654.8695999145508,209.41024861011013L678.257799911499,210.48541605361842L701.6459999084473,211.52997784984524L725.0341999053956,212.50947342767765L748.4223999023437,213.7191365911647L771.810599899292,214.57925464663748L795.1987998962402,215.5681313949024L818.5869998931885,216.46372024696274L841.9751998901367,217.21649549997164L865.363399887085,218.20752804135395L888.7515998840331,219.16225447541382L912.1397998809815,220.03032166413865L935.5279998779297,220.65106782423047L958.916199874878,221.4990110495011L982.3043998718261,222.28533514581966L1005.6925998687744,223.2776426584694L1029.0807998657226,223.78463355136515L1052.468999862671,224.5168217547517L1075.8571998596192,224.98249748927918L1099.2453998565675,225.61122960921696L1122.6335998535158,226.04962905419532L1146.0217998504638,226.84202113807248L1169.409999847412,227.50998144869212L1192.7981998443604,228.13617798479447L1216.1863998413087,228.8241516130655L1239.5745998382567,229.01962835469905L1262.962799835205,229.5976092679735" fill="none"></path></g><g><path style="fill: none;" stroke="rgb(238, 51, 119)" stroke-width="2px" d="M116.94099998474121,104.9348918808509L140.32919998168947,130.94191559434896L163.7173999786377,147.48673735541337L187.10559997558593,159.66502460245243L210.49379997253416,168.00798881729852L233.88199996948242,174.94167759552596L257.27019996643065,179.27613458214L280.65839996337894,182.5450306908074L304.04659996032717,186.89003592879908L327.4347999572754,190.22140231173233L350.82299995422363,192.37571474587395L374.21119995117186,194.02769960062673L397.5993999481201,195.91562087935344L420.9875999450683,197.96871242612607L444.37579994201656,199.49828058766667L467.76399993896484,200.98748048480456L491.1521999359131,201.64401947519787L514.5403999328613,203.5793433980086L537.9285999298096,205.18753675426845L561.3167999267579,205.86982515140852L584.704999923706,207.19794696175538L608.0931999206543,208.14730180018003L631.4813999176025,209.00826966126004L654.8695999145508,209.87213364541617L678.257799911499,211.47906366584823L701.6459999084473,211.17096409344106L725.0341999053956,212.81121285027024L748.4223999023437,214.08342235046294L771.810599899292,214.70399791265774L795.1987998962402,215.37476311306165L818.5869998931885,216.62123153034665L841.9751998901367,216.9949202099343L865.363399887085,217.07130422348538L888.7515998840331,218.0395891083388L912.1397998809815,218.2241362866982L935.5279998779297,218.57450888479227L958.916199874878,220.16982820484395L982.3043998718261,221.1637469487834L1005.6925998687744,221.40316322933472L1029.0807998657226,221.1002034344216L1052.468999862671,221.95355891368888L1075.8571998596192,222.63121872653295L1099.2453998565675,223.202950963283L1122.6335998535158,223.44986640994514L1146.0217998504638,223.62476666850057L1169.409999847412,223.3130313092106L1192.7981998443604,224.47027173365035L1216.1863998413087,224.61091373730068L1239.5745998382567,224.49527650368196L1262.962799835205,225.9168792561834" fill="none"></path></g><g><path style="fill: none;" stroke="rgb(51, 187, 238)" stroke-width="2px" d="M116.94099998474121,196.54855017075843L140.32919998168947,232.4050074305816L163.7173999786377,251.8043646937201L187.10559997558593,264.82059332776805L210.49379997253416,273.9914594751627L233.88199996948242,281.0765417573267L257.27019996643065,286.4983839010904L280.65839996337894,291.0614951722255L304.04659996032717,294.65744253037406L327.4347999572754,297.62450035519595L350.82299995422363,300.17871741468093L374.21119995117186,302.2126337618785L397.5993999481201,304.1068753325163L420.9875999450683,305.78859238802295L444.37579994201656,307.2462711933569L467.76399993896484,308.5636585285219L491.1521999359131,309.68768415618445L514.5403999328613,310.8612361025904L537.9285999298096,311.9461650652555L561.3167999267579,312.79577754923133L584.704999923706,313.5935912353063L608.0931999206543,314.4153705748935L631.4813999176025,315.0394145453947L654.8695999145508,315.5333513293807L678.257799911499,316.2158555633822L701.6459999084473,316.605103654638L725.0341999053956,317.23500274158584L748.4223999023437,317.9225650011261L771.810599899292,318.31060806321204L795.1987998962402,318.6765344345622L818.5869998931885,319.0878222997284L841.9751998901367,319.4627386993891L865.363399887085,319.8757897497001L888.7515998840331,320.2603400314617L912.1397998809815,320.5534156960676L935.5279998779297,320.88165134954437L958.916199874878,321.36034738315817L982.3043998718261,321.45892656985797L1005.6925998687744,321.84159942012036L1029.0807998657226,321.9406998582574L1052.468999862671,322.1572667368939L1075.8571998596192,322.28663360864687L1099.2453998565675,322.7659019160183L1122.6335998535158,323.081725011366L1146.0217998504638,323.1015228174088L1169.409999847412,323.55042584628006L1192.7981998443604,323.4758796314918L1216.1863998413087,323.34106694366L1239.5745998382567,323.83155198648205L1262.962799835205,324.03848846759564" fill="none"></path></g><g><path style="fill: none;" stroke="rgb(204, 51, 17)" stroke-width="2px" d="M116.94099998474121,239.59077063332074L140.32919998168947,256.28559703763534L163.7173999786377,268.23820532591304L187.10559997558593,277.36031409938215L210.49379997253416,283.7676204864726L233.88199996948242,289.29658277334755L257.27019996643065,293.34181796465344L280.65839996337894,296.99919532525826L304.04659996032717,299.28765613491527L327.4347999572754,301.66271018318L350.82299995422363,304.41974683070026L374.21119995117186,305.2189601519138L397.5993999481201,307.914517935635L420.9875999450683,310.2942415396774L444.37579994201656,311.1697955608292L467.76399993896484,312.96487995940595L491.1521999359131,314.66654942656305L514.5403999328613,314.657710873076L537.9285999298096,316.6569221856946L561.3167999267579,317.7566722276544L584.704999923706,318.62509879249L608.0931999206543,319.3403712058729L631.4813999176025,320.3087997791988L654.8695999145508,319.7695713539544L678.257799911499,320.0931362783352L701.6459999084473,319.1385986522091L725.0341999053956,320.65948739589544L748.4223999023437,321.7770427684759L771.810599899292,322.66375873872175L795.1987998962402,322.85767345541285L818.5869998931885,323.5519642049683L841.9751998901367,323.27374962981565L865.363399887085,323.7755097417558L888.7515998840331,323.6017689695147L912.1397998809815,324.4331492937049L935.5279998779297,324.1230934225391L958.916199874878,324.6930526603302L982.3043998718261,325.23538890645506L1005.6925998687744,325.60286911822135L1029.0807998657226,325.68981509623865L1052.468999862671,326.1783783192663L1075.8571998596192,326.4802107406804L1099.2453998565675,326.8980764235872L1122.6335998535158,327.4927136718977L1146.0217998504638,327.53387703145864L1169.409999847412,327.85829607921465L1192.7981998443604,325.9716279709612L1216.1863998413087,327.2296817162196L1239.5745998382567,326.7513114586479L1262.962799835205,327.4427009620146" fill="none"></path></g></g></g></g><g opacity="0.2"><g><g><g><path style="fill: none;" stroke="rgb(255, 112, 67)" stroke-width="2px" d="M116.94099998474121,139.79892166753388L140.32919998168947,196.7523157489016L163.7173999786377,214.3419931839109L187.10559997558593,223.2808527687812L210.49379997253416,228.785309940166L233.88199996948242,233.00699223197472L257.27019996643065,236.31503586453854L280.65839996337894,239.00936358364265L304.04659996032717,240.94128945748776L327.4347999572754,243.04713974694013L350.82299995422363,244.90764785130605L374.21119995117186,246.30183666942813L397.5993999481201,247.52045131661572L420.9875999450683,248.53455175719236L444.37579994201656,250.22480927083933L467.76399993896484,251.14142164872015L491.1521999359131,251.81253934312303L514.5403999328613,252.89487588219066L537.9285999298096,253.60528963940794L561.3167999267579,254.32444432716133L584.704999923706,254.99515998035L608.0931999206543,255.71204105571968L631.4813999176025,256.2697346055057L654.8695999145508,257.0528762320208L678.257799911499,257.69474889396395L701.6459999084473,257.9513759600279L725.0341999053956,258.88670404960374L748.4223999023437,259.1251422165982L771.810599899292,259.911618012493L795.1987998962402,260.2671125585222L818.5869998931885,260.66605528266405L841.9751998901367,261.15400854527843L865.363399887085,261.5126431718253L888.7515998840331,261.9227598690236L912.1397998809815,262.1467522792875L935.5279998779297,262.3383803718092L958.916199874878,262.63546110211473L982.3043998718261,262.9830465270164L1005.6925998687744,263.5637673339324L1029.0807998657226,264.23044177974396L1052.468999862671,264.6961649359116L1075.8571998596192,264.7215489863661L1099.2453998565675,264.97736503825666L1122.6335998535158,265.1687366562107L1146.0217998504638,265.64856591360035L1169.409999847412,265.9063367176013L1192.7981998443604,265.87476955054234L1216.1863998413087,266.4915285000888L1239.5745998382567,266.8460318065726L1262.962799835205,267.05931467069996" fill="none"></path></g><g><path style="fill: none;" stroke="rgb(187, 187, 187)" stroke-width="2px" d="M116.94099998474121,184.3382534990507L140.32919998168947,205.6701305557326L163.7173999786377,221.61688736419316L187.10559997558593,228.4746013990485L210.49379997253416,236.5138452449551L233.88199996948242,239.78026374836023L257.27019996643065,242.12412936835761L280.65839996337894,245.11718064134934L304.04659996032717,245.54579123440035L327.4347999572754,249.21680876592626L350.82299995422363,250.2177804813361L374.21119995117186,251.06637164482316L397.5993999481201,253.39298415133578L420.9875999450683,252.81306742684822L444.37579994201656,253.8765010971039L467.76399993896484,255.90732217789446L491.1521999359131,256.0236645871867L514.5403999328613,256.6043507353773L537.9285999298096,257.00966373324053L561.3167999267579,257.72623981182704L584.704999923706,258.96971169684366L608.0931999206543,260.17632749331125L631.4813999176025,258.4013363279014L654.8695999145508,258.9272131678058L678.257799911499,262.6133973575498L701.6459999084473,261.60427390993505L725.0341999053956,263.221304468639L748.4223999023437,263.27520571832065L771.810599899292,263.2011192269887L795.1987998962402,263.6922472288461L818.5869998931885,264.4309633011933L841.9751998901367,264.46113025574766L865.363399887085,262.62566654632764L888.7515998840331,265.7302842562568L912.1397998809815,263.79275753239335L935.5279998779297,264.65560729549406L958.916199874878,264.6248372791184L982.3043998718261,266.5591615367585L1005.6925998687744,266.04967134220476L1029.0807998657226,266.4950844853108L1052.468999862671,268.35547475001056L1075.8571998596192,268.6629184391991L1099.2453998565675,269.1626833954165L1122.6335998535158,269.26792808084804L1146.0217998504638,268.8550872078364L1169.409999847412,269.0139142826763L1192.7981998443604,269.58871537930054L1216.1863998413087,271.0785206889489L1239.5745998382567,271.50705503280415L1262.962799835205,271.0667575175613" fill="none"></path></g><g><path style="fill: none;" stroke="rgb(0, 153, 136)" stroke-width="2px" d="M116.94099998474121,69.8720735089866L140.32919998168947,124.00338780956903L163.7173999786377,151.07027187873805L187.10559997558593,163.74061460739932L210.49379997253416,170.8791059081503L233.88199996948242,176.5693615744511L257.27019996643065,180.73672671187384L280.65839996337894,183.97008079128443L304.04659996032717,187.2660423921874L327.4347999572754,190.16256911504834L350.82299995422363,191.91718788169098L374.21119995117186,194.44820368689344L397.5993999481201,195.92467925076787L420.9875999450683,197.7927013667921L444.37579994201656,199.0977271480501L467.76399993896484,200.83880128482156L491.1521999359131,202.73614468250133L514.5403999328613,203.70087723467358L537.9285999298096,205.28704073257094L561.3167999267579,206.50098338357984L584.704999923706,207.78486734236753L608.0931999206543,209.40175233442503L631.4813999176025,209.9562087592623L654.8695999145508,211.05855031460837L678.257799911499,212.09815957705078L701.6459999084473,213.0968160896065L725.0341999053956,213.9787142881656L748.4223999023437,215.53362947927738L771.810599899292,215.86943093755636L795.1987998962402,217.0514459707626L818.5869998931885,217.80710322806632L841.9751998901367,218.3456582297079L865.363399887085,219.69407673511805L888.7515998840331,220.59434405811854L912.1397998809815,221.33242240991913L935.5279998779297,221.5821870483616L958.916199874878,222.77092587428788L982.3043998718261,223.4648212829981L1005.6925998687744,224.76610392191705L1029.0807998657226,224.5451198890145L1052.468999862671,225.61510405836339L1075.8571998596192,225.68101109051014L1099.2453998565675,226.55432778866984L1122.6335998535158,226.707228221473L1146.0217998504638,228.03060926368227L1169.409999847412,228.51192191451742L1192.7981998443604,229.0754727888894L1216.1863998413087,229.85611205543347L1239.5745998382567,229.31284346714278L1262.962799835205,230.46458063787352" fill="none"></path></g><g><path style="fill: none;" stroke="rgb(238, 51, 119)" stroke-width="2px" d="M116.94099998474121,104.9348918808509L140.32919998168947,146.54612982244782L163.7173999786377,163.3697662460352L187.10559997558593,173.98669040497043L210.49379997253416,178.90056289620154L233.88199996948242,184.53346530377473L257.27019996643065,185.4744774243098L280.65839996337894,187.31111259864701L304.04659996032717,193.29807468101941L327.4347999572754,195.16809313962446L350.82299995422363,195.58764394186605L374.21119995117186,196.49668685412803L397.5993999481201,198.7413384069066L420.9875999450683,201.0443275262131L444.37579994201656,201.7908348800215L467.76399993896484,203.22023003136536L491.1521999359131,202.62855013549023L514.5403999328613,206.48183790369035L537.9285999298096,207.59958179658693L561.3167999267579,206.8931953832566L584.704999923706,209.1900568399192L608.0931999206543,209.57130281889167L631.4813999176025,210.2997044545714L654.8695999145508,211.16791938835794L678.257799911499,213.8894472751255L701.6459999084473,210.70881604873423L725.0341999053956,215.27158178856692L748.4223999023437,215.9917346476107L771.810599899292,215.6348606843122L795.1987998962402,216.38091054294583L818.5869998931885,218.49093374293162L841.9751998901367,217.5554531549642L865.363399887085,217.18588023469337L888.7515998840331,219.49201636626262L912.1397998809815,218.50095704630607L935.5279998779297,219.10006777289863L958.916199874878,222.56280716023934L982.3043998718261,222.65462505546608L1005.6925998687744,221.76228764882816L1029.0807998657226,220.64576374306435L1052.468999862671,223.23359213087875L1075.8571998596192,223.64770844498372L1099.2453998565675,224.0605493179954L1122.6335998535158,223.82023957983142L1146.0217998504638,223.8871170562883L1169.409999847412,222.8454282703242L1192.7981998443604,226.20613237020174L1216.1863998413087,224.8218767427682L1239.5745998382567,224.3218206532578L1262.962799835205,228.04928338490686" fill="none"></path></g><g><path style="fill: none;" stroke="rgb(51, 187, 238)" stroke-width="2px" d="M116.94099998474121,196.54855017075843L140.32919998168947,253.91888178647548L163.7173999786377,270.42774766633306L187.10559997558593,280.12767820140846L210.49379997253416,285.96494231720106L233.88199996948242,290.8777611831812L257.27019996643065,294.2517049161467L280.65839996337894,297.7145552114086L304.04659996032717,299.96076640682844L327.4347999572754,302.03023543226925L350.82299995422363,303.98687644316936L374.21119995117186,305.2524397997312L397.5993999481201,306.94205266108645L420.9875999450683,308.30787331250036L444.37579994201656,309.4310759546413L467.76399993896484,310.5388104076536L491.1521999359131,311.3732469477032L514.5403999328613,312.62126605748716L537.9285999298096,313.5733932312456L561.3167999267579,314.0701186172488L584.704999923706,314.79026801042005L608.0931999206543,315.648012543275L631.4813999176025,315.975468180487L654.8695999145508,316.2742506542077L678.257799911499,317.23960706343644L701.6459999084473,317.18897413155634L725.0341999053956,318.1798497602685L748.4223999023437,318.9539073348664L771.810599899292,318.8926722988984L795.1987998962402,319.22542378934554L818.5869998931885,319.70475396109003L841.9751998901367,320.0251132242843L865.363399887085,320.4953662758567L888.7515998840331,320.8371654265594L912.1397998809815,320.993029180381L935.5279998779297,321.37400482129567L958.916199874878,322.07839142617263L982.3043998718261,321.6067953489925L1005.6925998687744,322.4156086933826L1029.0807998657226,322.08935051513185L1052.468999862671,322.48211705441435L1075.8571998596192,322.48068391612065L1099.2453998565675,323.4848043767296L1122.6335998535158,323.55545965425074L1146.0217998504638,323.1312195264678L1169.409999847412,324.22378038951695L1192.7981998443604,323.3640603093164L1216.1863998413087,323.1388479119198L1239.5745998382567,324.56727955069863L1262.962799835205,324.34889318926184" fill="none"></path></g><g><path style="fill: none;" stroke="rgb(204, 51, 17)" stroke-width="2px" d="M116.94099998474121,239.59077063332074L140.32919998168947,266.3024928802241L163.7173999786377,279.7127092826596L187.10559997558593,288.0879140169818L210.49379997253416,292.1329997054579L233.88199996948242,296.9451280425189L257.27019996643065,299.12656901198386L280.65839996337894,302.33168662784277L304.04659996032717,302.66269131853176L327.4347999572754,305.18938864655416L350.82299995422363,308.5302956825054L374.21119995117186,306.41343085013335L397.5993999481201,311.9490531473629L420.9875999450683,313.8591648194657L444.37579994201656,312.48209741167204L467.76399993896484,315.6562405246757L491.1521999359131,317.21833353780977L514.5403999328613,314.6444552869532L537.9285999298096,319.6554345949011L561.3167999267579,319.40619676908415L584.704999923706,319.92769101316674L608.0931999206543,320.4132562896037L631.4813999176025,321.76142351925495L654.8695999145508,318.9607351037626L678.257799911499,320.57848136514525L701.6459999084473,317.7067962836869L725.0341999053956,322.94081661988764L748.4223999023437,323.4533741116358L771.810599899292,323.9938318772997L795.1987998962402,323.14854542327583L818.5869998931885,324.593400099067L841.9751998901367,322.8564278224421L865.363399887085,324.5281498497659L888.7515998840331,323.3411578235978L912.1397998809815,325.68021974426017L935.5279998779297,323.6580096237856L958.916199874878,325.5479915081986L982.3043998718261,326.0488932706079L1005.6925998687744,326.15408943382397L1029.0807998657226,325.82023406297407L1052.468999862671,326.9112231528281L1075.8571998596192,326.93295937243835L1099.2453998565675,327.5248749476459L1122.6335998535158,328.384669544106L1146.0217998504638,327.5956220707893L1169.409999847412,328.3449246507981L1192.7981998443604,323.1416258087575L1216.1863998413087,329.11676233403665L1239.5745998382567,326.0337560723064L1262.962799835205,328.4797852170508" fill="none"></path></g></g></g></g></g><g><g opacity="0.238747"><span fill="rgb(0, 0, 0)" stroke="none" stroke-width="1px">Alt + Scroll to Zoom</span></g></g></g><g transform="translate(30, 377)" clip-path="url(#clip_1)"><clipPath id="clip_1"><rect width="1403" height="22"></rect></clipPath><g><g><line x1="0" y1="0" x2="0" y2="5" style="visibility: inherit;" fill="rgb(0, 0, 0)" stroke="rgb(204, 204, 204)" stroke-width="1px"></line><line x1="116.94099998474121" y1="0" x2="116.94099998474121" y2="5" style="visibility: inherit;" fill="rgb(0, 0, 0)" stroke="rgb(204, 204, 204)" stroke-width="1px"></line><line x1="233.88199996948242" y1="0" x2="233.88199996948242" y2="5" style="visibility: inherit;" fill="rgb(0, 0, 0)" stroke="rgb(204, 204, 204)" stroke-width="1px"></line><line x1="350.82299995422363" y1="0" x2="350.82299995422363" y2="5" style="visibility: inherit;" fill="rgb(0, 0, 0)" stroke="rgb(204, 204, 204)" stroke-width="1px"></line><line x1="467.76399993896484" y1="0" x2="467.76399993896484" y2="5" style="visibility: inherit;" fill="rgb(0, 0, 0)" stroke="rgb(204, 204, 204)" stroke-width="1px"></line><line x1="584.704999923706" y1="0" x2="584.704999923706" y2="5" style="visibility: inherit;" fill="rgb(0, 0, 0)" stroke="rgb(204, 204, 204)" stroke-width="1px"></line><line x1="701.6459999084473" y1="0" x2="701.6459999084473" y2="5" style="visibility: inherit;" fill="rgb(0, 0, 0)" stroke="rgb(204, 204, 204)" stroke-width="1px"></line><line x1="818.5869998931885" y1="0" x2="818.5869998931885" y2="5" style="visibility: inherit;" fill="rgb(0, 0, 0)" stroke="rgb(204, 204, 204)" stroke-width="1px"></line><line x1="935.5279998779297" y1="0" x2="935.5279998779297" y2="5" style="visibility: inherit;" fill="rgb(0, 0, 0)" stroke="rgb(204, 204, 204)" stroke-width="1px"></line><line x1="1052.468999862671" y1="0" x2="1052.468999862671" y2="5" style="visibility: inherit;" fill="rgb(0, 0, 0)" stroke="rgb(204, 204, 204)" stroke-width="1px"></line><line x1="1169.409999847412" y1="0" x2="1169.409999847412" y2="5" style="visibility: inherit;" fill="rgb(0, 0, 0)" stroke="rgb(204, 204, 204)" stroke-width="1px"></line><line x1="1286.3509998321533" y1="0" x2="1286.3509998321533" y2="5" style="visibility: inherit;" fill="rgb(0, 0, 0)" stroke="rgb(204, 204, 204)" stroke-width="1px"></line><line x1="1403.2919998168945" y1="0" x2="1403.2919998168945" y2="5" style="visibility: inherit;" fill="rgb(0, 0, 0)" stroke="rgb(204, 204, 204)" stroke-width="1px"></line></g><g transform="translate(0, 8)"><text style="text-anchor: middle; visibility: hidden; font-family: &quot;Helvetica Neue&quot;, sans-serif; font-size: 12px; font-weight: 200;" x="0" y="0" dx="0em" dy="0.95em" fill="rgb(50, 49, 63)" stroke="none" stroke-width="1px">-5</text><text style="text-anchor: middle; visibility: inherit; font-family: &quot;Helvetica Neue&quot;, sans-serif; font-size: 12px; font-weight: 200;" x="116.94099998474121" y="0" dx="0em" dy="0.95em" fill="rgb(50, 49, 63)" stroke="none" stroke-width="1px">0</text><text style="text-anchor: middle; visibility: inherit; font-family: &quot;Helvetica Neue&quot;, sans-serif; font-size: 12px; font-weight: 200;" x="233.88199996948242" y="0" dx="0em" dy="0.95em" fill="rgb(50, 49, 63)" stroke="none" stroke-width="1px">5</text><text style="text-anchor: middle; visibility: inherit; font-family: &quot;Helvetica Neue&quot;, sans-serif; font-size: 12px; font-weight: 200;" x="350.82299995422363" y="0" dx="0em" dy="0.95em" fill="rgb(50, 49, 63)" stroke="none" stroke-width="1px">10</text><text style="text-anchor: middle; visibility: inherit; font-family: &quot;Helvetica Neue&quot;, sans-serif; font-size: 12px; font-weight: 200;" x="467.76399993896484" y="0" dx="0em" dy="0.95em" fill="rgb(50, 49, 63)" stroke="none" stroke-width="1px">15</text><text style="text-anchor: middle; visibility: inherit; font-family: &quot;Helvetica Neue&quot;, sans-serif; font-size: 12px; font-weight: 200;" x="584.704999923706" y="0" dx="0em" dy="0.95em" fill="rgb(50, 49, 63)" stroke="none" stroke-width="1px">20</text><text style="text-anchor: middle; visibility: inherit; font-family: &quot;Helvetica Neue&quot;, sans-serif; font-size: 12px; font-weight: 200;" x="701.6459999084473" y="0" dx="0em" dy="0.95em" fill="rgb(50, 49, 63)" stroke="none" stroke-width="1px">25</text><text style="text-anchor: middle; visibility: inherit; font-family: &quot;Helvetica Neue&quot;, sans-serif; font-size: 12px; font-weight: 200;" x="818.5869998931885" y="0" dx="0em" dy="0.95em" fill="rgb(50, 49, 63)" stroke="none" stroke-width="1px">30</text><text style="text-anchor: middle; visibility: inherit; font-family: &quot;Helvetica Neue&quot;, sans-serif; font-size: 12px; font-weight: 200;" x="935.5279998779297" y="0" dx="0em" dy="0.95em" fill="rgb(50, 49, 63)" stroke="none" stroke-width="1px">35</text><text style="text-anchor: middle; visibility: inherit; font-family: &quot;Helvetica Neue&quot;, sans-serif; font-size: 12px; font-weight: 200;" x="1052.468999862671" y="0" dx="0em" dy="0.95em" fill="rgb(50, 49, 63)" stroke="none" stroke-width="1px">40</text><text style="text-anchor: middle; visibility: inherit; font-family: &quot;Helvetica Neue&quot;, sans-serif; font-size: 12px; font-weight: 200;" x="1169.409999847412" y="0" dx="0em" dy="0.95em" fill="rgb(50, 49, 63)" stroke="none" stroke-width="1px">45</text><text style="text-anchor: middle; visibility: inherit; font-family: &quot;Helvetica Neue&quot;, sans-serif; font-size: 12px; font-weight: 200;" x="1286.3509998321533" y="0" dx="0em" dy="0.95em" fill="rgb(50, 49, 63)" stroke="none" stroke-width="1px">50</text><text style="text-anchor: middle; visibility: hidden; font-family: &quot;Helvetica Neue&quot;, sans-serif; font-size: 12px; font-weight: 200;" x="1403.2919998168945" y="0" dx="0em" dy="0.95em" fill="rgb(50, 49, 63)" stroke="none" stroke-width="1px">55</text></g><line x1="0" y1="0" x2="1403.2919998168945" y2="0" fill="rgb(0, 0, 0)" stroke="rgb(204, 204, 204)" stroke-width="1px"></line></g></g></g></g></svg>