<svg viewBox="0 0 1434 400" xmlns="http://www.w3.org/2000/svg"><g><g><g><g><g><line x1="72.1240005493164" y1="377.95999908447266" x2="67.1240005493164" y2="377.95999908447266" style="visibility: inherit;" fill="rgb(0, 0, 0)" stroke="rgb(204, 204, 204)" stroke-width="1px"></line><line x1="72.1240005493164" y1="346.4633324940999" x2="67.1240005493164" y2="346.4633324940999" style="visibility: inherit;" fill="rgb(0, 0, 0)" stroke="rgb(204, 204, 204)" stroke-width="1px"></line><line x1="72.1240005493164" y1="314.96666590372723" x2="67.1240005493164" y2="314.96666590372723" style="visibility: inherit;" fill="rgb(0, 0, 0)" stroke="rgb(204, 204, 204)" stroke-width="1px"></line><line x1="72.1240005493164" y1="283.4699993133545" x2="67.1240005493164" y2="283.4699993133545" style="visibility: inherit;" fill="rgb(0, 0, 0)" stroke="rgb(204, 204, 204)" stroke-width="1px"></line><line x1="72.1240005493164" y1="251.97333272298178" x2="67.1240005493164" y2="251.97333272298178" style="visibility: inherit;" fill="rgb(0, 0, 0)" stroke="rgb(204, 204, 204)" stroke-width="1px"></line><line x1="72.1240005493164" y1="220.47666613260904" x2="67.1240005493164" y2="220.47666613260904" style="visibility: inherit;" fill="rgb(0, 0, 0)" stroke="rgb(204, 204, 204)" stroke-width="1px"></line><line x1="72.1240005493164" y1="188.97999954223633" x2="67.1240005493164" y2="188.97999954223633" style="visibility: inherit;" fill="rgb(0, 0, 0)" stroke="rgb(204, 204, 204)" stroke-width="1px"></line><line x1="72.1240005493164" y1="157.4833329518636" x2="67.1240005493164" y2="157.4833329518636" style="visibility: inherit;" fill="rgb(0, 0, 0)" stroke="rgb(204, 204, 204)" stroke-width="1px"></line><line x1="72.1240005493164" y1="125.9866663614909" x2="67.1240005493164" y2="125.9866663614909" style="visibility: inherit;" fill="rgb(0, 0, 0)" stroke="rgb(204, 204, 204)" stroke-width="1px"></line><line x1="72.1240005493164" y1="94.48999977111816" x2="67.1240005493164" y2="94.48999977111816" style="visibility: inherit;" fill="rgb(0, 0, 0)" stroke="rgb(204, 204, 204)" stroke-width="1px"></line><line x1="72.1240005493164" y1="62.993333180745424" x2="67.1240005493164" y2="62.993333180745424" style="visibility: inherit;" fill="rgb(0, 0, 0)" stroke="rgb(204, 204, 204)" stroke-width="1px"></line><line x1="72.1240005493164" y1="31.49666659037274" x2="67.1240005493164" y2="31.49666659037274" style="visibility: inherit;" fill="rgb(0, 0, 0)" stroke="rgb(204, 204, 204)" stroke-width="1px"></line><line x1="72.1240005493164" y1="0" x2="67.1240005493164" y2="0" style="visibility: inherit;" fill="rgb(0, 0, 0)" stroke="rgb(204, 204, 204)" stroke-width="1px"></line></g><g transform="translate(62.124000549316406, 0)"><text style="text-anchor: end; visibility: hidden; font-family: &quot;Helvetica Neue&quot;, sans-serif; font-size: 12px; font-weight: 200;" x="0" y="377.95999908447266" dx="0em" dy="0.3em" fill="rgb(50, 49, 63)" stroke="none" stroke-width="1px">-100</text><text style="text-anchor: end; visibility: inherit; font-family: &quot;Helvetica Neue&quot;, sans-serif; font-size: 12px; font-weight: 200;" x="0" y="346.4633324940999" dx="0em" dy="0.3em" fill="rgb(50, 49, 63)" stroke="none" stroke-width="1px">0</text><text style="text-anchor: end; visibility: inherit; font-family: &quot;Helvetica Neue&quot;, sans-serif; font-size: 12px; font-weight: 200;" x="0" y="314.96666590372723" dx="0em" dy="0.3em" fill="rgb(50, 49, 63)" stroke="none" stroke-width="1px">100</text><text style="text-anchor: end; visibility: inherit; font-family: &quot;Helvetica Neue&quot;, sans-serif; font-size: 12px; font-weight: 200;" x="0" y="283.4699993133545" dx="0em" dy="0.3em" fill="rgb(50, 49, 63)" stroke="none" stroke-width="1px">200</text><text style="text-anchor: end; visibility: inherit; font-family: &quot;Helvetica Neue&quot;, sans-serif; font-size: 12px; font-weight: 200;" x="0" y="251.97333272298178" dx="0em" dy="0.3em" fill="rgb(50, 49, 63)" stroke="none" stroke-width="1px">300</text><text style="text-anchor: end; visibility: inherit; font-family: &quot;Helvetica Neue&quot;, sans-serif; font-size: 12px; font-weight: 200;" x="0" y="220.47666613260904" dx="0em" dy="0.3em" fill="rgb(50, 49, 63)" stroke="none" stroke-width="1px">400</text><text style="text-anchor: end; visibility: inherit; font-family: &quot;Helvetica Neue&quot;, sans-serif; font-size: 12px; font-weight: 200;" x="0" y="188.97999954223633" dx="0em" dy="0.3em" fill="rgb(50, 49, 63)" stroke="none" stroke-width="1px">500</text><text style="text-anchor: end; visibility: inherit; font-family: &quot;Helvetica Neue&quot;, sans-serif; font-size: 12px; font-weight: 200;" x="0" y="157.4833329518636" dx="0em" dy="0.3em" fill="rgb(50, 49, 63)" stroke="none" stroke-width="1px">600</text><text style="text-anchor: end; visibility: inherit; font-family: &quot;Helvetica Neue&quot;, sans-serif; font-size: 12px; font-weight: 200;" x="0" y="125.9866663614909" dx="0em" dy="0.3em" fill="rgb(50, 49, 63)" stroke="none" stroke-width="1px">700</text><text style="text-anchor: end; visibility: inherit; font-family: &quot;Helvetica Neue&quot;, sans-serif; font-size: 12px; font-weight: 200;" x="0" y="94.48999977111816" dx="0em" dy="0.3em" fill="rgb(50, 49, 63)" stroke="none" stroke-width="1px">800</text><text style="text-anchor: end; visibility: inherit; font-family: &quot;Helvetica Neue&quot;, sans-serif; font-size: 12px; font-weight: 200;" x="0" y="62.993333180745424" dx="0em" dy="0.3em" fill="rgb(50, 49, 63)" stroke="none" stroke-width="1px">900</text><text style="text-anchor: end; visibility: inherit; font-family: &quot;Helvetica Neue&quot;, sans-serif; font-size: 12px; font-weight: 200;" x="0" y="31.49666659037274" dx="0em" dy="0.3em" fill="rgb(50, 49, 63)" stroke="none" stroke-width="1px">1e+3</text><text style="text-anchor: end; visibility: hidden; font-family: &quot;Helvetica Neue&quot;, sans-serif; font-size: 12px; font-weight: 200;" x="0" y="0" dx="0em" dy="0.3em" fill="rgb(50, 49, 63)" stroke="none" stroke-width="1px">1.1e+3</text></g><line x1="72.1240005493164" y1="0" x2="72.1240005493164" y2="377.95999908447266" fill="rgb(0, 0, 0)" stroke="rgb(204, 204, 204)" stroke-width="1px"></line></g></g><g transform="translate(72, 0)" clip-path="url(#clip_0)"><clipPath id="clip_0"><rect width="1361" height="377"></rect></clipPath><g><g><g><line x1="0" y1="0" x2="0" y2="377.95999908447266" fill="rgb(0, 0, 0)" stroke="rgb(60, 60, 60)" stroke-width="1px" opacity="0.25"></line><line x1="113.48966662089029" y1="0" x2="113.48966662089029" y2="377.95999908447266" fill="rgb(0, 0, 0)" stroke="rgb(60, 60, 60)" stroke-width="1px" opacity="0.25"></line><line x1="226.97933324178058" y1="0" x2="226.97933324178058" y2="377.95999908447266" fill="rgb(0, 0, 0)" stroke="rgb(60, 60, 60)" stroke-width="1px" opacity="0.25"></line><line x1="340.4689998626709" y1="0" x2="340.4689998626709" y2="377.95999908447266" fill="rgb(0, 0, 0)" stroke="rgb(60, 60, 60)" stroke-width="1px" opacity="0.25"></line><line x1="453.95866648356116" y1="0" x2="453.95866648356116" y2="377.95999908447266" fill="rgb(0, 0, 0)" stroke="rgb(60, 60, 60)" stroke-width="1px" opacity="0.25"></line><line x1="567.4483331044515" y1="0" x2="567.4483331044515" y2="377.95999908447266" fill="rgb(0, 0, 0)" stroke="rgb(60, 60, 60)" stroke-width="1px" opacity="0.25"></line><line x1="680.9379997253418" y1="0" x2="680.9379997253418" y2="377.95999908447266" fill="rgb(0, 0, 0)" stroke="rgb(60, 60, 60)" stroke-width="1px" opacity="0.25"></line><line x1="794.4276663462322" y1="0" x2="794.4276663462322" y2="377.95999908447266" fill="rgb(0, 0, 0)" stroke="rgb(60, 60, 60)" stroke-width="1px" opacity="0.25"></line><line x1="907.9173329671223" y1="0" x2="907.9173329671223" y2="377.95999908447266" fill="rgb(0, 0, 0)" stroke="rgb(60, 60, 60)" stroke-width="1px" opacity="0.25"></line><line x1="1021.4069995880127" y1="0" x2="1021.4069995880127" y2="377.95999908447266" fill="rgb(0, 0, 0)" stroke="rgb(60, 60, 60)" stroke-width="1px" opacity="0.25"></line><line x1="1134.896666208903" y1="0" x2="1134.896666208903" y2="377.95999908447266" fill="rgb(0, 0, 0)" stroke="rgb(60, 60, 60)" stroke-width="1px" opacity="0.25"></line><line x1="1248.3863328297932" y1="0" x2="1248.3863328297932" y2="377.95999908447266" fill="rgb(0, 0, 0)" stroke="rgb(60, 60, 60)" stroke-width="1px" opacity="0.25"></line><line x1="1361.8759994506836" y1="0" x2="1361.8759994506836" y2="377.95999908447266" fill="rgb(0, 0, 0)" stroke="rgb(60, 60, 60)" stroke-width="1px" opacity="0.25"></line></g><g><line x1="0" y1="377.95999908447266" x2="1361.8759994506836" y2="377.95999908447266" fill="rgb(0, 0, 0)" stroke="rgb(60, 60, 60)" stroke-width="1px" opacity="0.25"></line><line x1="0" y1="346.4633324940999" x2="1361.8759994506836" y2="346.4633324940999" fill="rgb(0, 0, 0)" stroke="rgb(60, 60, 60)" stroke-width="1px" opacity="0.25"></line><line x1="0" y1="314.96666590372723" x2="1361.8759994506836" y2="314.96666590372723" fill="rgb(0, 0, 0)" stroke="rgb(60, 60, 60)" stroke-width="1px" opacity="0.25"></line><line x1="0" y1="283.4699993133545" x2="1361.8759994506836" y2="283.4699993133545" fill="rgb(0, 0, 0)" stroke="rgb(60, 60, 60)" stroke-width="1px" opacity="0.25"></line><line x1="0" y1="251.97333272298178" x2="1361.8759994506836" y2="251.97333272298178" fill="rgb(0, 0, 0)" stroke="rgb(60, 60, 60)" stroke-width="1px" opacity="0.25"></line><line x1="0" y1="220.47666613260904" x2="1361.8759994506836" y2="220.47666613260904" fill="rgb(0, 0, 0)" stroke="rgb(60, 60, 60)" stroke-width="1px" opacity="0.25"></line><line x1="0" y1="188.97999954223633" x2="1361.8759994506836" y2="188.97999954223633" fill="rgb(0, 0, 0)" stroke="rgb(60, 60, 60)" stroke-width="1px" opacity="0.25"></line><line x1="0" y1="157.4833329518636" x2="1361.8759994506836" y2="157.4833329518636" fill="rgb(0, 0, 0)" stroke="rgb(60, 60, 60)" stroke-width="1px" opacity="0.25"></line><line x1="0" y1="125.9866663614909" x2="1361.8759994506836" y2="125.9866663614909" fill="rgb(0, 0, 0)" stroke="rgb(60, 60, 60)" stroke-width="1px" opacity="0.25"></line><line x1="0" y1="94.48999977111816" x2="1361.8759994506836" y2="94.48999977111816" fill="rgb(0, 0, 0)" stroke="rgb(60, 60, 60)" stroke-width="1px" opacity="0.25"></line><line x1="0" y1="62.993333180745424" x2="1361.8759994506836" y2="62.993333180745424" fill="rgb(0, 0, 0)" stroke="rgb(60, 60, 60)" stroke-width="1px" opacity="0.25"></line><line x1="0" y1="31.49666659037274" x2="1361.8759994506836" y2="31.49666659037274" fill="rgb(0, 0, 0)" stroke="rgb(60, 60, 60)" stroke-width="1px" opacity="0.25"></line><line x1="0" y1="0" x2="1361.8759994506836" y2="0" fill="rgb(0, 0, 0)" stroke="rgb(60, 60, 60)" stroke-width="1px" opacity="0.25"></line></g></g></g><g><g><line x1="0" y1="346.4633324940999" x2="1361.8759994506836" y2="346.4633324940999" fill="rgb(0, 0, 0)" stroke="rgb(153, 153, 153)" stroke-width="1.5px"></line></g></g><g><g><line x1="113.48966662089029" y1="0" x2="113.48966662089029" y2="377.95999908447266" fill="rgb(0, 0, 0)" stroke="rgb(153, 153, 153)" stroke-width="1.5px"></line></g></g><g><g><g><g><g><path style="fill: none;" stroke="rgb(255, 112, 67)" stroke-width="2px" d="M113.48966662089029,176.41059189446037L136.18759994506837,204.81037382970646L158.88553326924642,220.53315067675138L181.58346659342448,231.44114355586723L204.28139991760253,239.80456039872806L226.97933324178058,246.57885472523438L249.67726656595863,252.32407978627384L272.37519989013674,257.2137262124254L295.0731332143148,261.38218553585756L317.77106653849285,265.13226280034394L340.4689998626709,268.61670701905666L363.16693318684895,271.55639714514064L385.864866511027,274.2898206305613L408.56279983520506,276.7763986732027L431.2607331593831,279.06883464239047L453.95866648356116,281.23893492229445L476.6565998077392,283.00266585348595L499.35453313191726,284.82103402955585L522.0524664560954,286.36451743326944L544.7503997802735,287.7926148880695L567.4483331044515,289.01134811908133L590.1462664286296,290.31751763595554L612.8441997528076,291.48272203523663L635.5421330769857,292.5724981138931L658.2400664011637,293.7320271884791L680.9379997253418,294.6272249561123L703.63593304952,295.55879919062835L726.3338663736979,296.359579766242L749.0317996978761,297.21728318867093L771.729733022054,297.9950341409841L794.4276663462322,298.5910873977049L817.1255996704101,299.34855628918416L839.8235329945883,300.04205008208254L862.5214663187662,300.72484336897264L885.2193996429444,301.31651716005035L907.9173329671223,301.8602553619685L930.6152662913005,302.4249936395185L953.3131996154784,302.8954328454367L976.0111329396566,303.41048795433153L998.7090662638345,303.9224115338505L1021.4069995880127,304.4618286061626L1044.1049329121909,304.9286652639935L1066.8028662363688,305.3813568419202L1089.500799560547,305.71418689811475L1112.198732884725,306.2266629408147L1134.896666208903,306.6117531309351L1157.594599533081,306.84828513509524L1180.2925328572592,307.2801557218793L1202.9904661814371,307.84705783262183L1225.6883995056153,308.25695064338873" fill="none"></path></g><g><path style="fill: none;" stroke="rgb(187, 187, 187)" stroke-width="2px" d="M113.48966662089029,212.89137912909152L136.18759994506837,224.1011269218388L158.88553326924642,232.75521151009596L181.58346659342448,240.22381835197754L204.28139991760253,246.6857056753176L226.97933324178058,252.2347166087382L249.67726656595863,256.72475247973784L272.37519989013674,260.8212337221877L295.0731332143148,263.9484368852916L317.77106653849285,266.9430336513762L340.4689998626709,269.41342919106165L363.16693318684895,271.1810981915544L385.864866511027,273.8478646694133L408.56279983520506,275.59314805798886L431.2607331593831,277.0562675060654L453.95866648356116,279.03653355908693L476.6565998077392,280.45054086215646L499.35453313191726,281.6047890957297L522.0524664560954,282.3716011310916L544.7503997802735,283.3303540355689L567.4483331044515,284.5029661792804L590.1462664286296,285.9732990633055L612.8441997528076,286.5340444692649L635.5421330769857,286.94533995418686L658.2400664011637,288.5203548123643L680.9379997253418,289.27753398390524L703.63593304952,290.2324909152528L726.3338663736979,290.95607335738686L749.0317996978761,291.2060523256083L771.729733022054,291.9978055176933L794.4276663462322,292.559223252985L817.1255996704101,293.2146777260653L839.8235329945883,292.7206551713084L862.5214663187662,294.06283924719L885.2193996429444,294.2016714254361L907.9173329671223,294.3049675771241L930.6152662913005,294.6633280560469L953.3131996154784,295.34378333529855L976.0111329396566,295.65031903828026L998.7090662638345,295.8945328153203L1021.4069995880127,297.0432410284421L1044.1049329121909,297.6625750370786L1066.8028662363688,298.1289595696752L1089.500799560547,298.80279851661373L1112.198732884725,299.0774453491547L1134.896666208903,299.3807772577416L1157.594599533081,299.5261007800036L1180.2925328572592,300.085662228853L1202.9904661814371,300.676084942878L1225.6883995056153,300.8686048031643" fill="none"></path></g><g><path style="fill: none;" stroke="rgb(0, 153, 136)" stroke-width="2px" d="M113.48966662089029,57.38004816626625L136.18759994506837,98.79338755874915L158.88553326924642,122.70441973974465L181.58346659342448,139.115314257L204.28139991760253,151.70071776664145L226.97933324178058,162.24377499273288L249.67726656595863,171.44745169036213L272.37519989013674,179.51996149904696L295.0731332143148,187.0786135226123L317.77106653849285,194.08985820176437L340.4689998626709,200.4450814689747L363.16693318684895,206.48282719937094L385.864866511027,211.96847292904417L408.56279983520506,216.94715543925057L431.2607331593831,221.49165443539266L453.95866648356116,225.86776622598745L476.6565998077392,229.75979480693923L499.35453313191726,233.56971607839867L522.0524664560954,237.1905928783214L544.7503997802735,240.22263902039577L567.4483331044515,243.50609222115034L590.1462664286296,246.5029721024836L612.8441997528076,249.04926878412928L635.5421330769857,251.24311929553977L658.2400664011637,253.34759543728632L680.9379997253418,255.5864949167301L703.63593304952,257.57118522792393L726.3338663736979,259.3730653491313L749.0317996978761,261.1865289298196L771.729733022054,262.67284040995196L794.4276663462322,264.3900786244691L817.1255996704101,265.8746297511634L839.8235329945883,267.34532081995116L862.5214663187662,269.0271921199857L885.2193996429444,270.4273741356026L907.9173329671223,271.45827423561457L930.6152662913005,272.8077584191737L953.3131996154784,274.1423363377685L976.0111329396566,275.55698933705855L998.7090662638345,276.40349924110404L1021.4069995880127,277.49251906634635L1044.1049329121909,278.42756698699736L1066.8028662363688,279.20297453991213L1089.500799560547,280.25834518448903L1112.198732884725,281.32756879081046L1134.896666208903,282.0767729559057L1157.594599533081,283.1040739671455L1180.2925328572592,283.98080766548446L1202.9904661814371,284.3577654568558L1225.6883995056153,285.09497085574276" fill="none"></path></g><g><path style="fill: none;" stroke="rgb(238, 51, 119)" stroke-width="2px" d="M113.48966662089029,108.18630140013255L136.18759994506837,129.96865223593966L158.88553326924642,144.62508214645464L181.58346659342448,156.02847240127974L204.28139991760253,164.82730794954284L226.97933324178058,173.08562598499338L249.67726656595863,179.3018740976179L272.37519989013674,184.5753540145093L295.0731332143148,190.99521322250575L317.77106653849285,196.01872678687627L340.4689998626709,200.27809445834816L363.16693318684895,204.48268138274742L385.864866511027,208.16316970346332L408.56279983520506,212.21154502560222L431.2607331593831,215.1626942376878L453.95866648356116,217.82528103755075L476.6565998077392,219.8546357134481L499.35453313191726,223.30958424116835L522.0524664560954,225.9760109892208L544.7503997802735,227.1603163596187L567.4483331044515,228.9064051719183L590.1462664286296,230.95391247700093L612.8441997528076,232.32853038130816L635.5421330769857,234.5249628195481L658.2400664011637,237.57055802989436L680.9379997253418,236.51705163273175L703.63593304952,238.57277618080778L726.3338663736979,240.8260877866051L749.0317996978761,241.97766702192447L771.729733022054,243.26299481580895L794.4276663462322,244.92781706792792L817.1255996704101,245.55261812579235L839.8235329945883,244.76673577893405L862.5214663187662,246.54249285148558L885.2193996429444,247.52034311218648L907.9173329671223,247.99950244441848L930.6152662913005,250.507505359342L953.3131996154784,251.09571257325354L976.0111329396566,250.20481461732263L998.7090662638345,250.34285963214603L1021.4069995880127,251.49319371967744L1044.1049329121909,252.51514726910636L1066.8028662363688,253.62048557252913L1089.500799560547,253.7074594996849L1112.198732884725,253.85399544266403L1134.896666208903,254.01136961895494L1157.594599533081,255.80789059690093L1180.2925328572592,256.37892677452294L1202.9904661814371,255.03015979904558L1225.6883995056153,257.051920125735" fill="none"></path></g><g><path style="fill: none;" stroke="rgb(51, 187, 238)" stroke-width="2px" d="M113.48966662089029,275.4041257361923L136.18759994506837,296.423457916958L158.88553326924642,308.41473081318804L181.58346659342448,316.4035838788802L204.28139991760253,322.04327462531353L226.97933324178058,326.2355957775825L249.67726656595863,329.3553996741569L272.37519989013674,331.8234109359037L295.0731332143148,333.76316663698344L317.77106653849285,335.2641052927064L340.4689998626709,336.47453475193595L363.16693318684895,337.41140887320904L385.864866511027,338.20924256272554L408.56279983520506,338.86306484517297L431.2607331593831,339.4126531954523L453.95866648356116,339.91338108890415L476.6565998077392,340.31810733580824L499.35453313191726,340.68599387485284L522.0524664560954,341.02058722948783L544.7503997802735,341.2827885709022L567.4483331044515,341.54917995053336L590.1462664286296,341.7852620324847L612.8441997528076,341.95238002499025L635.5421330769857,342.0685847376642L658.2400664011637,342.2735214422382L680.9379997253418,342.35445145991537L703.63593304952,342.5492547315121L726.3338663736979,342.7296558366901L749.0317996978761,342.84423027169856L771.729733022054,342.92447809296436L794.4276663462322,343.03156564525244L817.1255996704101,343.1090924881311L839.8235329945883,343.22757174328495L862.5214663187662,343.3224979436782L885.2193996429444,343.3874539867189L907.9173329671223,343.4380701709721L930.6152662913005,343.5682609480789L953.3131996154784,343.5799525117234L976.0111329396566,343.6685886373816L998.7090662638345,343.6476192265974L1021.4069995880127,343.7125239168926L1044.1049329121909,343.7162846958747L1066.8028662363688,343.85188997602893L1089.500799560547,343.9478423278773L1112.198732884725,343.9211456416877L1134.896666208903,344.04097652907046L1157.594599533081,344.0003756809844L1180.2925328572592,343.93891385692785L1202.9904661814371,344.0577360444926L1225.6883995056153,344.11473526226075" fill="none"></path></g><g><path style="fill: none;" stroke="rgb(204, 51, 17)" stroke-width="2px" d="M113.48966662089029,301.5712301075208L136.18759994506837,310.78729630087093L158.88553326924642,318.0287938874633L181.58346659342448,322.9460911345611L204.28139991760253,326.6314754905841L226.97933324178058,329.6374856403027L249.67726656595863,331.93770353261374L272.37519989013674,333.90997920003065L295.0731332143148,334.9978299666735L317.77106653849285,335.9969468913532L340.4689998626709,337.19569807945015L363.16693318684895,337.4298204196698L385.864866511027,338.373384231259L408.56279983520506,339.23517045435057L431.2607331593831,339.5990762561764L453.95866648356116,340.24031947998236L476.6565998077392,340.629810998537L499.35453313191726,340.7864710626053L522.0524664560954,341.26419141186307L544.7503997802735,341.5819302087684L567.4483331044515,341.7741553140396L590.1462664286296,342.01972349035555L612.8441997528076,342.18284178418855L635.5421330769857,342.05263348450137L658.2400664011637,342.1913266458558L680.9379997253418,342.22986410410863L703.63593304952,342.41057299999056L726.3338663736979,342.61838272045105L749.0317996978761,342.7929471827519L771.729733022054,342.9028034997592L794.4276663462322,343.04905418639413L817.1255996704101,343.035544952711L839.8235329945883,343.10155457775795L862.5214663187662,342.9726931176259L885.2193996429444,343.14085077409277L907.9173329671223,343.1154213165622L930.6152662913005,343.149062750863L953.3131996154784,343.29441677584964L976.0111329396566,343.4056656080966L998.7090662638345,343.4536541669501L1021.4069995880127,343.56652195766867L1044.1049329121909,343.5050852005756L1066.8028662363688,343.6005073678328L1089.500799560547,343.72742149907003L1112.198732884725,343.7743695025929L1134.896666208903,343.7787177971506L1157.594599533081,343.5402212713778L1180.2925328572592,343.7544223784554L1202.9904661814371,343.77401572906126L1225.6883995056153,343.8211790562845" fill="none"></path></g></g></g></g><g opacity="0.2"><g><g><g><path style="fill: none;" stroke="rgb(255, 112, 67)" stroke-width="2px" d="M113.48966662089029,176.41059189446037L136.18759994506837,221.85024299085413L158.88553326924642,235.62701644991446L181.58346659342448,244.2689431817075L204.28139991760253,250.72383742876718L226.97933324178058,255.95014252475016L249.67726656595863,260.53984354716124L272.37519989013674,264.34287764236L295.0731332143148,267.52985335638095L317.77106653849285,270.7006904891015L340.4689998626709,273.81176969451724L363.16693318684895,275.94993467041706L385.864866511027,278.3810307567524L408.56279983520506,280.5013942719206L431.2607331593831,282.50479392374507L453.95866648356116,284.49255481930044L476.6565998077392,285.64751589845264L499.35453313191726,287.54812461017775L522.0524664560954,288.6795074046785L544.7503997802735,289.93463053650555L567.4483331044515,290.83938112737223L590.1462664286296,292.27672893120257L612.8441997528076,293.23050562923L635.5421330769857,294.20714932244124L658.2400664011637,295.47131255892174L680.9379997253418,295.9700177899525L703.63593304952,296.95615815875925L726.3338663736979,297.5607494002757L749.0317996978761,298.50383753224827L771.729733022054,299.1616601396026L794.4276663462322,299.4851670851284L817.1255996704101,300.4847594756921L839.8235329945883,301.0822906886409L862.5214663187662,301.74903325040066L885.2193996429444,302.20402782123864L907.9173329671223,302.6758626508249L930.6152662913005,303.27210104710605L953.3131996154784,303.60109164994685L976.0111329396566,304.18307061480505L998.7090662638345,304.6902969014182L1021.4069995880127,305.27095421354926L1044.1049329121909,305.6289202501781L1066.8028662363688,306.06039420848356L1089.500799560547,306.2134319822624L1112.198732884725,306.9953770047315L1134.896666208903,307.1893884160556L1157.594599533081,307.20308314131336L1180.2925328572592,307.927961602031L1202.9904661814371,308.6974109987166L1225.6883995056153,308.8717898595308" fill="none"></path></g><g><path style="fill: none;" stroke="rgb(187, 187, 187)" stroke-width="2px" d="M113.48966662089029,212.89137912909152L136.18759994506837,230.82697559748718L158.88553326924642,241.0631327148228L181.58346659342448,249.00689999803026L204.28139991760253,255.12234576467037L226.97933324178058,259.91099637359497L249.67726656595863,263.14557561584127L272.37519989013674,266.7939426998994L295.0731332143148,268.5604541229275L317.77106653849285,271.3896608467262L340.4689998626709,273.0966161948661L363.16693318684895,273.82298211565296L385.864866511027,277.83930693095687L408.56279983520506,278.2076539490059L431.2607331593831,279.24922683619235L453.95866648356116,282.0055360015739L476.6565998077392,282.57095345625896L499.35453313191726,283.3358683825881L522.0524664560954,283.5217023680388L544.7503997802735,284.7683957584719L567.4483331044515,286.26182008601086L590.1462664286296,288.1787500074132L612.8441997528076,287.37515150726426L635.5421330769857,287.5622783093826L658.2400664011637,290.8828659050989L680.9379997253418,290.41329951219336L703.63593304952,291.6649238688011L726.3338663736979,292.04144590971845L749.0317996978761,291.58102054767454L771.729733022054,293.18543486823074L794.4276663462322,293.4013496697504L817.1255996704101,294.1978593052722L839.8235329945883,291.97962139814945L862.5214663187662,296.07611526487455L885.2193996429444,294.4099196868386L907.9173329671223,294.4599118019926L930.6152662913005,295.2008687688867L953.3131996154784,296.36446624785935L976.0111329396566,296.1101225910454L998.7090662638345,296.26085348006427L1021.4069995880127,298.7663033458215L1044.1049329121909,298.5915760492884L1066.8028662363688,298.8285363682334L1089.500799560547,299.8135569367296L1112.198732884725,299.4894155978948L1134.896666208903,299.8357751205747L1157.594599533081,299.74408606338307L1180.2925328572592,300.9250044020956L1202.9904661814371,301.5617190138956L1225.6883995056153,301.15738459359" fill="none"></path></g><g><path style="fill: none;" stroke="rgb(0, 153, 136)" stroke-width="2px" d="M113.48966662089029,57.38004816626625L136.18759994506837,123.64139119423888L158.88553326924642,145.6590106335003L181.58346659342448,158.41452620929223L204.28139991760253,168.13222058882937L226.97933324178058,176.82861863701874L249.67726656595863,184.6088566267991L272.37519989013674,191.28975829620362L295.0731332143148,198.22615706480204L317.77106653849285,204.50073943180539L340.4689998626709,209.92027496250094L363.16693318684895,215.50658864932737L385.864866511027,220.1790299384651L408.56279983520506,224.40542544722985L431.2607331593831,228.3030610416298L453.95866648356116,232.4288475387974L476.6565998077392,235.5961907023085L499.35453313191726,239.2836306469897L522.0524664560954,242.6213564740692L544.7503997802735,244.77043109248004L567.4483331044515,248.43109194990518L590.1462664286296,250.99819331087443L612.8441997528076,252.86866353441167L635.5421330769857,254.53386907440475L658.2400664011637,256.5042946921904L680.9379997253418,258.9448345880121L703.63593304952,260.5482156164362L726.3338663736979,262.0758827646319L749.0317996978761,263.9067226303957L771.729733022054,264.9023068086888L794.4276663462322,266.9659353767899L817.1255996704101,268.10145614582893L839.8235329945883,269.5513572475618L862.5214663187662,271.54999894956865L885.2193996429444,272.5276470988525L907.9173329671223,273.00462435904967L930.6152662913005,274.8319846736337L953.3131996154784,276.1442032032717L976.0111329396566,277.6789688281144L998.7090662638345,277.67326409434327L1021.4069995880127,279.1260488020262L1044.1049329121909,279.830138866849L1066.8028662363688,280.3660858687246L1089.500799560547,281.84140115089724L1112.198732884725,282.93140420001475L1134.896666208903,283.20057920343174L1157.594599533081,284.64502548390914L1180.2925328572592,285.2959082129437L1202.9904661814371,284.9232021439002L1225.6883995056153,286.20077895405825" fill="none"></path></g><g><path style="fill: none;" stroke="rgb(238, 51, 119)" stroke-width="2px" d="M113.48966662089029,108.18630140013255L136.18759994506837,143.03806273742387L158.88553326924642,158.69525486054906L181.58346659342448,169.43885934095402L204.28139991760253,176.3150676413552L226.97933324178058,184.50985282251418L249.67726656595863,188.1912083586408L272.37519989013674,192.2641383587441L295.0731332143148,200.463258560848L317.77106653849285,203.4780589696016L340.4689998626709,206.62851381426523L363.16693318684895,210.76668059297836L385.864866511027,213.67188475159054L408.56279983520506,218.27617682010884L431.2607331593831,219.58594909069924L453.95866648356116,221.8172833748451L476.6565998077392,222.89780897240678L499.35453313191726,228.4911298216918L522.0524664560954,229.975244908022L544.7503997802735,228.93666616501363L567.4483331044515,231.5254426307074L590.1462664286296,234.0251060605249L612.8441997528076,234.39043009833628L635.5421330769857,237.81958545807186L658.2400664011637,242.1389291986264L680.9379997253418,234.9367965297114L703.63593304952,241.65635774288617L726.3338663736979,244.20605173593697L749.0317996978761,243.70503481413624L771.729733022054,245.19098579625464L794.4276663462322,247.4250498940332L817.1255996704101,246.48981958827451L839.8235329945883,243.58791235246522L862.5214663187662,249.20612833311898L885.2193996429444,248.98711846121296L907.9173329671223,248.7182414304108L930.6152662913005,254.26950969292432L953.3131996154784,251.97802338866052L976.0111329396566,248.8684676883884L998.7090662638345,250.5499271539199L1021.4069995880127,253.21869484866795L1044.1049329121909,254.04807759202026L1066.8028662363688,255.27849302686536L1089.500799560547,253.83792039038087L1112.198732884725,254.07379935709469L1134.896666208903,254.2474308833668L1157.594599533081,258.50267206365186L1180.2925328572592,257.2354810409238L1202.9904661814371,253.00700933587507L1225.6883995056153,260.08456061572826" fill="none"></path></g><g><path style="fill: none;" stroke="rgb(51, 187, 238)" stroke-width="2px" d="M113.48966662089029,275.4041257361923L136.18759994506837,309.03505722541746L158.88553326924642,319.9263527935689L181.58346659342448,325.79847508413417L204.28139991760253,329.40645486385694L226.97933324178058,332.0350851667853L249.67726656595863,333.81676916312057L272.37519989013674,335.4217950484387L295.0731332143148,336.6239295179287L317.77106653849285,337.4928242710603L340.4689998626709,338.27920043467265L363.16693318684895,338.8116216275231L385.864866511027,339.4033880315767L408.56279983520506,339.8425173629283L431.2607331593831,340.23638970039633L453.95866648356116,340.66411977697663L476.6565998077392,340.9250254395806L499.35453313191726,341.23773027706727L522.0524664560954,341.5224262895104L544.7503997802735,341.6760666167826L567.4483331044515,341.9487524104438L590.1462664286296,342.13937738703027L612.8441997528076,342.20305371429527L635.5421330769857,342.2428904301196L658.2400664011637,342.5809250424968L680.9379997253418,342.4758461413015L703.63593304952,342.8414591404591L726.3338663736979,343.0002572174988L749.0317996978761,343.016091818672L771.729733022054,343.0448497805113L794.4276663462322,343.19219693817314L817.1255996704101,343.2253827370239L839.8235329945883,343.4052906118717L862.5214663187662,343.46488723746864L885.2193996429444,343.4848880484884L907.9173329671223,343.5139944460467L930.6152662913005,343.76354711172485L953.3131996154784,343.5974898570815L976.0111329396566,343.8015428253754L998.7090662638345,343.6161651104911L1021.4069995880127,343.80988095220533L1044.1049329121909,343.72192586434335L1066.8028662363688,344.0552978961623L1089.500799560547,344.0917708556083L1112.198732884725,343.8811006124103L1134.896666208903,344.220722860126L1157.594599533081,343.93947440885904L1180.2925328572592,343.8467211208465L1202.9904661814371,344.2359693258356L1225.6883995056153,344.2002340889118" fill="none"></path></g><g><path style="fill: none;" stroke="rgb(204, 51, 17)" stroke-width="2px" d="M113.48966662089029,301.5712301075208L136.18759994506837,316.316936016881L158.88553326924642,324.9806315705919L181.58346659342448,328.7288326971481L204.28139991760253,331.4431133058077L226.97933324178058,333.79587984101744L249.67726656595863,335.2270519221048L272.37519989013674,336.78557605697097L295.0731332143148,336.6021985433389L317.77106653849285,337.4805190834197L340.4689998626709,338.98295227654756L363.16693318684895,337.77972984656265L385.864866511027,339.7856490490859L408.56279983520506,340.5261614600628L431.2607331593831,340.14450720130554L453.95866648356116,341.2017320612884L476.6565998077392,341.21388345661165L499.35453313191726,341.0214213827345L522.0524664560954,341.98069915986287L544.7503997802735,342.0585093615418L567.4483331044515,342.0624824298648L590.1462664286296,342.388067674304L612.8441997528076,342.42751600445183L635.5421330769857,341.857322577412L658.2400664011637,342.3993654021158L680.9379997253418,342.2876701271432L703.63593304952,342.68163588142903L726.3338663736979,342.9300969821048L749.0317996978761,343.0547937154047L771.729733022054,343.0675879145543L794.4276663462322,343.2684301678482L817.1255996704101,343.0152811048742L839.8235329945883,343.2005690074481L862.5214663187662,342.7794009366579L885.2193996429444,343.3930872515662L907.9173329671223,343.0772771309221L930.6152662913005,343.1995249017937L953.3131996154784,343.51244781198034L976.0111329396566,343.5725388558475L998.7090662638345,343.52563700507L1021.4069995880127,343.7358236435201L1044.1049329121909,343.41293006500996L1066.8028662363688,343.7436406186497L1089.500799560547,343.9177926958709L1112.198732884725,343.8447915078649L1134.896666208903,343.78524023898655L1157.594599533081,343.1824764827409L1180.2925328572592,344.0757240390597L1202.9904661814371,343.8034057549694L1225.6883995056153,343.89192404711844" fill="none"></path></g></g></g></g></g></g><g transform="translate(72, 377)" clip-path="url(#clip_1)"><clipPath id="clip_1"><rect width="1361" height="22"></rect></clipPath><g><g><line x1="0" y1="0" x2="0" y2="5" style="visibility: inherit;" fill="rgb(0, 0, 0)" stroke="rgb(204, 204, 204)" stroke-width="1px"></line><line x1="113.48966662089029" y1="0" x2="113.48966662089029" y2="5" style="visibility: inherit;" fill="rgb(0, 0, 0)" stroke="rgb(204, 204, 204)" stroke-width="1px"></line><line x1="226.97933324178058" y1="0" x2="226.97933324178058" y2="5" style="visibility: inherit;" fill="rgb(0, 0, 0)" stroke="rgb(204, 204, 204)" stroke-width="1px"></line><line x1="340.4689998626709" y1="0" x2="340.4689998626709" y2="5" style="visibility: inherit;" fill="rgb(0, 0, 0)" stroke="rgb(204, 204, 204)" stroke-width="1px"></line><line x1="453.95866648356116" y1="0" x2="453.95866648356116" y2="5" style="visibility: inherit;" fill="rgb(0, 0, 0)" stroke="rgb(204, 204, 204)" stroke-width="1px"></line><line x1="567.4483331044515" y1="0" x2="567.4483331044515" y2="5" style="visibility: inherit;" fill="rgb(0, 0, 0)" stroke="rgb(204, 204, 204)" stroke-width="1px"></line><line x1="680.9379997253418" y1="0" x2="680.9379997253418" y2="5" style="visibility: inherit;" fill="rgb(0, 0, 0)" stroke="rgb(204, 204, 204)" stroke-width="1px"></line><line x1="794.4276663462322" y1="0" x2="794.4276663462322" y2="5" style="visibility: inherit;" fill="rgb(0, 0, 0)" stroke="rgb(204, 204, 204)" stroke-width="1px"></line><line x1="907.9173329671223" y1="0" x2="907.9173329671223" y2="5" style="visibility: inherit;" fill="rgb(0, 0, 0)" stroke="rgb(204, 204, 204)" stroke-width="1px"></line><line x1="1021.4069995880127" y1="0" x2="1021.4069995880127" y2="5" style="visibility: inherit;" fill="rgb(0, 0, 0)" stroke="rgb(204, 204, 204)" stroke-width="1px"></line><line x1="1134.896666208903" y1="0" x2="1134.896666208903" y2="5" style="visibility: inherit;" fill="rgb(0, 0, 0)" stroke="rgb(204, 204, 204)" stroke-width="1px"></line><line x1="1248.3863328297932" y1="0" x2="1248.3863328297932" y2="5" style="visibility: inherit;" fill="rgb(0, 0, 0)" stroke="rgb(204, 204, 204)" stroke-width="1px"></line><line x1="1361.8759994506836" y1="0" x2="1361.8759994506836" y2="5" style="visibility: inherit;" fill="rgb(0, 0, 0)" stroke="rgb(204, 204, 204)" stroke-width="1px"></line></g><g transform="translate(0, 8)"><text style="text-anchor: middle; visibility: hidden; font-family: &quot;Helvetica Neue&quot;, sans-serif; font-size: 12px; font-weight: 200;" x="0" y="0" dx="0em" dy="0.95em" fill="rgb(50, 49, 63)" stroke="none" stroke-width="1px">-5</text><text style="text-anchor: middle; visibility: inherit; font-family: &quot;Helvetica Neue&quot;, sans-serif; font-size: 12px; font-weight: 200;" x="113.48966662089029" y="0" dx="0em" dy="0.95em" fill="rgb(50, 49, 63)" stroke="none" stroke-width="1px">0</text><text style="text-anchor: middle; visibility: inherit; font-family: &quot;Helvetica Neue&quot;, sans-serif; font-size: 12px; font-weight: 200;" x="226.97933324178058" y="0" dx="0em" dy="0.95em" fill="rgb(50, 49, 63)" stroke="none" stroke-width="1px">5</text><text style="text-anchor: middle; visibility: inherit; font-family: &quot;Helvetica Neue&quot;, sans-serif; font-size: 12px; font-weight: 200;" x="340.4689998626709" y="0" dx="0em" dy="0.95em" fill="rgb(50, 49, 63)" stroke="none" stroke-width="1px">10</text><text style="text-anchor: middle; visibility: inherit; font-family: &quot;Helvetica Neue&quot;, sans-serif; font-size: 12px; font-weight: 200;" x="453.95866648356116" y="0" dx="0em" dy="0.95em" fill="rgb(50, 49, 63)" stroke="none" stroke-width="1px">15</text><text style="text-anchor: middle; visibility: inherit; font-family: &quot;Helvetica Neue&quot;, sans-serif; font-size: 12px; font-weight: 200;" x="567.4483331044515" y="0" dx="0em" dy="0.95em" fill="rgb(50, 49, 63)" stroke="none" stroke-width="1px">20</text><text style="text-anchor: middle; visibility: inherit; font-family: &quot;Helvetica Neue&quot;, sans-serif; font-size: 12px; font-weight: 200;" x="680.9379997253418" y="0" dx="0em" dy="0.95em" fill="rgb(50, 49, 63)" stroke="none" stroke-width="1px">25</text><text style="text-anchor: middle; visibility: inherit; font-family: &quot;Helvetica Neue&quot;, sans-serif; font-size: 12px; font-weight: 200;" x="794.4276663462322" y="0" dx="0em" dy="0.95em" fill="rgb(50, 49, 63)" stroke="none" stroke-width="1px">30</text><text style="text-anchor: middle; visibility: inherit; font-family: &quot;Helvetica Neue&quot;, sans-serif; font-size: 12px; font-weight: 200;" x="907.9173329671223" y="0" dx="0em" dy="0.95em" fill="rgb(50, 49, 63)" stroke="none" stroke-width="1px">35</text><text style="text-anchor: middle; visibility: inherit; font-family: &quot;Helvetica Neue&quot;, sans-serif; font-size: 12px; font-weight: 200;" x="1021.4069995880127" y="0" dx="0em" dy="0.95em" fill="rgb(50, 49, 63)" stroke="none" stroke-width="1px">40</text><text style="text-anchor: middle; visibility: inherit; font-family: &quot;Helvetica Neue&quot;, sans-serif; font-size: 12px; font-weight: 200;" x="1134.896666208903" y="0" dx="0em" dy="0.95em" fill="rgb(50, 49, 63)" stroke="none" stroke-width="1px">45</text><text style="text-anchor: middle; visibility: inherit; font-family: &quot;Helvetica Neue&quot;, sans-serif; font-size: 12px; font-weight: 200;" x="1248.3863328297932" y="0" dx="0em" dy="0.95em" fill="rgb(50, 49, 63)" stroke="none" stroke-width="1px">50</text><text style="text-anchor: middle; visibility: hidden; font-family: &quot;Helvetica Neue&quot;, sans-serif; font-size: 12px; font-weight: 200;" x="1361.8759994506836" y="0" dx="0em" dy="0.95em" fill="rgb(50, 49, 63)" stroke="none" stroke-width="1px">55</text></g><line x1="0" y1="0" x2="1361.8759994506836" y2="0" fill="rgb(0, 0, 0)" stroke="rgb(204, 204, 204)" stroke-width="1px"></line></g></g></g></g></svg>