<svg viewBox="0 0 1434 400" xmlns="http://www.w3.org/2000/svg"><g><g><g><g><g><line x1="61.77000045776367" y1="377.95999908447266" x2="56.77000045776367" y2="377.95999908447266" style="visibility: inherit;" fill="rgb(0, 0, 0)" stroke="rgb(204, 204, 204)" stroke-width="1px"></line><line x1="61.77000045776367" y1="343.59999916770244" x2="56.77000045776367" y2="343.59999916770244" style="visibility: inherit;" fill="rgb(0, 0, 0)" stroke="rgb(204, 204, 204)" stroke-width="1px"></line><line x1="61.77000045776367" y1="309.23999925093216" x2="56.77000045776367" y2="309.23999925093216" style="visibility: inherit;" fill="rgb(0, 0, 0)" stroke="rgb(204, 204, 204)" stroke-width="1px"></line><line x1="61.77000045776367" y1="274.87999933416194" x2="56.77000045776367" y2="274.87999933416194" style="visibility: inherit;" fill="rgb(0, 0, 0)" stroke="rgb(204, 204, 204)" stroke-width="1px"></line><line x1="61.77000045776367" y1="240.5199994173917" x2="56.77000045776367" y2="240.5199994173917" style="visibility: inherit;" fill="rgb(0, 0, 0)" stroke="rgb(204, 204, 204)" stroke-width="1px"></line><line x1="61.77000045776367" y1="206.15999950062147" x2="56.77000045776367" y2="206.15999950062147" style="visibility: inherit;" fill="rgb(0, 0, 0)" stroke="rgb(204, 204, 204)" stroke-width="1px"></line><line x1="61.77000045776367" y1="171.79999958385122" x2="56.77000045776367" y2="171.79999958385122" style="visibility: inherit;" fill="rgb(0, 0, 0)" stroke="rgb(204, 204, 204)" stroke-width="1px"></line><line x1="61.77000045776367" y1="137.43999966708103" x2="56.77000045776367" y2="137.43999966708103" style="visibility: inherit;" fill="rgb(0, 0, 0)" stroke="rgb(204, 204, 204)" stroke-width="1px"></line><line x1="61.77000045776367" y1="103.07999975031078" x2="56.77000045776367" y2="103.07999975031078" style="visibility: inherit;" fill="rgb(0, 0, 0)" stroke="rgb(204, 204, 204)" stroke-width="1px"></line><line x1="61.77000045776367" y1="68.7199998335405" x2="56.77000045776367" y2="68.7199998335405" style="visibility: inherit;" fill="rgb(0, 0, 0)" stroke="rgb(204, 204, 204)" stroke-width="1px"></line><line x1="61.77000045776367" y1="34.35999991677028" x2="56.77000045776367" y2="34.35999991677028" style="visibility: inherit;" fill="rgb(0, 0, 0)" stroke="rgb(204, 204, 204)" stroke-width="1px"></line><line x1="61.77000045776367" y1="0" x2="56.77000045776367" y2="0" style="visibility: inherit;" fill="rgb(0, 0, 0)" stroke="rgb(204, 204, 204)" stroke-width="1px"></line></g><g transform="translate(51.77000045776367, 0)"><text style="text-anchor: end; visibility: hidden; font-family: &quot;Helvetica Neue&quot;, sans-serif; font-size: 12px; font-weight: 200;" x="0" y="377.95999908447266" dx="0em" dy="0.3em" fill="rgb(50, 49, 63)" stroke="none" stroke-width="1px">-0.05</text><text style="text-anchor: end; visibility: inherit; font-family: &quot;Helvetica Neue&quot;, sans-serif; font-size: 12px; font-weight: 200;" x="0" y="343.59999916770244" dx="0em" dy="0.3em" fill="rgb(50, 49, 63)" stroke="none" stroke-width="1px">0</text><text style="text-anchor: end; visibility: inherit; font-family: &quot;Helvetica Neue&quot;, sans-serif; font-size: 12px; font-weight: 200;" x="0" y="309.23999925093216" dx="0em" dy="0.3em" fill="rgb(50, 49, 63)" stroke="none" stroke-width="1px">0.05</text><text style="text-anchor: end; visibility: inherit; font-family: &quot;Helvetica Neue&quot;, sans-serif; font-size: 12px; font-weight: 200;" x="0" y="274.87999933416194" dx="0em" dy="0.3em" fill="rgb(50, 49, 63)" stroke="none" stroke-width="1px">0.1</text><text style="text-anchor: end; visibility: inherit; font-family: &quot;Helvetica Neue&quot;, sans-serif; font-size: 12px; font-weight: 200;" x="0" y="240.5199994173917" dx="0em" dy="0.3em" fill="rgb(50, 49, 63)" stroke="none" stroke-width="1px">0.15</text><text style="text-anchor: end; visibility: inherit; font-family: &quot;Helvetica Neue&quot;, sans-serif; font-size: 12px; font-weight: 200;" x="0" y="206.15999950062147" dx="0em" dy="0.3em" fill="rgb(50, 49, 63)" stroke="none" stroke-width="1px">0.2</text><text style="text-anchor: end; visibility: inherit; font-family: &quot;Helvetica Neue&quot;, sans-serif; font-size: 12px; font-weight: 200;" x="0" y="171.79999958385122" dx="0em" dy="0.3em" fill="rgb(50, 49, 63)" stroke="none" stroke-width="1px">0.25</text><text style="text-anchor: end; visibility: inherit; font-family: &quot;Helvetica Neue&quot;, sans-serif; font-size: 12px; font-weight: 200;" x="0" y="137.43999966708103" dx="0em" dy="0.3em" fill="rgb(50, 49, 63)" stroke="none" stroke-width="1px">0.3</text><text style="text-anchor: end; visibility: inherit; font-family: &quot;Helvetica Neue&quot;, sans-serif; font-size: 12px; font-weight: 200;" x="0" y="103.07999975031078" dx="0em" dy="0.3em" fill="rgb(50, 49, 63)" stroke="none" stroke-width="1px">0.35</text><text style="text-anchor: end; visibility: inherit; font-family: &quot;Helvetica Neue&quot;, sans-serif; font-size: 12px; font-weight: 200;" x="0" y="68.7199998335405" dx="0em" dy="0.3em" fill="rgb(50, 49, 63)" stroke="none" stroke-width="1px">0.4</text><text style="text-anchor: end; visibility: inherit; font-family: &quot;Helvetica Neue&quot;, sans-serif; font-size: 12px; font-weight: 200;" x="0" y="34.35999991677028" dx="0em" dy="0.3em" fill="rgb(50, 49, 63)" stroke="none" stroke-width="1px">0.45</text><text style="text-anchor: end; visibility: hidden; font-family: &quot;Helvetica Neue&quot;, sans-serif; font-size: 12px; font-weight: 200;" x="0" y="0" dx="0em" dy="0.3em" fill="rgb(50, 49, 63)" stroke="none" stroke-width="1px">0.5</text></g><line x1="61.77000045776367" y1="0" x2="61.77000045776367" y2="377.95999908447266" fill="rgb(0, 0, 0)" stroke="rgb(204, 204, 204)" stroke-width="1px"></line></g></g><g transform="translate(61, 0)" clip-path="url(#clip_0)"><clipPath id="clip_0"><rect width="1372" height="377"></rect></clipPath><g><g><g><line x1="0" y1="0" x2="0" y2="377.95999908447266" fill="rgb(0, 0, 0)" stroke="rgb(60, 60, 60)" stroke-width="1px" opacity="0.25"></line><line x1="114.35249996185303" y1="0" x2="114.35249996185303" y2="377.95999908447266" fill="rgb(0, 0, 0)" stroke="rgb(60, 60, 60)" stroke-width="1px" opacity="0.25"></line><line x1="228.70499992370605" y1="0" x2="228.70499992370605" y2="377.95999908447266" fill="rgb(0, 0, 0)" stroke="rgb(60, 60, 60)" stroke-width="1px" opacity="0.25"></line><line x1="343.0574998855591" y1="0" x2="343.0574998855591" y2="377.95999908447266" fill="rgb(0, 0, 0)" stroke="rgb(60, 60, 60)" stroke-width="1px" opacity="0.25"></line><line x1="457.4099998474121" y1="0" x2="457.4099998474121" y2="377.95999908447266" fill="rgb(0, 0, 0)" stroke="rgb(60, 60, 60)" stroke-width="1px" opacity="0.25"></line><line x1="571.7624998092651" y1="0" x2="571.7624998092651" y2="377.95999908447266" fill="rgb(0, 0, 0)" stroke="rgb(60, 60, 60)" stroke-width="1px" opacity="0.25"></line><line x1="686.1149997711182" y1="0" x2="686.1149997711182" y2="377.95999908447266" fill="rgb(0, 0, 0)" stroke="rgb(60, 60, 60)" stroke-width="1px" opacity="0.25"></line><line x1="800.4674997329712" y1="0" x2="800.4674997329712" y2="377.95999908447266" fill="rgb(0, 0, 0)" stroke="rgb(60, 60, 60)" stroke-width="1px" opacity="0.25"></line><line x1="914.8199996948242" y1="0" x2="914.8199996948242" y2="377.95999908447266" fill="rgb(0, 0, 0)" stroke="rgb(60, 60, 60)" stroke-width="1px" opacity="0.25"></line><line x1="1029.1724996566772" y1="0" x2="1029.1724996566772" y2="377.95999908447266" fill="rgb(0, 0, 0)" stroke="rgb(60, 60, 60)" stroke-width="1px" opacity="0.25"></line><line x1="1143.5249996185303" y1="0" x2="1143.5249996185303" y2="377.95999908447266" fill="rgb(0, 0, 0)" stroke="rgb(60, 60, 60)" stroke-width="1px" opacity="0.25"></line><line x1="1257.8774995803833" y1="0" x2="1257.8774995803833" y2="377.95999908447266" fill="rgb(0, 0, 0)" stroke="rgb(60, 60, 60)" stroke-width="1px" opacity="0.25"></line><line x1="1372.2299995422363" y1="0" x2="1372.2299995422363" y2="377.95999908447266" fill="rgb(0, 0, 0)" stroke="rgb(60, 60, 60)" stroke-width="1px" opacity="0.25"></line></g><g><line x1="0" y1="377.95999908447266" x2="1372.2299995422363" y2="377.95999908447266" fill="rgb(0, 0, 0)" stroke="rgb(60, 60, 60)" stroke-width="1px" opacity="0.25"></line><line x1="0" y1="343.59999916770244" x2="1372.2299995422363" y2="343.59999916770244" fill="rgb(0, 0, 0)" stroke="rgb(60, 60, 60)" stroke-width="1px" opacity="0.25"></line><line x1="0" y1="309.23999925093216" x2="1372.2299995422363" y2="309.23999925093216" fill="rgb(0, 0, 0)" stroke="rgb(60, 60, 60)" stroke-width="1px" opacity="0.25"></line><line x1="0" y1="274.87999933416194" x2="1372.2299995422363" y2="274.87999933416194" fill="rgb(0, 0, 0)" stroke="rgb(60, 60, 60)" stroke-width="1px" opacity="0.25"></line><line x1="0" y1="240.5199994173917" x2="1372.2299995422363" y2="240.5199994173917" fill="rgb(0, 0, 0)" stroke="rgb(60, 60, 60)" stroke-width="1px" opacity="0.25"></line><line x1="0" y1="206.15999950062147" x2="1372.2299995422363" y2="206.15999950062147" fill="rgb(0, 0, 0)" stroke="rgb(60, 60, 60)" stroke-width="1px" opacity="0.25"></line><line x1="0" y1="171.79999958385122" x2="1372.2299995422363" y2="171.79999958385122" fill="rgb(0, 0, 0)" stroke="rgb(60, 60, 60)" stroke-width="1px" opacity="0.25"></line><line x1="0" y1="137.43999966708103" x2="1372.2299995422363" y2="137.43999966708103" fill="rgb(0, 0, 0)" stroke="rgb(60, 60, 60)" stroke-width="1px" opacity="0.25"></line><line x1="0" y1="103.07999975031078" x2="1372.2299995422363" y2="103.07999975031078" fill="rgb(0, 0, 0)" stroke="rgb(60, 60, 60)" stroke-width="1px" opacity="0.25"></line><line x1="0" y1="68.7199998335405" x2="1372.2299995422363" y2="68.7199998335405" fill="rgb(0, 0, 0)" stroke="rgb(60, 60, 60)" stroke-width="1px" opacity="0.25"></line><line x1="0" y1="34.35999991677028" x2="1372.2299995422363" y2="34.35999991677028" fill="rgb(0, 0, 0)" stroke="rgb(60, 60, 60)" stroke-width="1px" opacity="0.25"></line><line x1="0" y1="0" x2="1372.2299995422363" y2="0" fill="rgb(0, 0, 0)" stroke="rgb(60, 60, 60)" stroke-width="1px" opacity="0.25"></line></g></g></g><g><g><line x1="0" y1="343.59999916770244" x2="1372.2299995422363" y2="343.59999916770244" fill="rgb(0, 0, 0)" stroke="rgb(153, 153, 153)" stroke-width="1.5px"></line></g></g><g><g><line x1="114.35249996185303" y1="0" x2="114.35249996185303" y2="377.95999908447266" fill="rgb(0, 0, 0)" stroke="rgb(153, 153, 153)" stroke-width="1.5px"></line></g></g><g><g><g><g><g><path style="fill: none;" stroke="rgb(204, 51, 17)" stroke-width="2px" d="M114.35249996185303,176.43732128320485L137.22299995422364,202.0402553730751L160.09349994659425,216.61289201446215L182.96399993896483,227.3174877836999L205.83449993133544,235.89582955682044L228.70499992370605,243.26022611103218L251.57549991607664,249.77314828955514L274.4459999084473,255.41893846951513L297.31649990081786,260.38802386217577L320.1869998931885,264.91109342563755L343.0574998855591,269.0615265056278L365.92799987792966,272.8370135292858L388.7984998703003,276.40626771254244L411.6689998626709,279.43730939951024L434.53949985504147,282.233118595126L457.4099998474121,285.0562743170501L480.2804998397827,287.48941784297415L503.1509998321533,289.7580681903463L526.021499824524,291.8113885291184L548.8919998168946,293.7744709981871L571.7624998092651,295.7358010559068L594.6329998016357,297.2564583777253L617.5034997940064,298.81455058350963L640.373999786377,300.28799386777047L663.2444997787476,301.63659065872895L686.1149997711182,302.905676069018L708.9854997634889,304.016424562067L731.8559997558593,305.1800146838573L754.72649974823,306.3016683833451L777.5969997406006,307.18099385876616L800.4674997329712,308.22110601287346L823.3379997253418,309.0275264916285L846.2084997177125,309.8801321543706L869.0789997100829,310.6706137530796L891.9494997024536,311.3900624561839L914.8199996948242,312.09337431668024L937.6904996871948,312.7808415948168L960.5609996795654,313.3065301171382L983.4314996719361,313.86290455201936L1006.3019996643065,314.5549936997476L1029.1724996566772,315.0308192969168L1052.042999649048,315.63267367125525L1074.9134996414184,316.0377459263069L1097.783999633789,316.6361701604886L1120.6544996261596,317.03774560060526L1143.5249996185303,317.6309075617487L1166.3954996109007,317.9645847932717L1189.2659996032714,318.3358987386547L1212.1364995956421,318.5929678148248L1235.0069995880128,318.9738928420449" fill="none"></path></g><g><path style="fill: none;" stroke="rgb(0, 119, 187)" stroke-width="2px" d="M114.35249996185303,207.11604185002838L137.22299995422364,217.7570380494311L160.09349994659425,228.5368001051213L182.96399993896483,236.4396132026148L205.83449993133544,242.57126307720594L228.70499992370605,248.42823315162372L251.57549991607664,252.63303864465465L274.4459999084473,255.54133489245638L297.31649990081786,258.678240968419L320.1869998931885,261.5358113415667L343.0574998855591,265.1238439723678L365.92799987792966,268.2213665133021L388.7984998703003,270.24394363967855L411.6689998626709,273.09572696294924L434.53949985504147,275.50346546268145L457.4099998474121,277.43946213462044L480.2804998397827,278.7170185926641L503.1509998321533,281.18004369403747L526.021499824524,283.01533878382827L548.8919998168946,282.4401928067792L571.7624998092651,283.846923146638L594.6329998016357,284.42937175042005L617.5034997940064,286.11289932055485L640.373999786377,285.5078363016454L663.2444997787476,286.327000205121L686.1149997711182,288.92004521454567L708.9854997634889,290.86677452497014L731.8559997558593,291.7906646996793L754.72649974823,292.18375401859134L777.5969997406006,293.96365391589046L800.4674997329712,295.3184796642707L823.3379997253418,295.7710921631333L846.2084997177125,296.6277715772166L869.0789997100829,297.0018423862752L891.9494997024536,297.6955343968514L914.8199996948242,297.1652202688086L937.6904996871948,298.0395605604083L960.5609996795654,298.7858173639509L983.4314996719361,299.08637851554056L1006.3019996643065,299.704705868642L1029.1724996566772,300.1112056542545L1052.042999649048,300.45810842152224L1074.9134996414184,300.98437448743505L1097.783999633789,301.33987689341484L1120.6544996261596,301.48912255336325L1143.5249996185303,302.14259718597896L1166.3954996109007,302.68380617266337L1189.2659996032714,301.82147100871384L1212.1364995956421,302.00465815525286L1235.0069995880128,302.87004243384354" fill="none"></path></g><g><path style="fill: none;" stroke="rgb(255, 112, 67)" stroke-width="2px" d="M114.35249996185303,76.23719599853638L137.22299995422364,106.49598632884545L160.09349994659425,127.83925801859942L182.96399993896483,143.29672386830717L205.83449993133544,156.2503151274574L228.70499992370605,167.49702721951545L251.57549991607664,177.6295342623558L274.4459999084473,187.1378295920451L297.31649990081786,196.24196693235106L320.1869998931885,204.82044462079747L343.0574998855591,212.72328408202065L365.92799987792966,220.26866427100646L388.7984998703003,227.49759005537166L411.6689998626709,233.838302321006L434.53949985504147,239.6193986584765L457.4099998474121,244.8390028096736L480.2804998397827,249.92584077514712L503.1509998321533,254.5473025791158L526.021499824524,258.7017145210817L548.8919998168946,262.306007622577L571.7624998092651,265.7082167994426L594.6329998016357,269.00559384942426L617.5034997940064,271.94385358951894L640.373999786377,274.4689692438675L663.2444997787476,276.81070867781193L686.1149997711182,278.8619820667768L708.9854997634889,281.1363788570365L731.8559997558593,283.36366676164283L754.72649974823,284.9875903638341L777.5969997406006,286.91465867690204L800.4674997329712,288.5025555991161L823.3379997253418,289.9052242463302L846.2084997177125,291.57872728738613L869.0789997100829,292.4992720704444L891.9494997024536,293.7751300753662L914.8199996948242,295.1170875301169L937.6904996871948,296.433348383668L960.5609996795654,297.225734542612L983.4314996719361,298.37548765854115L1006.3019996643065,299.2574577251223L1029.1724996566772,300.37319450164927L1052.042999649048,301.1840397554237L1074.9134996414184,301.64993465453193L1097.783999633789,302.7498195985527L1120.6544996261596,303.58859250220894L1143.5249996185303,304.07694464283867L1166.3954996109007,304.40460118291844L1189.2659996032714,305.3463891314019L1212.1364995956421,306.31081982040155L1235.0069995880128,306.93867259226147" fill="none"></path></g><g><path style="fill: none;" stroke="rgb(187, 187, 187)" stroke-width="2px" d="M114.35249996185303,106.53469894352634L137.22299995422364,130.67453069624244L160.09349994659425,142.13879167663316L182.96399993896483,152.23671459257503L205.83449993133544,161.06234405447793L228.70499992370605,168.53706557445358L251.57549991607664,174.6764848435716L274.4459999084473,180.47924678889842L297.31649990081786,184.6655235670975L320.1869998931885,190.53420713856485L343.0574998855591,197.1761816058916L365.92799987792966,201.6316062010913L388.7984998703003,208.23151585866862L411.6689998626709,215.06452774447712L434.53949985504147,219.6799331666243L457.4099998474121,223.84662828106522L480.2804998397827,227.81946018588445L503.1509998321533,230.4777234071959L526.021499824524,233.62401585865456L548.8919998168946,236.3198737958157L571.7624998092651,238.26721477506442L594.6329998016357,239.1262351956666L617.5034997940064,241.1742192449234L640.373999786377,243.88411892771495L663.2444997787476,246.01951632589748L686.1149997711182,248.44521261524827L708.9854997634889,250.01359230017238L731.8559997558593,250.91687003725696L754.72649974823,252.59499796760144L777.5969997406006,254.35501994153884L800.4674997329712,254.9319118542528L823.3379997253418,255.47042526460427L846.2084997177125,255.587846971877L869.0789997100829,257.5903201305689L891.9494997024536,259.26832807256454L914.8199996948242,259.50973818521186L937.6904996871948,260.08823107481555L960.5609996795654,260.11876913147L983.4314996719361,260.62363083801426L1006.3019996643065,260.12475590089826L1029.1724996566772,261.58923521457143L1052.042999649048,262.8175129192764L1074.9134996414184,263.95969581034956L1097.783999633789,265.11713253070104L1120.6544996261596,265.4155452120096L1143.5249996185303,265.82637084108666L1166.3954996109007,266.2458579993387L1189.2659996032714,266.8167785802569L1212.1364995956421,266.4820091650083L1235.0069995880128,266.8438049828227" fill="none"></path></g><g><path style="fill: none;" stroke="rgb(0, 153, 136)" stroke-width="2px" d="M114.35249996185303,250.49437396646164L137.22299995422364,276.87597638356544L160.09349994659425,290.80979542757063L182.96399993896483,300.59460798892394L205.83449993133544,308.0286210571144L228.70499992370605,313.5238152013159L251.57549991607664,317.9891102537118L274.4459999084473,321.3942163991356L297.31649990081786,324.2257859036782L320.1869998931885,326.4444342107458L343.0574998855591,328.2468428899825L365.92799987792966,329.8387377454491L388.7984998703003,331.1499861315882L411.6689998626709,332.1568313821465L434.53949985504147,333.1317385463784L457.4099998474121,334.0718518675297L480.2804998397827,334.81921115115233L503.1509998321533,335.35785833074016L526.021499824524,335.9030930242992L548.8919998168946,336.317202402666L571.7624998092651,336.726173546588L594.6329998016357,337.23195500471957L617.5034997940064,337.6054623052785L640.373999786377,337.91009148833035L663.2444997787476,338.0850838009666L686.1149997711182,338.2846722635465L708.9854997634889,338.5557717101517L731.8559997558593,338.74692999496943L754.72649974823,338.9886721766276L777.5969997406006,339.0377294767349L800.4674997329712,339.2424499433889L823.3379997253418,339.2375353034241L846.2084997177125,339.5487135978351L869.0789997100829,339.5834691959623L891.9494997024536,339.52388507652745L914.8199996948242,339.7723175076572L937.6904996871948,339.64232779884225L960.5609996795654,339.91000303858914L983.4314996719361,340.18105471876765L1006.3019996643065,340.18608913465033L1029.1724996566772,340.2120754630091L1052.042999649048,340.49028033115155L1074.9134996414184,340.28671249566383L1097.783999633789,339.9364739300854L1120.6544996261596,340.0295537069455L1143.5249996185303,340.33083716932964L1166.3954996109007,340.45670353281827L1189.2659996032714,340.5674004506777L1212.1364995956421,340.56108665575437L1235.0069995880128,340.5885985850582" fill="none"></path></g><g><path style="fill: none;" stroke="rgb(238, 51, 119)" stroke-width="2px" d="M114.35249996185303,284.73873575499294L137.22299995422364,295.7621876656535L160.09349994659425,303.78931668663233L182.96399993896483,309.7637121277944L205.83449993133544,314.330031427641L228.70499992370605,317.79450582922453L251.57549991607664,321.4224910995707L274.4459999084473,324.27369140397604L297.31649990081786,325.62209433204055L320.1869998931885,326.8705895221738L343.0574998855591,328.67016200725953L365.92799987792966,329.9145403574074L388.7984998703003,330.9887478316835L411.6689998626709,331.81456662649975L434.53949985504147,332.73847844562056L457.4099998474121,333.17115469857254L480.2804998397827,333.9549923995353L503.1509998321533,333.8021402205796L526.021499824524,334.3286085829587L548.8919998168946,335.0659322933131L571.7624998092651,335.62589558873884L594.6329998016357,336.0631695686979L617.5034997940064,336.44258732060814L640.373999786377,336.54561755498105L663.2444997787476,336.75001530583404L686.1149997711182,337.21647630811304L708.9854997634889,337.4853158889279L731.8559997558593,337.75387512761387L754.72649974823,337.861941853763L777.5969997406006,338.01112607664453L800.4674997329712,338.14539405589693L823.3379997253418,338.32739574029284L846.2084997177125,338.51934822351694L869.0789997100829,338.5646234935316L891.9494997024536,338.6297419682638L914.8199996948242,338.55864786067144L937.6904996871948,338.8424389395286L960.5609996795654,339.0680070628189L983.4314996719361,338.9793801509123L1006.3019996643065,339.12313695921415L1029.1724996566772,339.272550820896L1052.042999649048,339.3224682753775L1074.9134996414184,339.4560342568035L1097.783999633789,339.50092877734244L1120.6544996261596,339.5909843061286L1143.5249996185303,339.74447745249006L1166.3954996109007,339.9199268067916L1189.2659996032714,339.9218627687889L1212.1364995956421,339.949281313856L1235.0069995880128,339.93618699999547" fill="none"></path></g></g></g></g><g opacity="0.2"><g><g><g><path style="fill: none;" stroke="rgb(204, 51, 17)" stroke-width="2px" d="M114.35249996185303,176.43732128320485L137.22299995422364,217.40201582699726L160.09349994659425,230.60262319019373L182.96399993896483,239.9060924083235L205.83449993133544,247.09571257580657L228.70499992370605,253.44783772826656L251.57549991607664,259.08673121159774L274.4459999084473,263.65055475148245L297.31649990081786,267.7164596212037L320.1869998931885,271.62732459075914L343.0574998855591,275.24953200304947L365.92799987792966,278.4796980311157L388.7984998703003,281.7484947532392L411.6689998626709,283.9779338037585L434.53949985504147,286.4235460197908L457.4099998474121,289.28901679179194L480.2804998397827,291.1381035070642L503.1509998321533,293.16046770132704L526.021499824524,294.89105623458966L548.8919998168946,296.7189152682766L571.7624998092651,298.6776885784848L594.6329998016357,299.5373943225761L617.5034997940064,301.15165813037345L640.373999786377,302.4981413398213L663.2444997787476,303.65947625991794L686.1149997711182,304.809298772382L708.9854997634889,305.6825444595396L731.8559997558593,306.9253980801577L754.72649974823,307.9841478993752L777.5969997406006,308.499981585908L800.4674997329712,309.7812738991219L823.3379997253418,310.23715704931044L846.2084997177125,311.1590405466997L869.0789997100829,311.8563360945226L891.9494997024536,312.4692354799207L914.8199996948242,313.14834208928914L937.6904996871948,313.8120425013854L960.5609996795654,314.09506289574034L983.4314996719361,314.6974662012422L1006.3019996643065,315.59312741902716L1029.1724996566772,315.7445576917164L1052.042999649048,316.5354552320388L1074.9134996414184,316.64535430859206L1097.783999633789,317.5338065115019L1120.6544996261596,317.640108760676L1143.5249996185303,318.5206505033713L1166.3954996109007,318.465100640525L1189.2659996032714,318.8928696567084L1212.1364995956421,318.9785714290714L1235.0069995880128,319.54528038286736" fill="none"></path></g><g><path style="fill: none;" stroke="rgb(0, 119, 187)" stroke-width="2px" d="M114.35249996185303,207.11604185002838L137.22299995422364,224.1416357690727L160.09349994659425,238.8853716785839L182.96399993896483,245.7333214052671L205.83449993133544,250.57674515347225L228.70499992370605,256.5305312737703L251.57549991607664,258.64597777657684L274.4459999084473,259.78165874139523L297.31649990081786,263.3045681178276L320.1869998931885,265.7789703130096L343.0574998855591,270.4733497266873L365.92799987792966,272.85079374382235L388.7984998703003,273.2712052640004L411.6689998626709,277.36781500744746L434.53949985504147,279.1122430060563L457.4099998474121,280.3420917276809L480.2804998397827,280.63281266065246L503.1509998321533,284.8739559842911L526.021499824524,285.7680018297798L548.8919998168946,281.57752641182594L571.7624998092651,285.95694150799113L594.6329998016357,285.3030254903738L617.5034997940064,288.638157437442L640.373999786377,284.6002489408295L663.2444997787476,287.55574023806804L686.1149997711182,292.8096016705302L708.9854997634889,293.78686350946015L731.8559997558593,293.176498543354L754.72649974823,292.77338763486847L777.5969997406006,296.6335027781156L800.4674997329712,297.35071783756604L823.3379997253418,296.4500108213724L846.2084997177125,297.91279059607126L869.0789997100829,297.5629485730692L891.9494997024536,298.73607238290305L914.8199996948242,296.3697490904191L937.6904996871948,299.35107098428045L960.5609996795654,299.9052025623373L983.4314996719361,299.537220241251L1006.3019996643065,300.6321968962277L1029.1724996566772,300.7209553318581L1052.042999649048,300.9784625720066L1074.9134996414184,301.77377358592446L1097.783999633789,301.8731305022306L1120.6544996261596,301.7129910432469L1143.5249996185303,303.1228091348007L1166.3954996109007,303.49561965263933L1189.2659996032714,300.527968262838L1212.1364995956421,302.27943887505523L1235.0069995880128,304.16811885171205" fill="none"></path></g><g><path style="fill: none;" stroke="rgb(255, 112, 67)" stroke-width="2px" d="M114.35249996185303,76.23719599853638L137.22299995422364,124.65126052703084L160.09349994659425,148.32879884076317L182.96399993896483,161.47470370756352L205.83449993133544,173.16252387540402L228.70499992370605,183.05527885918477L251.57549991607664,192.11918145373025L274.4459999084473,201.00101546236726L297.31649990081786,209.66880112166544L320.1869998931885,217.5584842180367L343.0574998855591,224.50586510159116L365.92799987792966,231.54567292870072L388.7984998703003,238.31737503498601L411.6689998626709,243.3369486040459L434.53949985504147,248.28424770295155L457.4099998474121,252.66472776722327L480.2804998397827,257.55394514401013L503.1509998321533,261.4783218964174L526.021499824524,264.93269955118546L548.8919998168946,267.71211782815385L571.7624998092651,270.811343979504L594.6329998016357,273.95155092280044L617.5034997940064,276.351185188848L640.373999786377,278.25661281298807L663.2444997787476,280.32330118464705L686.1149997711182,281.9388834024801L708.9854997634889,284.547968222868L731.8559997558593,286.70459519914084L754.72649974823,287.42347427125776L777.5969997406006,289.8052600814426L800.4674997329712,290.8844004558733L823.3379997253418,292.00922693806723L846.2084997177125,294.0889816491874L869.0789997100829,293.8800891790952L891.9494997024536,295.6889170279165L914.8199996948242,297.1300236776392L937.6904996871948,298.4077396436299L960.5609996795654,298.4143137736723L983.4314996719361,300.10011732603107L1006.3019996643065,300.58041282204664L1029.1724996566772,302.0467996642025L1052.042999649048,302.40030763510987L1074.9134996414184,302.348777002858L1097.783999633789,304.3996470141075L1120.6544996261596,304.8467518574754L1143.5249996185303,304.8094728537071L1166.3954996109007,304.89608599300743L1189.2659996032714,306.7590710540742L1212.1364995956421,307.7574658538685L1235.0069995880128,307.8804517500388" fill="none"></path></g><g><path style="fill: none;" stroke="rgb(187, 187, 187)" stroke-width="2px" d="M114.35249996185303,106.53469894352634L137.22299995422364,145.15842974787205L160.09349994659425,153.14448221780825L182.96399993896483,164.11187194172274L205.83449993133544,172.58508587993842L228.70499992370605,178.87729633632696L251.57549991607664,183.45595262911874L274.4459999084473,188.93972941169957L297.31649990081786,190.83946867253977L320.1869998931885,199.24851828233574L343.0574998855591,207.0789010873124L365.92799987792966,208.2904968699954L388.7984998703003,218.1098304948918L411.6689998626709,225.30065899157267L434.53949985504147,226.59761606402694L457.4099998474121,230.09373227650943L480.2804998397827,233.77702687379622L503.1509998321533,234.46444330641913L526.021499824524,238.34297522985503L548.8919998168946,240.36341428946366L571.7624998092651,241.18811944713013L594.6329998016357,240.41473756013707L617.5034997940064,244.24615488493603L640.373999786377,247.94893635055712L663.2444997787476,249.22259724568056L686.1149997711182,252.0837467047878L708.9854997634889,252.3661578145049L731.8559997558593,252.2717852561397L754.72649974823,255.1121883173251L777.5969997406006,256.99505192970764L800.4674997329712,255.79724953202003L823.3379997253418,256.27819527298533L846.2084997177125,255.76397951876828L869.0789997100829,260.5940297251738L891.9494997024536,261.7853399134426L914.8199996948242,259.87185334795777L937.6904996871948,260.955970400271L960.5609996795654,260.1645762161681L983.4314996719361,261.3809233950187L1006.3019996643065,259.37644349689145L1029.1724996566772,263.7859541821447L1052.042999649048,264.6599294748561L1074.9134996414184,265.67297014613496L1097.783999633789,266.85328761072697L1120.6544996261596,265.86316423389485L1143.5249996185303,266.44260928463814L1166.3954996109007,266.87508873667747L1189.2659996032714,267.6731594516022L1212.1364995956421,265.9798550421468L1235.0069995880128,267.38649870953685" fill="none"></path></g><g><path style="fill: none;" stroke="rgb(0, 153, 136)" stroke-width="2px" d="M114.35249996185303,250.49437396646164L137.22299995422364,292.70493783382767L160.09349994659425,304.1862617098157L182.96399993896483,312.10154756107545L205.83449993133544,317.7344685189437L228.70499992370605,321.1256469726386L251.57549991607664,324.3745536233587L274.4459999084473,326.3588938481825L297.31649990081786,328.4018009188179L320.1869998931885,329.73886837659296L343.0574998855591,330.9341081947741L365.92799987792966,332.2179170071437L388.7984998703003,333.1125772573092L411.6689998626709,333.6651267433232L434.53949985504147,334.59295332595127L457.4099998474121,335.4813588085055L480.2804998397827,335.9399338191845L503.1509998321533,336.16569233766126L526.021499824524,336.72086200362L548.8919998168946,336.9383286189788L571.7624998092651,337.3396078335214L594.6329998016357,337.99061054896265L617.5034997940064,338.16571588186673L640.373999786377,338.36703165428503L663.2444997787476,338.3475710261505L686.1149997711182,338.5840541062628L708.9854997634889,338.9624201863904L731.8559997558593,339.033667128723L754.72649974823,339.3512852264362L777.5969997406006,339.11131539978265L800.4674997329712,339.5495305754823L823.3379997253418,339.2301633444548L846.2084997177125,340.0154810023031L869.0789997100829,339.63560259066367L891.9494997024536,339.43450889993585L914.8199996948242,340.14496614794575L937.6904996871948,339.447343237631L960.5609996795654,340.3115158957246L983.4314996719361,340.5876322375258L1006.3019996643065,340.1936407584575L1029.1724996566772,340.25105495549514L1052.042999649048,340.9075876330305L1074.9134996414184,339.9813607425792L1097.783999633789,339.4111160818694L1120.6544996261596,340.16917337221145L1143.5249996185303,340.7827623628589L1166.3954996109007,340.6455030780394L1189.2659996032714,340.73344582746074L1212.1364995956421,340.55161596336944L1235.0069995880128,340.6298664790134" fill="none"></path></g><g><path style="fill: none;" stroke="rgb(238, 51, 119)" stroke-width="2px" d="M114.35249996185303,284.73873575499294L137.22299995422364,302.3762588120499L160.09349994659425,311.49536054677196L182.96399993896483,316.789601166601L205.83449993133544,320.2918179055208L228.70499992370605,322.5871211373991L251.57549991607664,326.61056808393005L274.4459999084473,328.43076881932194L297.31649990081786,327.61072673715086L320.1869998931885,328.7244593748983L343.0574998855591,331.3531987448969L365.92799987792966,331.77433603059944L388.7984998703003,332.5965515693149L411.6689998626709,333.0516769537353L434.53949985504147,334.12326015064065L457.4099998474121,333.8198639211846L480.2804998397827,335.1304172571338L503.1509998321533,333.5729007612978L526.021499824524,335.11823092437123L548.8919998168946,336.171850464537L571.7624998092651,336.4658098221595L594.6329998016357,336.71906614995L617.5034997940064,337.0117064575319L640.373999786377,336.70016168604894L663.2444997787476,337.0566104793419L686.1149997711182,337.9161658222884L708.9854997634889,337.88857457226345L731.8559997558593,338.15671357334105L754.72649974823,338.0240418434421L777.5969997406006,338.23490232851486L800.4674997329712,338.3467959802508L823.3379997253418,338.6003982306745L846.2084997177125,338.8072769254378L869.0789997100829,338.6325363953106L891.9494997024536,338.7274196775634L914.8199996948242,338.4520067011162L937.6904996871948,339.2681255534236L960.5609996795654,339.4063592456603L983.4314996719361,338.84643978354603L1006.3019996643065,339.33877217118663L1029.1724996566772,339.49667161311925L1052.042999649048,339.3973444570396L1074.9134996414184,339.65638322884615L1097.783999633789,339.56827055813136L1120.6544996261596,339.7260675992845L1143.5249996185303,339.9747171720083L1166.3954996109007,340.1831008382275L1189.2659996032714,339.92476671178474L1212.1364995956421,339.9904091314557L1235.0069995880128,339.916545529205" fill="none"></path></g></g></g></g></g></g><g transform="translate(61, 377)" clip-path="url(#clip_1)"><clipPath id="clip_1"><rect width="1372" height="22"></rect></clipPath><g><g><line x1="0" y1="0" x2="0" y2="5" style="visibility: inherit;" fill="rgb(0, 0, 0)" stroke="rgb(204, 204, 204)" stroke-width="1px"></line><line x1="114.35249996185303" y1="0" x2="114.35249996185303" y2="5" style="visibility: inherit;" fill="rgb(0, 0, 0)" stroke="rgb(204, 204, 204)" stroke-width="1px"></line><line x1="228.70499992370605" y1="0" x2="228.70499992370605" y2="5" style="visibility: inherit;" fill="rgb(0, 0, 0)" stroke="rgb(204, 204, 204)" stroke-width="1px"></line><line x1="343.0574998855591" y1="0" x2="343.0574998855591" y2="5" style="visibility: inherit;" fill="rgb(0, 0, 0)" stroke="rgb(204, 204, 204)" stroke-width="1px"></line><line x1="457.4099998474121" y1="0" x2="457.4099998474121" y2="5" style="visibility: inherit;" fill="rgb(0, 0, 0)" stroke="rgb(204, 204, 204)" stroke-width="1px"></line><line x1="571.7624998092651" y1="0" x2="571.7624998092651" y2="5" style="visibility: inherit;" fill="rgb(0, 0, 0)" stroke="rgb(204, 204, 204)" stroke-width="1px"></line><line x1="686.1149997711182" y1="0" x2="686.1149997711182" y2="5" style="visibility: inherit;" fill="rgb(0, 0, 0)" stroke="rgb(204, 204, 204)" stroke-width="1px"></line><line x1="800.4674997329712" y1="0" x2="800.4674997329712" y2="5" style="visibility: inherit;" fill="rgb(0, 0, 0)" stroke="rgb(204, 204, 204)" stroke-width="1px"></line><line x1="914.8199996948242" y1="0" x2="914.8199996948242" y2="5" style="visibility: inherit;" fill="rgb(0, 0, 0)" stroke="rgb(204, 204, 204)" stroke-width="1px"></line><line x1="1029.1724996566772" y1="0" x2="1029.1724996566772" y2="5" style="visibility: inherit;" fill="rgb(0, 0, 0)" stroke="rgb(204, 204, 204)" stroke-width="1px"></line><line x1="1143.5249996185303" y1="0" x2="1143.5249996185303" y2="5" style="visibility: inherit;" fill="rgb(0, 0, 0)" stroke="rgb(204, 204, 204)" stroke-width="1px"></line><line x1="1257.8774995803833" y1="0" x2="1257.8774995803833" y2="5" style="visibility: inherit;" fill="rgb(0, 0, 0)" stroke="rgb(204, 204, 204)" stroke-width="1px"></line><line x1="1372.2299995422363" y1="0" x2="1372.2299995422363" y2="5" style="visibility: inherit;" fill="rgb(0, 0, 0)" stroke="rgb(204, 204, 204)" stroke-width="1px"></line></g><g transform="translate(0, 8)"><text style="text-anchor: middle; visibility: hidden; font-family: &quot;Helvetica Neue&quot;, sans-serif; font-size: 12px; font-weight: 200;" x="0" y="0" dx="0em" dy="0.95em" fill="rgb(50, 49, 63)" stroke="none" stroke-width="1px">-5</text><text style="text-anchor: middle; visibility: inherit; font-family: &quot;Helvetica Neue&quot;, sans-serif; font-size: 12px; font-weight: 200;" x="114.35249996185303" y="0" dx="0em" dy="0.95em" fill="rgb(50, 49, 63)" stroke="none" stroke-width="1px">0</text><text style="text-anchor: middle; visibility: inherit; font-family: &quot;Helvetica Neue&quot;, sans-serif; font-size: 12px; font-weight: 200;" x="228.70499992370605" y="0" dx="0em" dy="0.95em" fill="rgb(50, 49, 63)" stroke="none" stroke-width="1px">5</text><text style="text-anchor: middle; visibility: inherit; font-family: &quot;Helvetica Neue&quot;, sans-serif; font-size: 12px; font-weight: 200;" x="343.0574998855591" y="0" dx="0em" dy="0.95em" fill="rgb(50, 49, 63)" stroke="none" stroke-width="1px">10</text><text style="text-anchor: middle; visibility: inherit; font-family: &quot;Helvetica Neue&quot;, sans-serif; font-size: 12px; font-weight: 200;" x="457.4099998474121" y="0" dx="0em" dy="0.95em" fill="rgb(50, 49, 63)" stroke="none" stroke-width="1px">15</text><text style="text-anchor: middle; visibility: inherit; font-family: &quot;Helvetica Neue&quot;, sans-serif; font-size: 12px; font-weight: 200;" x="571.7624998092651" y="0" dx="0em" dy="0.95em" fill="rgb(50, 49, 63)" stroke="none" stroke-width="1px">20</text><text style="text-anchor: middle; visibility: inherit; font-family: &quot;Helvetica Neue&quot;, sans-serif; font-size: 12px; font-weight: 200;" x="686.1149997711182" y="0" dx="0em" dy="0.95em" fill="rgb(50, 49, 63)" stroke="none" stroke-width="1px">25</text><text style="text-anchor: middle; visibility: inherit; font-family: &quot;Helvetica Neue&quot;, sans-serif; font-size: 12px; font-weight: 200;" x="800.4674997329712" y="0" dx="0em" dy="0.95em" fill="rgb(50, 49, 63)" stroke="none" stroke-width="1px">30</text><text style="text-anchor: middle; visibility: inherit; font-family: &quot;Helvetica Neue&quot;, sans-serif; font-size: 12px; font-weight: 200;" x="914.8199996948242" y="0" dx="0em" dy="0.95em" fill="rgb(50, 49, 63)" stroke="none" stroke-width="1px">35</text><text style="text-anchor: middle; visibility: inherit; font-family: &quot;Helvetica Neue&quot;, sans-serif; font-size: 12px; font-weight: 200;" x="1029.1724996566772" y="0" dx="0em" dy="0.95em" fill="rgb(50, 49, 63)" stroke="none" stroke-width="1px">40</text><text style="text-anchor: middle; visibility: inherit; font-family: &quot;Helvetica Neue&quot;, sans-serif; font-size: 12px; font-weight: 200;" x="1143.5249996185303" y="0" dx="0em" dy="0.95em" fill="rgb(50, 49, 63)" stroke="none" stroke-width="1px">45</text><text style="text-anchor: middle; visibility: inherit; font-family: &quot;Helvetica Neue&quot;, sans-serif; font-size: 12px; font-weight: 200;" x="1257.8774995803833" y="0" dx="0em" dy="0.95em" fill="rgb(50, 49, 63)" stroke="none" stroke-width="1px">50</text><text style="text-anchor: middle; visibility: hidden; font-family: &quot;Helvetica Neue&quot;, sans-serif; font-size: 12px; font-weight: 200;" x="1372.2299995422363" y="0" dx="0em" dy="0.95em" fill="rgb(50, 49, 63)" stroke="none" stroke-width="1px">55</text></g><line x1="0" y1="0" x2="1372.2299995422363" y2="0" fill="rgb(0, 0, 0)" stroke="rgb(204, 204, 204)" stroke-width="1px"></line></g></g></g></g></svg>