<svg viewBox="0 0 1434 400" xmlns="http://www.w3.org/2000/svg"><g><g><g><g><g><line x1="51.41600036621094" y1="377.95999908447266" x2="46.41600036621094" y2="377.95999908447266" style="visibility: inherit;" fill="rgb(0, 0, 0)" stroke="rgb(204, 204, 204)" stroke-width="1px"></line><line x1="51.41600036621094" y1="330.7149991989136" x2="46.41600036621094" y2="330.7149991989136" style="visibility: inherit;" fill="rgb(0, 0, 0)" stroke="rgb(204, 204, 204)" stroke-width="1px"></line><line x1="51.41600036621094" y1="283.4699993133545" x2="46.41600036621094" y2="283.4699993133545" style="visibility: inherit;" fill="rgb(0, 0, 0)" stroke="rgb(204, 204, 204)" stroke-width="1px"></line><line x1="51.41600036621094" y1="236.2249994277954" x2="46.41600036621094" y2="236.2249994277954" style="visibility: inherit;" fill="rgb(0, 0, 0)" stroke="rgb(204, 204, 204)" stroke-width="1px"></line><line x1="51.41600036621094" y1="188.97999954223633" x2="46.41600036621094" y2="188.97999954223633" style="visibility: inherit;" fill="rgb(0, 0, 0)" stroke="rgb(204, 204, 204)" stroke-width="1px"></line><line x1="51.41600036621094" y1="141.73499965667725" x2="46.41600036621094" y2="141.73499965667725" style="visibility: inherit;" fill="rgb(0, 0, 0)" stroke="rgb(204, 204, 204)" stroke-width="1px"></line><line x1="51.41600036621094" y1="94.48999977111816" x2="46.41600036621094" y2="94.48999977111816" style="visibility: inherit;" fill="rgb(0, 0, 0)" stroke="rgb(204, 204, 204)" stroke-width="1px"></line><line x1="51.41600036621094" y1="47.24499988555908" x2="46.41600036621094" y2="47.24499988555908" style="visibility: inherit;" fill="rgb(0, 0, 0)" stroke="rgb(204, 204, 204)" stroke-width="1px"></line><line x1="51.41600036621094" y1="0" x2="46.41600036621094" y2="0" style="visibility: inherit;" fill="rgb(0, 0, 0)" stroke="rgb(204, 204, 204)" stroke-width="1px"></line></g><g transform="translate(41.41600036621094, 0)"><text style="text-anchor: end; visibility: hidden; font-family: &quot;Helvetica Neue&quot;, sans-serif; font-size: 12px; font-weight: 200;" x="0" y="377.95999908447266" dx="0em" dy="0.3em" fill="rgb(50, 49, 63)" stroke="none" stroke-width="1px">-100</text><text style="text-anchor: end; visibility: inherit; font-family: &quot;Helvetica Neue&quot;, sans-serif; font-size: 12px; font-weight: 200;" x="0" y="330.7149991989136" dx="0em" dy="0.3em" fill="rgb(50, 49, 63)" stroke="none" stroke-width="1px">0</text><text style="text-anchor: end; visibility: inherit; font-family: &quot;Helvetica Neue&quot;, sans-serif; font-size: 12px; font-weight: 200;" x="0" y="283.4699993133545" dx="0em" dy="0.3em" fill="rgb(50, 49, 63)" stroke="none" stroke-width="1px">100</text><text style="text-anchor: end; visibility: inherit; font-family: &quot;Helvetica Neue&quot;, sans-serif; font-size: 12px; font-weight: 200;" x="0" y="236.2249994277954" dx="0em" dy="0.3em" fill="rgb(50, 49, 63)" stroke="none" stroke-width="1px">200</text><text style="text-anchor: end; visibility: inherit; font-family: &quot;Helvetica Neue&quot;, sans-serif; font-size: 12px; font-weight: 200;" x="0" y="188.97999954223633" dx="0em" dy="0.3em" fill="rgb(50, 49, 63)" stroke="none" stroke-width="1px">300</text><text style="text-anchor: end; visibility: inherit; font-family: &quot;Helvetica Neue&quot;, sans-serif; font-size: 12px; font-weight: 200;" x="0" y="141.73499965667725" dx="0em" dy="0.3em" fill="rgb(50, 49, 63)" stroke="none" stroke-width="1px">400</text><text style="text-anchor: end; visibility: inherit; font-family: &quot;Helvetica Neue&quot;, sans-serif; font-size: 12px; font-weight: 200;" x="0" y="94.48999977111816" dx="0em" dy="0.3em" fill="rgb(50, 49, 63)" stroke="none" stroke-width="1px">500</text><text style="text-anchor: end; visibility: inherit; font-family: &quot;Helvetica Neue&quot;, sans-serif; font-size: 12px; font-weight: 200;" x="0" y="47.24499988555908" dx="0em" dy="0.3em" fill="rgb(50, 49, 63)" stroke="none" stroke-width="1px">600</text><text style="text-anchor: end; visibility: hidden; font-family: &quot;Helvetica Neue&quot;, sans-serif; font-size: 12px; font-weight: 200;" x="0" y="0" dx="0em" dy="0.3em" fill="rgb(50, 49, 63)" stroke="none" stroke-width="1px">700</text></g><line x1="51.41600036621094" y1="0" x2="51.41600036621094" y2="377.95999908447266" fill="rgb(0, 0, 0)" stroke="rgb(204, 204, 204)" stroke-width="1px"></line></g></g><g transform="translate(51, 0)" clip-path="url(#clip_0)"><clipPath id="clip_0"><rect width="1382" height="377"></rect></clipPath><g><g><g><line x1="0" y1="0" x2="0" y2="377.95999908447266" fill="rgb(0, 0, 0)" stroke="rgb(60, 60, 60)" stroke-width="1px" opacity="0.25"></line><line x1="115.21533330281575" y1="0" x2="115.21533330281575" y2="377.95999908447266" fill="rgb(0, 0, 0)" stroke="rgb(60, 60, 60)" stroke-width="1px" opacity="0.25"></line><line x1="230.4306666056315" y1="0" x2="230.4306666056315" y2="377.95999908447266" fill="rgb(0, 0, 0)" stroke="rgb(60, 60, 60)" stroke-width="1px" opacity="0.25"></line><line x1="345.64599990844727" y1="0" x2="345.64599990844727" y2="377.95999908447266" fill="rgb(0, 0, 0)" stroke="rgb(60, 60, 60)" stroke-width="1px" opacity="0.25"></line><line x1="460.861333211263" y1="0" x2="460.861333211263" y2="377.95999908447266" fill="rgb(0, 0, 0)" stroke="rgb(60, 60, 60)" stroke-width="1px" opacity="0.25"></line><line x1="576.0766665140789" y1="0" x2="576.0766665140789" y2="377.95999908447266" fill="rgb(0, 0, 0)" stroke="rgb(60, 60, 60)" stroke-width="1px" opacity="0.25"></line><line x1="691.2919998168945" y1="0" x2="691.2919998168945" y2="377.95999908447266" fill="rgb(0, 0, 0)" stroke="rgb(60, 60, 60)" stroke-width="1px" opacity="0.25"></line><line x1="806.5073331197103" y1="0" x2="806.5073331197103" y2="377.95999908447266" fill="rgb(0, 0, 0)" stroke="rgb(60, 60, 60)" stroke-width="1px" opacity="0.25"></line><line x1="921.722666422526" y1="0" x2="921.722666422526" y2="377.95999908447266" fill="rgb(0, 0, 0)" stroke="rgb(60, 60, 60)" stroke-width="1px" opacity="0.25"></line><line x1="1036.9379997253418" y1="0" x2="1036.9379997253418" y2="377.95999908447266" fill="rgb(0, 0, 0)" stroke="rgb(60, 60, 60)" stroke-width="1px" opacity="0.25"></line><line x1="1152.1533330281577" y1="0" x2="1152.1533330281577" y2="377.95999908447266" fill="rgb(0, 0, 0)" stroke="rgb(60, 60, 60)" stroke-width="1px" opacity="0.25"></line><line x1="1267.3686663309732" y1="0" x2="1267.3686663309732" y2="377.95999908447266" fill="rgb(0, 0, 0)" stroke="rgb(60, 60, 60)" stroke-width="1px" opacity="0.25"></line><line x1="1382.583999633789" y1="0" x2="1382.583999633789" y2="377.95999908447266" fill="rgb(0, 0, 0)" stroke="rgb(60, 60, 60)" stroke-width="1px" opacity="0.25"></line></g><g><line x1="0" y1="377.95999908447266" x2="1382.583999633789" y2="377.95999908447266" fill="rgb(0, 0, 0)" stroke="rgb(60, 60, 60)" stroke-width="1px" opacity="0.25"></line><line x1="0" y1="330.7149991989136" x2="1382.583999633789" y2="330.7149991989136" fill="rgb(0, 0, 0)" stroke="rgb(60, 60, 60)" stroke-width="1px" opacity="0.25"></line><line x1="0" y1="283.4699993133545" x2="1382.583999633789" y2="283.4699993133545" fill="rgb(0, 0, 0)" stroke="rgb(60, 60, 60)" stroke-width="1px" opacity="0.25"></line><line x1="0" y1="236.2249994277954" x2="1382.583999633789" y2="236.2249994277954" fill="rgb(0, 0, 0)" stroke="rgb(60, 60, 60)" stroke-width="1px" opacity="0.25"></line><line x1="0" y1="188.97999954223633" x2="1382.583999633789" y2="188.97999954223633" fill="rgb(0, 0, 0)" stroke="rgb(60, 60, 60)" stroke-width="1px" opacity="0.25"></line><line x1="0" y1="141.73499965667725" x2="1382.583999633789" y2="141.73499965667725" fill="rgb(0, 0, 0)" stroke="rgb(60, 60, 60)" stroke-width="1px" opacity="0.25"></line><line x1="0" y1="94.48999977111816" x2="1382.583999633789" y2="94.48999977111816" fill="rgb(0, 0, 0)" stroke="rgb(60, 60, 60)" stroke-width="1px" opacity="0.25"></line><line x1="0" y1="47.24499988555908" x2="1382.583999633789" y2="47.24499988555908" fill="rgb(0, 0, 0)" stroke="rgb(60, 60, 60)" stroke-width="1px" opacity="0.25"></line><line x1="0" y1="0" x2="1382.583999633789" y2="0" fill="rgb(0, 0, 0)" stroke="rgb(60, 60, 60)" stroke-width="1px" opacity="0.25"></line></g></g></g><g><g><line x1="0" y1="330.7149991989136" x2="1382.583999633789" y2="330.7149991989136" fill="rgb(0, 0, 0)" stroke="rgb(153, 153, 153)" stroke-width="1.5px"></line></g></g><g><g><line x1="115.21533330281575" y1="0" x2="115.21533330281575" y2="377.95999908447266" fill="rgb(0, 0, 0)" stroke="rgb(153, 153, 153)" stroke-width="1.5px"></line></g></g><g><g><g><g><g><path style="fill: none;" stroke="rgb(204, 51, 17)" stroke-width="2px" d="M115.21533330281575,160.48789655949454L138.2583999633789,202.1148435683614L161.30146662394205,224.60509922097236L184.34453328450522,238.89582451884755L207.38759994506836,248.80195067178292L230.4306666056315,256.0869454605546L253.47373326619464,261.8328188732801L276.5167999267578,266.536121039327L299.559866587321,270.4344737177697L322.6029332478841,273.80125649822253L345.64599990844727,276.46198489278845L368.68906656901044,278.9528783468718L391.73213322957355,281.21172936984567L414.7751998901367,283.16570803549655L437.81826655069983,284.9056254874156L460.861333211263,286.4844913888464L483.9043998718261,287.9979316198816L506.9474665323893,289.24891337332593L529.9905331929525,290.47699698258305L553.0335998535156,291.62982364243095L576.0766665140789,292.69453564582693L599.119733174642,293.6091107661263L622.1627998352051,294.6348623228481L645.2058664957682,295.5500978183305L668.2489331563314,296.343262187397L691.2919998168945,297.07765056935125L714.3350664774578,297.83947501606025L737.3781331380209,298.5430066263002L760.4211997985841,299.21321500346147L783.4642664591471,299.8227310201954L806.5073331197103,300.21228652656396L829.5503997802734,300.7710022137492L852.5934664408367,301.3531367643575L875.6365331013997,301.82802303030553L898.6795997619629,302.49367511859145L921.722666422526,302.9358374499347L944.7657330830892,303.3778256387999L967.8087997436522,303.88565885303456L990.8518664042155,304.2997498141302L1013.8949330647786,304.80714643764566L1036.9379997253418,305.2320672352222L1059.981066385905,305.65190358095157L1083.024133046468,306.02661384029886L1106.0671997070312,306.2734729080047L1129.1102663675945,306.53988684091075L1152.1533330281577,306.8781294827474L1175.1963996887207,307.21196338371635L1198.239466349284,307.5174987607346L1221.282533009847,307.8117984455361L1244.3255996704102,308.07718034344987" fill="none"></path></g><g><path style="fill: none;" stroke="rgb(0, 119, 187)" stroke-width="2px" d="M115.21533330281575,211.22805754498577L138.2583999633789,229.42671096617443L161.30146662394205,242.44284846608184L184.34453328450522,245.0049269708179L207.38759994506836,253.94260308571126L230.4306666056315,260.6243804624234L253.47373326619464,265.94630654228325L276.5167999267578,269.8241392588269L299.559866587321,273.40912239398995L322.6029332478841,275.9392357947711L345.64599990844727,278.4773764034154L368.68906656901044,280.2170485895896L391.73213322957355,281.8745841708385L414.7751998901367,283.66096019281554L437.81826655069983,284.87448305708375L460.861333211263,286.24079009808156L483.9043998718261,286.9036419688749L506.9474665323893,288.00033114565383L529.9905331929525,288.935869072288L553.0335998535156,289.85000338299426L576.0766665140789,290.3913355902916L599.119733174642,291.2277289978721L622.1627998352051,292.1853630962968L645.2058664957682,292.7953048679367L668.2489331563314,293.2781452880775L691.2919998168945,293.373865274848L714.3350664774578,293.7863890879413L737.3781331380209,294.5489933019329L760.4211997985841,295.1440733072328L783.4642664591471,295.7620111506831L806.5073331197103,296.01749583896697L829.5503997802734,296.59860997747023L852.5934664408367,297.07499478640216L875.6365331013997,297.59730730433523L898.6795997619629,298.0888021718869L921.722666422526,298.1627038501284L944.7657330830892,298.0569964200462L967.8087997436522,298.14014997880963L990.8518664042155,298.5225694601494L1013.8949330647786,299.2611232213722L1036.9379997253418,299.8410631155733L1059.981066385905,300.2261902443969L1083.024133046468,300.42868133578133L1106.0671997070312,300.5925058841256L1129.1102663675945,300.6383535880891L1152.1533330281577,301.31204514244143L1175.1963996887207,301.69951353347045L1198.239466349284,301.2473746106151L1221.282533009847,301.695209955051L1244.3255996704102,301.963806630993" fill="none"></path></g><g><path style="fill: none;" stroke="rgb(255, 112, 67)" stroke-width="2px" d="M115.21533330281575,66.46994308239897L138.2583999633789,93.79517329040988L161.30146662394205,123.11016516532902L184.34453328450522,146.12612389405726L207.38759994506836,164.33544100025026L230.4306666056315,178.58978178082995L253.47373326619464,190.10747253229462L276.5167999267578,199.5701748821795L299.559866587321,207.64873760997372L322.6029332478841,214.68515928166065L345.64599990844727,220.72465256167592L368.68906656901044,226.20584679441694L391.73213322957355,231.25102670049407L414.7751998901367,235.43131148577604L437.81826655069983,239.43043654399173L460.861333211263,243.12947149522702L483.9043998718261,246.54655406330298L506.9474665323893,249.74246883527996L529.9905331929525,252.8327795019543L553.0335998535156,255.3361216474944L576.0766665140789,257.9284240560691L599.119733174642,260.2068687677091L622.1627998352051,262.49280199573917L645.2058664957682,264.6274945423068L668.2489331563314,266.81505029832425L691.2919998168945,268.71942936799667L714.3350664774578,270.2734217257893L737.3781331380209,271.731624688798L760.4211997985841,273.4718543604091L783.4642664591471,274.79586019036174L806.5073331197103,276.23800510787544L829.5503997802734,277.4755582847201L852.5934664408367,278.7292640953599L875.6365331013997,279.8511730458317L898.6795997619629,281.30960793381246L921.722666422526,282.3354814432981L944.7657330830892,283.28931163617347L967.8087997436522,284.5317540061881L990.8518664042155,285.33908863284336L1013.8949330647786,286.28760434416273L1036.9379997253418,287.2818279358665L1059.981066385905,288.1390818806743L1083.024133046468,288.80996935453544L1106.0671997070312,289.82527387043103L1129.1102663675945,290.5541709226875L1152.1533330281577,290.89551535371277L1175.1963996887207,291.4415823584853L1198.239466349284,291.9636626687488L1221.282533009847,292.3151835148719L1244.3255996704102,293.30980821486446" fill="none"></path></g><g><path style="fill: none;" stroke="rgb(187, 187, 187)" stroke-width="2px" d="M115.21533330281575,91.16068926740292L138.2583999633789,121.24370108208359L161.30146662394205,143.43530260435583L184.34453328450522,161.17310398804602L207.38759994506836,176.06317571997215L230.4306666056315,187.2742740022189L253.47373326619464,197.28643525607882L276.5167999267578,205.08337097705063L299.559866587321,211.0934157384664L322.6029332478841,217.3304717660484L345.64599990844727,222.83294905739032L368.68906656901044,227.54103008902032L391.73213322957355,231.02416721607094L414.7751998901367,234.3634347957789L437.81826655069983,237.48053953719042L460.861333211263,239.3477181149642L483.9043998718261,240.90849303048972L506.9474665323893,243.55401516273102L529.9905331929525,245.89761278354683L553.0335998535156,248.36734266575664L576.0766665140789,250.7243452451928L599.119733174642,250.74294251299528L622.1627998352051,252.7120038782839L645.2058664957682,254.76810754819144L668.2489331563314,254.994802570671L691.2919998168945,255.9121479546767L714.3350664774578,257.4944651633908L737.3781331380209,258.92776131460687L760.4211997985841,259.75088306079465L783.4642664591471,260.6077125919718L806.5073331197103,262.21079835371876L829.5503997802734,263.4193969718545L852.5934664408367,264.52496716348276L875.6365331013997,265.0416375074267L898.6795997619629,265.4688525209914L921.722666422526,266.45150996583124L944.7657330830892,266.4905980945241L967.8087997436522,267.67193122546007L990.8518664042155,268.81115542791287L1013.8949330647786,269.24060389273814L1036.9379997253418,270.00394499467757L1059.981066385905,270.457158544161L1083.024133046468,271.04921595556027L1106.0671997070312,271.319401328385L1129.1102663675945,271.69663532315764L1152.1533330281577,272.61373919996385L1175.1963996887207,272.3655166203835L1198.239466349284,272.83705865754746L1221.282533009847,273.31396981931323L1244.3255996704102,274.4620119168146" fill="none"></path></g><g><path style="fill: none;" stroke="rgb(0, 153, 136)" stroke-width="2px" d="M115.21533330281575,227.07719209216594L138.2583999633789,262.6369893786095L161.30146662394205,283.279375673133L184.34453328450522,295.8093447086606L207.38759994506836,304.0088061351925L230.4306666056315,309.5891553026615L253.47373326619464,313.5686475972836L276.5167999267578,316.4895215418688L299.559866587321,318.74874151541604L322.6029332478841,320.42612383874047L345.64599990844727,321.6960740196473L368.68906656901044,322.716726510224L391.73213322957355,323.53352541810153L414.7751998901367,324.16715460721286L437.81826655069983,324.7460133045775L460.861333211263,325.2143873450005L483.9043998718261,325.59292331260497L506.9474665323893,325.9656901600877L529.9905331929525,326.20776674026297L553.0335998535156,326.5233476833119L576.0766665140789,326.72824743144304L599.119733174642,326.9019084207644L622.1627998352051,327.0631137924485L645.2058664957682,327.2738434362933L668.2489331563314,327.41741763209143L691.2919998168945,327.5719410429796L714.3350664774578,327.6622232274966L737.3781331380209,327.80236111559975L760.4211997985841,327.88057195849257L783.4642664591471,328.04114165173814L806.5073331197103,327.9138765348402L829.5503997802734,328.0868596577934L852.5934664408367,328.2570883476921L875.6365331013997,328.3294389874638L898.6795997619629,328.44113153804267L921.722666422526,328.4869567083933L944.7657330830892,328.48832859304923L967.8087997436522,328.5983040492556L990.8518664042155,328.6357253133528L1013.8949330647786,328.7199949238311L1036.9379997253418,328.6828054069717L1059.981066385905,328.78969959144547L1083.024133046468,328.86140957773245L1106.0671997070312,328.84840115843497L1129.1102663675945,328.9169496219578L1152.1533330281577,328.9911890295453L1175.1963996887207,328.9583700320865L1198.239466349284,329.0643960582895L1221.282533009847,329.10253474510273L1244.3255996704102,329.14540630262206" fill="none"></path></g><g><path style="fill: none;" stroke="rgb(238, 51, 119)" stroke-width="2px" d="M115.21533330281575,266.4378293800935L138.2583999633789,287.4762421711677L161.30146662394205,299.0852523794323L184.34453328450522,306.6218671813283L207.38759994506836,311.62689976555737L230.4306666056315,314.9788948145927L253.47373326619464,317.321564836679L276.5167999267578,319.2962905927167L299.559866587321,320.36022601730645L322.6029332478841,321.701334537689L345.64599990844727,322.6859991766304L368.68906656901044,323.41994126796595L391.73213322957355,324.2596824970195L414.7751998901367,325.08590609404274L437.81826655069983,324.5221063926481L460.861333211263,324.9895187860887L483.9043998718261,325.7453429393878L506.9474665323893,325.96081009779414L529.9905331929525,326.47635047137373L553.0335998535156,326.94725831582036L576.0766665140789,327.0158881799583L599.119733174642,326.93353694899247L622.1627998352051,327.2431935591922L645.2058664957682,327.4646129003169L668.2489331563314,327.7615319265848L691.2919998168945,327.8567941285634L714.3350664774578,327.5633541554821L737.3781331380209,327.74617408815686L760.4211997985841,327.87760458805L783.4642664591471,328.01228912007684L806.5073331197103,327.9058095889383L829.5503997802734,328.0109124655024L852.5934664408367,328.02740232574183L875.6365331013997,327.91185054791714L898.6795997619629,328.1082142192444L921.722666422526,327.81955166139096L944.7657330830892,328.1968210810647L967.8087997436522,328.38492971582616L990.8518664042155,328.5979535699083L1013.8949330647786,328.24865468623216L1036.9379997253418,328.47683161099474L1059.981066385905,328.6643154481655L1083.024133046468,328.6744452635633L1106.0671997070312,328.5530921002112L1129.1102663675945,328.60802106220774L1152.1533330281577,328.5452288445009L1175.1963996887207,328.77846112893775L1198.239466349284,328.90942888058197L1221.282533009847,328.7260254153526L1244.3255996704102,328.8746728875749" fill="none"></path></g></g></g></g><g opacity="0.2"><g><g><g><path style="fill: none;" stroke="rgb(204, 51, 17)" stroke-width="2px" d="M115.21533330281575,160.48789655949454L138.2583999633789,227.09101177368152L161.30146662394205,246.19574464747885L184.34453328450522,255.70171746914872L207.38759994506836,261.73538897705544L230.4306666056315,266.1647158515497L253.47373326619464,270.0495097874521L276.5167999267578,273.39358074912417L299.559866587321,276.1837867024485L322.6029332478841,278.8005365488626L345.64599990844727,280.4289448739282L368.68906656901044,282.67566319581755L391.73213322957355,284.5926303637968L414.7751998901367,286.09284798635304L437.81826655069983,287.5134564576433L460.861333211263,288.8516767024334L483.9043998718261,290.26745152924997L506.9474665323893,291.12506837936064L529.9905331929525,292.3189353102914L553.0335998535156,293.35895825927975L576.0766665140789,294.29154525958427L599.119733174642,294.9809433520916L622.1627998352051,296.17346940625555L645.2058664957682,296.9229402197172L668.2489331563314,297.53300310352387L691.2919998168945,298.1792300104516L714.3350664774578,298.9822097368238L737.3781331380209,299.5983029615735L760.4211997985841,300.2185269518467L783.4642664591471,300.7370047084261L806.5073331197103,300.7966196569359L829.5503997802734,301.60907563336144L852.5934664408367,302.2263385207747L875.6365331013997,302.5403523952124L898.6795997619629,303.49215322241275L921.722666422526,303.59908093554793L944.7657330830892,304.0408079152595L967.8087997436522,304.6474086696724L990.8518664042155,304.92088625346736L1013.8949330647786,305.568241371223L1036.9379997253418,305.86944843073513L1059.981066385905,306.2816580990405L1083.024133046468,306.5886792290494L1106.0671997070312,306.6437615094564L1129.1102663675945,306.9395077402006L1152.1533330281577,307.38549344544964L1175.1963996887207,307.7127142351386L1198.239466349284,307.9758018262448L1221.282533009847,308.2532479727285L1244.3255996704102,308.47525319031513" fill="none"></path></g><g><path style="fill: none;" stroke="rgb(0, 119, 187)" stroke-width="2px" d="M115.21533330281575,211.22805754498577L138.2583999633789,240.3459030188876L161.30146662394205,254.93834046599295L184.34453328450522,248.01793129238752L207.38759994506836,265.6116330213159L230.4306666056315,269.86768401427196L253.47373326619464,273.5567459873001L276.5167999267578,275.47805658674156L299.559866587321,278.69627617123126L322.6029332478841,279.696159325395L345.64599990844727,282.26156656786856L368.68906656901044,282.8170896496376L391.73213322957355,284.3554754014501L414.7751998901367,286.33702452918806L437.81826655069983,286.69334090291295L460.861333211263,288.28928703399583L483.9043998718261,287.897639278368L506.9474665323893,289.6450864615589L529.9905331929525,290.33903344245243L553.0335998535156,291.22112129355673L576.0766665140789,291.2033042132929L599.119733174642,292.48229158736154L622.1627998352051,293.621795337119L645.2058664957682,293.7102103000549L668.2489331563314,294.00240248646566L691.2919998168945,293.5174448468017L714.3350664774578,294.4051737520458L737.3781331380209,295.69289845214314L760.4211997985841,296.03669276703L783.4642664591471,296.68891757433374L806.5073331197103,296.4007227866713L829.5503997802734,297.47028106960295L852.5934664408367,297.78957194292923L875.6365331013997,298.3807760438226L898.6795997619629,298.8260444520916L921.722666422526,298.273556365585L944.7657330830892,297.89843527655836L967.8087997436522,298.2648803161828L990.8518664042155,299.09619868002915L1013.8949330647786,300.36895386073826L1036.9379997253418,300.7109729557121L1059.981066385905,300.80388093716886L1083.024133046468,300.73241797271186L1106.0671997070312,300.8382427065711L1129.1102663675945,300.7071251440225L1152.1533330281577,302.3225824738649L1175.1963996887207,302.2807161199777L1198.239466349284,300.5691662263574L1221.282533009847,302.3669629716898L1244.3255996704102,302.3667016449006" fill="none"></path></g><g><path style="fill: none;" stroke="rgb(255, 112, 67)" stroke-width="2px" d="M115.21533330281575,66.46994308239897L138.2583999633789,110.1903114152164L161.30146662394205,151.25255736525142L184.34453328450522,173.19289135904168L207.38759994506836,188.10952541409586L230.4306666056315,198.3086666430527L253.47373326619464,206.57795458994107L276.5167999267578,213.36688575025414L299.559866587321,219.56304845344596L322.6029332478841,225.13342541138846L345.64599990844727,229.7291147221558L368.68906656901044,234.39780972656342L391.73213322957355,238.80232317185758L414.7751998901367,241.6935490506269L437.81826655069983,245.42442330993072L460.861333211263,248.6754150760427L483.9043998718261,251.67073192059382L506.9474665323893,254.53552955083097L529.9905331929525,257.4677747242397L553.0335998535156,259.09090605041666L576.0766665140789,261.81673550090625L599.119733174642,263.62446086197536L622.1627998352051,265.9216567060203L645.2058664957682,267.82950807468995L668.2489331563314,270.09636838414036L691.2919998168945,271.5759898511984L714.3350664774578,272.6044062862378L737.3781331380209,273.9189268946259L760.4211997985841,276.0821972648283L783.4642664591471,276.7818682035327L806.5073331197103,278.4012220059151L829.5503997802734,279.33188780375536L852.5934664408367,280.6098226616523L875.6365331013997,281.5340363911793L898.6795997619629,283.49726020310476L921.722666422526,283.8742916810733L944.7657330830892,284.72005691072934L967.8087997436522,286.3954175496765L990.8518664042155,286.55009056832955L1013.8949330647786,287.710377907972L1036.9379997253418,288.7731633214285L1059.981066385905,289.4249627968547L1083.024133046468,289.8163005648429L1106.0671997070312,291.34823064383477L1129.1102663675945,291.6475165008826L1152.1533330281577,291.4075320001975L1175.1963996887207,292.260682865593L1198.239466349284,292.74678313411465L1221.282533009847,292.84246478404464L1244.3255996704102,294.80174526483336" fill="none"></path></g><g><path style="fill: none;" stroke="rgb(187, 187, 187)" stroke-width="2px" d="M115.21533330281575,91.16068926740292L138.2583999633789,139.29350817089204L161.30146662394205,164.7392400657371L184.34453328450522,182.0327584152657L207.38759994506836,195.5036533731749L230.4306666056315,202.78325892194786L253.47373326619464,211.60398604367845L276.5167999267578,216.45137810881047L299.559866587321,219.95706437046027L322.6029332478841,226.59177307555L345.64599990844727,231.03675793035305L368.68906656901044,234.57753046740007L391.73213322957355,236.23749985958887L414.7751998901367,239.36579419252638L437.81826655069983,242.15253260969578L460.861333211263,242.14716910262868L483.9043998718261,243.2489949361414L506.9474665323893,247.52162666331017L529.9905331929525,249.4126521912613L553.0335998535156,252.0717117459775L576.0766665140789,254.2597198507239L599.119733174642,250.770837802748L622.1627998352051,255.66555705053514L645.2058664957682,257.85223869654453L668.2489331563314,255.3348434931392L691.2919998168945,257.2881621186262L714.3350664774578,259.8679369277459L737.3781331380209,261.0777033409837L760.4211997985841,260.98556492186486L783.4642664591471,261.89295641518083L806.5073331197103,264.61542646473856L829.5503997802734,265.23229465858736L852.5934664408367,266.1833223189424L875.6365331013997,265.8166429863345L898.6795997619629,266.1096750229782L921.722666422526,267.9254961077521L944.7657330830892,266.5492302869586L967.8087997436522,269.44393091089773L990.8518664042155,270.51999172524677L1013.8949330647786,269.88477658854083L1036.9379997253418,271.14895664605604L1059.981066385905,271.13697886784104L1083.024133046468,271.9373020722318L1106.0671997070312,271.7246793875051L1129.1102663675945,272.2624863152185L1152.1533330281577,273.98939501503014L1175.1963996887207,271.9931827510362L1198.239466349284,273.54437171326697L1221.282533009847,274.02933656194574L1244.3255996704102,276.1840750630435" fill="none"></path></g><g><path style="fill: none;" stroke="rgb(0, 153, 136)" stroke-width="2px" d="M115.21533330281575,227.07719209216594L138.2583999633789,283.97286775047564L161.30146662394205,303.0960665158756L184.34453328450522,310.5445882944411L207.38759994506836,314.71402297367257L230.4306666056315,317.30878712697137L253.47373326619464,319.2593852504699L276.5167999267578,320.7481837934639L299.559866587321,322.0806521455105L322.6029332478841,322.9168411000318L345.64599990844727,323.58948093633506L368.68906656901044,324.24215090030737L391.73213322957355,324.75605678976575L414.7751998901367,325.11635704533603L437.81826655069983,325.6136209239552L460.861333211263,325.91661807197346L483.9043998718261,326.1605670802765L506.9474665323893,326.52474578584963L529.9905331929525,326.5708447325954L553.0335998535156,326.99669025253706L576.0766665140789,327.03558581645063L599.119733174642,327.16239419035765L622.1627998352051,327.30491866725583L645.2058664957682,327.589935405767L668.2489331563314,327.63277790532464L691.2919998168945,327.80372550033997L714.3350664774578,327.79764627326483L737.3781331380209,328.0125677326098L760.4211997985841,327.99788815078864L783.4642664591471,328.2819961028621L806.5073331197103,327.7229789016958L829.5503997802734,328.34633430780536L852.5934664408367,328.5124313622183L875.6365331013997,328.43796494193896L898.6795997619629,328.6086703591108L921.722666422526,328.5556944627376L944.7657330830892,328.49038642001193L967.8087997436522,328.76326723254425L990.8518664042155,328.6918572092902L1013.8949330647786,328.8463993392669L1036.9379997253418,328.62702113175715L1059.981066385905,328.9500408680276L1083.024133046468,328.9689745571111L1106.0671997070312,328.8288885294944L1129.1102663675945,329.0197723172243L1152.1533330281577,329.10254814091496L1175.1963996887207,328.90914153590137L1198.239466349284,329.2234350975881L1221.282533009847,329.15974277532126L1244.3255996704102,329.20971363890015" fill="none"></path></g><g><path style="fill: none;" stroke="rgb(238, 51, 119)" stroke-width="2px" d="M115.21533330281575,266.4378293800935L138.2583999633789,300.0992898458122L161.30146662394205,310.22990217936626L184.34453328450522,315.484926188358L207.38759994506836,318.16147030752694L230.4306666056315,319.61591068562615L253.47373326619464,320.67162045098274L276.5167999267578,322.1754597023869L299.559866587321,321.9293241097595L322.6029332478841,323.6927243923056L345.64599990844727,324.15406529923865L368.68906656901044,324.51686032451914L391.73213322957355,325.5165524397886L414.7751998901367,326.32362283153907L437.81826655069983,323.6770695659409L460.861333211263,325.6903077208161L483.9043998718261,326.8787593298854L506.9474665323893,326.2839561283156L529.9905331929525,327.24958249435616L553.0335998535156,327.6535770396479L576.0766665140789,327.1188292123404L599.119733174642,326.810012812346L622.1627998352051,327.7076723608622L645.2058664957682,327.79673928908085L668.2489331563314,328.20690835561317L691.2919998168945,327.9996870252817L714.3350664774578,327.1231949466925L737.3781331380209,328.02040370649735L760.4211997985841,328.07475021682365L783.4642664591471,328.21431584367906L806.5073331197103,327.7460903275403L829.5503997802734,328.16856675943643L852.5934664408367,328.05213711413245L875.6365331013997,327.7385228894568L898.6795997619629,328.4027597177963L921.722666422526,327.3865578320542L944.7657330830892,328.76272520473833L967.8087997436522,328.6670926662222L990.8518664042155,328.917489349845L1013.8949330647786,327.72470636188524L1036.9379997253418,328.81909699768113L1059.981066385905,328.9455412036961L1083.024133046468,328.68963998665265L1106.0671997070312,328.37106235523555L1129.1102663675945,328.6904145051883L1152.1533330281577,328.4510405179504L1175.1963996887207,329.1283095555712L1198.239466349284,329.10588050804097L1221.282533009847,328.45092021751464L1244.3255996704102,329.0976440959053" fill="none"></path></g></g></g></g></g></g><g transform="translate(51, 377)" clip-path="url(#clip_1)"><clipPath id="clip_1"><rect width="1382" height="22"></rect></clipPath><g><g><line x1="0" y1="0" x2="0" y2="5" style="visibility: inherit;" fill="rgb(0, 0, 0)" stroke="rgb(204, 204, 204)" stroke-width="1px"></line><line x1="115.21533330281575" y1="0" x2="115.21533330281575" y2="5" style="visibility: inherit;" fill="rgb(0, 0, 0)" stroke="rgb(204, 204, 204)" stroke-width="1px"></line><line x1="230.4306666056315" y1="0" x2="230.4306666056315" y2="5" style="visibility: inherit;" fill="rgb(0, 0, 0)" stroke="rgb(204, 204, 204)" stroke-width="1px"></line><line x1="345.64599990844727" y1="0" x2="345.64599990844727" y2="5" style="visibility: inherit;" fill="rgb(0, 0, 0)" stroke="rgb(204, 204, 204)" stroke-width="1px"></line><line x1="460.861333211263" y1="0" x2="460.861333211263" y2="5" style="visibility: inherit;" fill="rgb(0, 0, 0)" stroke="rgb(204, 204, 204)" stroke-width="1px"></line><line x1="576.0766665140789" y1="0" x2="576.0766665140789" y2="5" style="visibility: inherit;" fill="rgb(0, 0, 0)" stroke="rgb(204, 204, 204)" stroke-width="1px"></line><line x1="691.2919998168945" y1="0" x2="691.2919998168945" y2="5" style="visibility: inherit;" fill="rgb(0, 0, 0)" stroke="rgb(204, 204, 204)" stroke-width="1px"></line><line x1="806.5073331197103" y1="0" x2="806.5073331197103" y2="5" style="visibility: inherit;" fill="rgb(0, 0, 0)" stroke="rgb(204, 204, 204)" stroke-width="1px"></line><line x1="921.722666422526" y1="0" x2="921.722666422526" y2="5" style="visibility: inherit;" fill="rgb(0, 0, 0)" stroke="rgb(204, 204, 204)" stroke-width="1px"></line><line x1="1036.9379997253418" y1="0" x2="1036.9379997253418" y2="5" style="visibility: inherit;" fill="rgb(0, 0, 0)" stroke="rgb(204, 204, 204)" stroke-width="1px"></line><line x1="1152.1533330281577" y1="0" x2="1152.1533330281577" y2="5" style="visibility: inherit;" fill="rgb(0, 0, 0)" stroke="rgb(204, 204, 204)" stroke-width="1px"></line><line x1="1267.3686663309732" y1="0" x2="1267.3686663309732" y2="5" style="visibility: inherit;" fill="rgb(0, 0, 0)" stroke="rgb(204, 204, 204)" stroke-width="1px"></line><line x1="1382.583999633789" y1="0" x2="1382.583999633789" y2="5" style="visibility: inherit;" fill="rgb(0, 0, 0)" stroke="rgb(204, 204, 204)" stroke-width="1px"></line></g><g transform="translate(0, 8)"><text style="text-anchor: middle; visibility: hidden; font-family: &quot;Helvetica Neue&quot;, sans-serif; font-size: 12px; font-weight: 200;" x="0" y="0" dx="0em" dy="0.95em" fill="rgb(50, 49, 63)" stroke="none" stroke-width="1px">-5</text><text style="text-anchor: middle; visibility: inherit; font-family: &quot;Helvetica Neue&quot;, sans-serif; font-size: 12px; font-weight: 200;" x="115.21533330281575" y="0" dx="0em" dy="0.95em" fill="rgb(50, 49, 63)" stroke="none" stroke-width="1px">0</text><text style="text-anchor: middle; visibility: inherit; font-family: &quot;Helvetica Neue&quot;, sans-serif; font-size: 12px; font-weight: 200;" x="230.4306666056315" y="0" dx="0em" dy="0.95em" fill="rgb(50, 49, 63)" stroke="none" stroke-width="1px">5</text><text style="text-anchor: middle; visibility: inherit; font-family: &quot;Helvetica Neue&quot;, sans-serif; font-size: 12px; font-weight: 200;" x="345.64599990844727" y="0" dx="0em" dy="0.95em" fill="rgb(50, 49, 63)" stroke="none" stroke-width="1px">10</text><text style="text-anchor: middle; visibility: inherit; font-family: &quot;Helvetica Neue&quot;, sans-serif; font-size: 12px; font-weight: 200;" x="460.861333211263" y="0" dx="0em" dy="0.95em" fill="rgb(50, 49, 63)" stroke="none" stroke-width="1px">15</text><text style="text-anchor: middle; visibility: inherit; font-family: &quot;Helvetica Neue&quot;, sans-serif; font-size: 12px; font-weight: 200;" x="576.0766665140789" y="0" dx="0em" dy="0.95em" fill="rgb(50, 49, 63)" stroke="none" stroke-width="1px">20</text><text style="text-anchor: middle; visibility: inherit; font-family: &quot;Helvetica Neue&quot;, sans-serif; font-size: 12px; font-weight: 200;" x="691.2919998168945" y="0" dx="0em" dy="0.95em" fill="rgb(50, 49, 63)" stroke="none" stroke-width="1px">25</text><text style="text-anchor: middle; visibility: inherit; font-family: &quot;Helvetica Neue&quot;, sans-serif; font-size: 12px; font-weight: 200;" x="806.5073331197103" y="0" dx="0em" dy="0.95em" fill="rgb(50, 49, 63)" stroke="none" stroke-width="1px">30</text><text style="text-anchor: middle; visibility: inherit; font-family: &quot;Helvetica Neue&quot;, sans-serif; font-size: 12px; font-weight: 200;" x="921.722666422526" y="0" dx="0em" dy="0.95em" fill="rgb(50, 49, 63)" stroke="none" stroke-width="1px">35</text><text style="text-anchor: middle; visibility: inherit; font-family: &quot;Helvetica Neue&quot;, sans-serif; font-size: 12px; font-weight: 200;" x="1036.9379997253418" y="0" dx="0em" dy="0.95em" fill="rgb(50, 49, 63)" stroke="none" stroke-width="1px">40</text><text style="text-anchor: middle; visibility: inherit; font-family: &quot;Helvetica Neue&quot;, sans-serif; font-size: 12px; font-weight: 200;" x="1152.1533330281577" y="0" dx="0em" dy="0.95em" fill="rgb(50, 49, 63)" stroke="none" stroke-width="1px">45</text><text style="text-anchor: middle; visibility: inherit; font-family: &quot;Helvetica Neue&quot;, sans-serif; font-size: 12px; font-weight: 200;" x="1267.3686663309732" y="0" dx="0em" dy="0.95em" fill="rgb(50, 49, 63)" stroke="none" stroke-width="1px">50</text><text style="text-anchor: middle; visibility: hidden; font-family: &quot;Helvetica Neue&quot;, sans-serif; font-size: 12px; font-weight: 200;" x="1382.583999633789" y="0" dx="0em" dy="0.95em" fill="rgb(50, 49, 63)" stroke="none" stroke-width="1px">55</text></g><line x1="0" y1="0" x2="1382.583999633789" y2="0" fill="rgb(0, 0, 0)" stroke="rgb(204, 204, 204)" stroke-width="1px"></line></g></g></g></g></svg>