<svg viewBox="0 0 1434 400" xmlns="http://www.w3.org/2000/svg"><g><g><g><g><g><line x1="51.41600036621094" y1="377.95999908447266" x2="46.41600036621094" y2="377.95999908447266" style="visibility: inherit;" fill="rgb(0, 0, 0)" stroke="rgb(204, 204, 204)" stroke-width="1px"></line><line x1="51.41600036621094" y1="330.7149991989136" x2="46.41600036621094" y2="330.7149991989136" style="visibility: inherit;" fill="rgb(0, 0, 0)" stroke="rgb(204, 204, 204)" stroke-width="1px"></line><line x1="51.41600036621094" y1="283.4699993133545" x2="46.41600036621094" y2="283.4699993133545" style="visibility: inherit;" fill="rgb(0, 0, 0)" stroke="rgb(204, 204, 204)" stroke-width="1px"></line><line x1="51.41600036621094" y1="236.22499942779538" x2="46.41600036621094" y2="236.22499942779538" style="visibility: inherit;" fill="rgb(0, 0, 0)" stroke="rgb(204, 204, 204)" stroke-width="1px"></line><line x1="51.41600036621094" y1="188.9799995422363" x2="46.41600036621094" y2="188.9799995422363" style="visibility: inherit;" fill="rgb(0, 0, 0)" stroke="rgb(204, 204, 204)" stroke-width="1px"></line><line x1="51.41600036621094" y1="141.73499965667725" x2="46.41600036621094" y2="141.73499965667725" style="visibility: inherit;" fill="rgb(0, 0, 0)" stroke="rgb(204, 204, 204)" stroke-width="1px"></line><line x1="51.41600036621094" y1="94.48999977111816" x2="46.41600036621094" y2="94.48999977111816" style="visibility: inherit;" fill="rgb(0, 0, 0)" stroke="rgb(204, 204, 204)" stroke-width="1px"></line><line x1="51.41600036621094" y1="47.24499988555908" x2="46.41600036621094" y2="47.24499988555908" style="visibility: inherit;" fill="rgb(0, 0, 0)" stroke="rgb(204, 204, 204)" stroke-width="1px"></line><line x1="51.41600036621094" y1="0" x2="46.41600036621094" y2="0" style="visibility: inherit;" fill="rgb(0, 0, 0)" stroke="rgb(204, 204, 204)" stroke-width="1px"></line></g><g transform="translate(41.41600036621094, 0)"><text style="text-anchor: end; visibility: hidden; font-family: &quot;Helvetica Neue&quot;, sans-serif; font-size: 12px; font-weight: 200;" x="0" y="377.95999908447266" dx="0em" dy="0.3em" fill="rgb(50, 49, 63)" stroke="none" stroke-width="1px">-0.1</text><text style="text-anchor: end; visibility: inherit; font-family: &quot;Helvetica Neue&quot;, sans-serif; font-size: 12px; font-weight: 200;" x="0" y="330.7149991989136" dx="0em" dy="0.3em" fill="rgb(50, 49, 63)" stroke="none" stroke-width="1px">0</text><text style="text-anchor: end; visibility: inherit; font-family: &quot;Helvetica Neue&quot;, sans-serif; font-size: 12px; font-weight: 200;" x="0" y="283.4699993133545" dx="0em" dy="0.3em" fill="rgb(50, 49, 63)" stroke="none" stroke-width="1px">0.1</text><text style="text-anchor: end; visibility: inherit; font-family: &quot;Helvetica Neue&quot;, sans-serif; font-size: 12px; font-weight: 200;" x="0" y="236.22499942779538" dx="0em" dy="0.3em" fill="rgb(50, 49, 63)" stroke="none" stroke-width="1px">0.2</text><text style="text-anchor: end; visibility: inherit; font-family: &quot;Helvetica Neue&quot;, sans-serif; font-size: 12px; font-weight: 200;" x="0" y="188.9799995422363" dx="0em" dy="0.3em" fill="rgb(50, 49, 63)" stroke="none" stroke-width="1px">0.3</text><text style="text-anchor: end; visibility: inherit; font-family: &quot;Helvetica Neue&quot;, sans-serif; font-size: 12px; font-weight: 200;" x="0" y="141.73499965667725" dx="0em" dy="0.3em" fill="rgb(50, 49, 63)" stroke="none" stroke-width="1px">0.4</text><text style="text-anchor: end; visibility: inherit; font-family: &quot;Helvetica Neue&quot;, sans-serif; font-size: 12px; font-weight: 200;" x="0" y="94.48999977111816" dx="0em" dy="0.3em" fill="rgb(50, 49, 63)" stroke="none" stroke-width="1px">0.5</text><text style="text-anchor: end; visibility: inherit; font-family: &quot;Helvetica Neue&quot;, sans-serif; font-size: 12px; font-weight: 200;" x="0" y="47.24499988555908" dx="0em" dy="0.3em" fill="rgb(50, 49, 63)" stroke="none" stroke-width="1px">0.6</text><text style="text-anchor: end; visibility: hidden; font-family: &quot;Helvetica Neue&quot;, sans-serif; font-size: 12px; font-weight: 200;" x="0" y="0" dx="0em" dy="0.3em" fill="rgb(50, 49, 63)" stroke="none" stroke-width="1px">0.7</text></g><line x1="51.41600036621094" y1="0" x2="51.41600036621094" y2="377.95999908447266" fill="rgb(0, 0, 0)" stroke="rgb(204, 204, 204)" stroke-width="1px"></line></g></g><g transform="translate(51, 0)" clip-path="url(#clip_0)"><clipPath id="clip_0"><rect width="1382" height="377"></rect></clipPath><g><g><g><line x1="0" y1="0" x2="0" y2="377.95999908447266" fill="rgb(0, 0, 0)" stroke="rgb(60, 60, 60)" stroke-width="1px" opacity="0.25"></line><line x1="115.21533330281575" y1="0" x2="115.21533330281575" y2="377.95999908447266" fill="rgb(0, 0, 0)" stroke="rgb(60, 60, 60)" stroke-width="1px" opacity="0.25"></line><line x1="230.4306666056315" y1="0" x2="230.4306666056315" y2="377.95999908447266" fill="rgb(0, 0, 0)" stroke="rgb(60, 60, 60)" stroke-width="1px" opacity="0.25"></line><line x1="345.64599990844727" y1="0" x2="345.64599990844727" y2="377.95999908447266" fill="rgb(0, 0, 0)" stroke="rgb(60, 60, 60)" stroke-width="1px" opacity="0.25"></line><line x1="460.861333211263" y1="0" x2="460.861333211263" y2="377.95999908447266" fill="rgb(0, 0, 0)" stroke="rgb(60, 60, 60)" stroke-width="1px" opacity="0.25"></line><line x1="576.0766665140789" y1="0" x2="576.0766665140789" y2="377.95999908447266" fill="rgb(0, 0, 0)" stroke="rgb(60, 60, 60)" stroke-width="1px" opacity="0.25"></line><line x1="691.2919998168945" y1="0" x2="691.2919998168945" y2="377.95999908447266" fill="rgb(0, 0, 0)" stroke="rgb(60, 60, 60)" stroke-width="1px" opacity="0.25"></line><line x1="806.5073331197103" y1="0" x2="806.5073331197103" y2="377.95999908447266" fill="rgb(0, 0, 0)" stroke="rgb(60, 60, 60)" stroke-width="1px" opacity="0.25"></line><line x1="921.722666422526" y1="0" x2="921.722666422526" y2="377.95999908447266" fill="rgb(0, 0, 0)" stroke="rgb(60, 60, 60)" stroke-width="1px" opacity="0.25"></line><line x1="1036.9379997253418" y1="0" x2="1036.9379997253418" y2="377.95999908447266" fill="rgb(0, 0, 0)" stroke="rgb(60, 60, 60)" stroke-width="1px" opacity="0.25"></line><line x1="1152.1533330281577" y1="0" x2="1152.1533330281577" y2="377.95999908447266" fill="rgb(0, 0, 0)" stroke="rgb(60, 60, 60)" stroke-width="1px" opacity="0.25"></line><line x1="1267.3686663309732" y1="0" x2="1267.3686663309732" y2="377.95999908447266" fill="rgb(0, 0, 0)" stroke="rgb(60, 60, 60)" stroke-width="1px" opacity="0.25"></line><line x1="1382.583999633789" y1="0" x2="1382.583999633789" y2="377.95999908447266" fill="rgb(0, 0, 0)" stroke="rgb(60, 60, 60)" stroke-width="1px" opacity="0.25"></line></g><g><line x1="0" y1="377.95999908447266" x2="1382.583999633789" y2="377.95999908447266" fill="rgb(0, 0, 0)" stroke="rgb(60, 60, 60)" stroke-width="1px" opacity="0.25"></line><line x1="0" y1="330.7149991989136" x2="1382.583999633789" y2="330.7149991989136" fill="rgb(0, 0, 0)" stroke="rgb(60, 60, 60)" stroke-width="1px" opacity="0.25"></line><line x1="0" y1="283.4699993133545" x2="1382.583999633789" y2="283.4699993133545" fill="rgb(0, 0, 0)" stroke="rgb(60, 60, 60)" stroke-width="1px" opacity="0.25"></line><line x1="0" y1="236.22499942779538" x2="1382.583999633789" y2="236.22499942779538" fill="rgb(0, 0, 0)" stroke="rgb(60, 60, 60)" stroke-width="1px" opacity="0.25"></line><line x1="0" y1="188.9799995422363" x2="1382.583999633789" y2="188.9799995422363" fill="rgb(0, 0, 0)" stroke="rgb(60, 60, 60)" stroke-width="1px" opacity="0.25"></line><line x1="0" y1="141.73499965667725" x2="1382.583999633789" y2="141.73499965667725" fill="rgb(0, 0, 0)" stroke="rgb(60, 60, 60)" stroke-width="1px" opacity="0.25"></line><line x1="0" y1="94.48999977111816" x2="1382.583999633789" y2="94.48999977111816" fill="rgb(0, 0, 0)" stroke="rgb(60, 60, 60)" stroke-width="1px" opacity="0.25"></line><line x1="0" y1="47.24499988555908" x2="1382.583999633789" y2="47.24499988555908" fill="rgb(0, 0, 0)" stroke="rgb(60, 60, 60)" stroke-width="1px" opacity="0.25"></line><line x1="0" y1="0" x2="1382.583999633789" y2="0" fill="rgb(0, 0, 0)" stroke="rgb(60, 60, 60)" stroke-width="1px" opacity="0.25"></line></g></g></g><g><g><line x1="0" y1="330.7149991989136" x2="1382.583999633789" y2="330.7149991989136" fill="rgb(0, 0, 0)" stroke="rgb(153, 153, 153)" stroke-width="1.5px"></line></g></g><g><g><line x1="115.21533330281575" y1="0" x2="115.21533330281575" y2="377.95999908447266" fill="rgb(0, 0, 0)" stroke="rgb(153, 153, 153)" stroke-width="1.5px"></line></g></g><g><g><g><g><g><path style="fill: none;" stroke="rgb(204, 51, 17)" stroke-width="2px" d="M115.21533330281575,153.8931693888248L138.2583999633789,175.4920890000843L161.30146662394205,187.9396472612652L184.34453328450522,197.0281409327942L207.38759994506836,204.14659511856084L230.4306666056315,210.03863647798696L253.47373326619464,215.15079223828596L276.5167999267578,219.43250389511238L299.559866587321,223.27575118901518L322.6029332478841,226.6610103699565L345.64599990844727,229.750192994612L368.68906656901044,232.54769088238479L391.73213322957355,235.22307635022878L414.7751998901367,237.5138613937665L437.81826655069983,239.7161448130354L460.861333211263,241.80831874402034L483.9043998718261,243.62856435861474L506.9474665323893,245.439883933426L529.9905331929525,247.13204789115073L553.0335998535156,248.6336418508363L576.0766665140789,250.1996909671866L599.119733174642,251.49777706499302L622.1627998352051,252.78045587494057L645.2058664957682,254.02047247167252L668.2489331563314,255.25925785819774L691.2919998168945,256.44330815921137L714.3350664774578,257.4052756033232L737.3781331380209,258.4582028412157L760.4211997985841,259.50418159582085L783.4642664591471,260.34061042980517L806.5073331197103,261.3005357994324L829.5503997802734,262.1482792702053L852.5934664408367,262.9413040637632L875.6365331013997,263.6927032293093L898.6795997619629,264.4440657116099L921.722666422526,265.1697775760587L944.7657330830892,265.8465940488902L967.8087997436522,266.40270465642527L990.8518664042155,266.978605184054L1013.8949330647786,267.71185814760213L1036.9379997253418,268.2317877499601L1059.981066385905,268.8629809652861L1083.024133046468,269.30773541299243L1106.0671997070312,269.911040690674L1129.1102663675945,270.36943879913787L1152.1533330281577,270.9492838243932L1175.1963996887207,271.3597191874922L1198.239466349284,271.8417264558491L1221.282533009847,272.132738702618L1244.3255996704102,272.6031761425417" fill="none"></path></g><g><path style="fill: none;" stroke="rgb(0, 119, 187)" stroke-width="2px" d="M115.21533330281575,179.03522829050706L138.2583999633789,188.99467770196668L161.30146662394205,198.9973016788063L184.34453328450522,206.02826336184424L207.38759994506836,211.83917858697356L230.4306666056315,216.6285732137331L253.47373326619464,220.14573730479103L276.5167999267578,222.63094817570988L299.559866587321,225.04324557130823L322.6029332478841,227.3338720255215L345.64599990844727,230.40791086863365L368.68906656901044,233.10953100819788L391.73213322957355,234.56045365853743L414.7751998901367,237.02619674033804L437.81826655069983,238.95716978582348L460.861333211263,240.56829387058855L483.9043998718261,242.16996389385682L506.9474665323893,244.20045130023135L529.9905331929525,245.76649608424594L553.0335998535156,245.77144651314168L576.0766665140789,247.1365420238052L599.119733174642,247.8583106878058L622.1627998352051,249.0672055508278L645.2058664957682,248.83126035842375L668.2489331563314,249.86698293908245L691.2919998168945,252.1512752811696L714.3350664774578,253.91701243704384L737.3781331380209,254.71594327096562L760.4211997985841,254.8950796694125L783.4642664591471,256.8486244386069L806.5073331197103,258.2828522536057L829.5503997802734,258.9985129545229L852.5934664408367,259.92188739437637L875.6365331013997,260.1257425705418L898.6795997619629,261.0105723378979L921.722666422526,260.9118528454271L944.7657330830892,261.76864195302755L967.8087997436522,262.66105071149235L990.8518664042155,262.9794173195614L1013.8949330647786,263.698356823185L1036.9379997253418,264.1615640951633L1059.981066385905,264.7723168477668L1083.024133046468,265.15534641733683L1106.0671997070312,265.2873947107688L1129.1102663675945,265.7200738013171L1152.1533330281577,266.2875174548896L1175.1963996887207,266.91458141260716L1198.239466349284,266.1475010042394L1221.282533009847,266.66174824111533L1244.3255996704102,267.30855707808246" fill="none"></path></g><g><path style="fill: none;" stroke="rgb(255, 112, 67)" stroke-width="2px" d="M115.21533330281575,83.39853614275148L138.2583999633789,105.46187928920892L161.30146662394205,121.8598531720258L184.34453328450522,133.62242494176968L207.38759994506836,143.20269692395308L230.4306666056315,151.22926502453325L253.47373326619464,158.01318004847576L276.5167999267578,164.17291551616756L299.559866587321,169.84340520516207L322.6029332478841,175.04736436813656L345.64599990844727,179.9353099817206L368.68906656901044,184.5123656805724L391.73213322957355,189.03977701247575L414.7751998901367,193.082432423342L437.81826655069983,196.81554474970952L460.861333211263,200.24725514970552L483.9043998718261,203.625731848418L506.9474665323893,206.81575016466505L529.9905331929525,209.83550096571895L553.0335998535156,212.26604884983365L576.0766665140789,214.81858305579442L599.119733174642,217.36440638217175L622.1627998352051,219.54778900902693L645.2058664957682,221.54392034341387L668.2489331563314,223.50284188150422L691.2919998168945,225.21011606839778L714.3350664774578,227.18179492920646L737.3781331380209,228.92205533020626L760.4211997985841,230.2897718690159L783.4642664591471,231.91630755850858L806.5073331197103,233.22945861779954L829.5503997802734,234.57474120513388L852.5934664408367,236.07842546415122L875.6365331013997,236.95138877413913L898.6795997619629,238.11141300617692L921.722666422526,239.38798414982955L944.7657330830892,240.5898835568005L967.8087997436522,241.41759834386983L990.8518664042155,242.4982334529087L1013.8949330647786,243.3045623433032L1036.9379997253418,244.33984931523875L1059.981066385905,245.22271155398275L1083.024133046468,245.71985597700234L1106.0671997070312,246.8140206890943L1129.1102663675945,247.73818516973049L1152.1533330281577,248.15248259882813L1175.1963996887207,248.38225848114405L1198.239466349284,249.39190792657823L1221.282533009847,250.38804885318842L1244.3255996704102,251.10607608519695" fill="none"></path></g><g><path style="fill: none;" stroke="rgb(187, 187, 187)" stroke-width="2px" d="M115.21533330281575,106.77516080592511L138.2583999633789,125.3293276404865L161.30146662394205,135.1415064941861L184.34453328450522,142.7912630315561L207.38759994506836,149.3261992820876L230.4306666056315,154.35673018284766L253.47373326619464,157.92444302412588L276.5167999267578,161.6333002250959L299.559866587321,164.12414994938536L322.6029332478841,168.21929832860485L345.64599990844727,172.91293855194562L368.68906656901044,175.91142306914156L391.73213322957355,180.630663113329L414.7751998901367,185.6600577949074L437.81826655069983,189.37782841079522L460.861333211263,192.24479466580183L483.9043998718261,195.17947147800794L506.9474665323893,197.4448446885884L529.9905331929525,200.0261097143769L553.0335998535156,202.60417980388794L576.0766665140789,203.68832974872927L599.119733174642,204.42710482470807L622.1627998352051,206.39272812170003L645.2058664957682,208.70546168257027L668.2489331563314,210.4605641194589L691.2919998168945,212.4862609549789L714.3350664774578,214.1931463048711L737.3781331380209,215.27377990154173L760.4211997985841,216.72648323771082L783.4642664591471,218.31030503557153L806.5073331197103,219.19715291883776L829.5503997802734,219.87880921977137L852.5934664408367,220.33299447976748L875.6365331013997,221.95886866647706L898.6795997619629,223.67636693735872L921.722666422526,223.98557859110377L944.7657330830892,224.70043313383374L967.8087997436522,224.62393477556788L990.8518664042155,225.61414016193882L1013.8949330647786,225.4297376571607L1036.9379997253418,226.70329459609846L1059.981066385905,227.9474167967136L1083.024133046468,228.78148527950034L1106.0671997070312,230.29235710060527L1129.1102663675945,230.51849562193374L1152.1533330281577,231.33353545803044L1175.1963996887207,232.05263394299524L1198.239466349284,232.88671088269834L1221.282533009847,232.6244629848607L1244.3255996704102,233.0460037726797" fill="none"></path></g><g><path style="fill: none;" stroke="rgb(0, 153, 136)" stroke-width="2px" d="M115.21533330281575,205.83845823704513L138.2583999633789,229.4718521347496L161.30146662394205,242.69211509409536L184.34453328450522,252.39428409119066L207.38759994506836,260.06850096050607L230.4306666056315,266.04624470277105L253.47373326619464,271.1807108834737L276.5167999267578,275.3215570610272L299.559866587321,278.8773896561296L322.6029332478841,281.8138140582349L345.64599990844727,284.39901832009014L368.68906656901044,286.74449532833677L391.73213322957355,288.79176033258005L414.7751998901367,290.41190206842003L437.81826655069983,292.12991458060725L460.861333211263,293.73910291928524L483.9043998718261,295.10590868367285L506.9474665323893,296.12069733271466L529.9905331929525,297.19782901299124L553.0335998535156,298.0456906629678L576.0766665140789,298.8895256519726L599.119733174642,299.9502530680198L622.1627998352051,300.78317214167134L645.2058664957682,301.51866302356007L668.2489331563314,301.9747303247367L691.2919998168945,302.4988969459748L714.3350664774578,303.0743650640665L737.3781331380209,303.4998057693764L760.4211997985841,304.16279980722936L783.4642664591471,304.2787326817391L806.5073331197103,304.85294321038907L829.5503997802734,304.9205672530121L852.5934664408367,305.7150941382399L875.6365331013997,305.7939289330174L898.6795997619629,305.56878395389344L921.722666422526,306.31686043665724L944.7657330830892,305.9841730714993L967.8087997436522,306.6913526476019L990.8518664042155,307.52523592618974L1013.8949330647786,307.75953212274527L1036.9379997253418,307.7428808035225L1059.981066385905,308.56206470808513L1083.024133046468,307.98543277554893L1106.0671997070312,307.10694044254427L1129.1102663675945,307.4294717982972L1152.1533330281577,308.279699482645L1175.1963996887207,308.61510337114544L1198.239466349284,309.0318473766441L1221.282533009847,309.2188240518488L1244.3255996704102,309.24521925992866" fill="none"></path></g><g><path style="fill: none;" stroke="rgb(238, 51, 119)" stroke-width="2px" d="M115.21533330281575,237.02253049061233L138.2583999633789,247.30850638759583L161.30146662394205,255.74459182767868L184.34453328450522,262.0210180853103L207.38759994506836,267.33627990797294L230.4306666056315,271.2642268537845L253.47373326619464,275.9927308593926L276.5167999267578,279.88166307364384L299.559866587321,281.72402861274696L322.6029332478841,283.3554065487724L345.64599990844727,286.3561452063938L368.68906656901044,288.58143507707655L391.73213322957355,290.288880739973L414.7751998901367,291.6828298489026L437.81826655069983,293.3617752366094L460.861333211263,294.4006614832518L483.9043998718261,295.91771285941076L506.9474665323893,295.4687307323357L529.9905331929525,296.5898208968978L553.0335998535156,298.1177431665802L576.0766665140789,299.1796904104806L599.119733174642,300.18658458428354L622.1627998352051,301.068656117331L645.2058664957682,301.559293782174L668.2489331563314,301.955703159893L691.2919998168945,303.10601800746946L714.3350664774578,303.78514220465036L737.3781331380209,304.46151692211356L760.4211997985841,304.4736495769172L783.4642664591471,305.03164592874975L806.5073331197103,305.5207377198543L829.5503997802734,305.95298742054985L852.5934664408367,306.4596360092009L875.6365331013997,306.6582700379247L898.6795997619629,306.6384382549643L921.722666422526,306.69833294864185L944.7657330830892,307.28236328393996L967.8087997436522,308.0992941556385L990.8518664042155,307.91679737895663L1013.8949330647786,308.4292950886792L1036.9379997253418,308.71308140555686L1059.981066385905,308.79007882148716L1083.024133046468,309.3376051192805L1106.0671997070312,309.3327968885309L1129.1102663675945,309.29491091564967L1152.1533330281577,309.68483770511017L1175.1963996887207,310.1567285819426L1198.239466349284,310.3641832359529L1221.282533009847,310.46008256285415L1244.3255996704102,310.5979850747183" fill="none"></path></g></g></g></g><g opacity="0.2"><g><g><g><path style="fill: none;" stroke="rgb(204, 51, 17)" stroke-width="2px" d="M115.21533330281575,153.8931693888248L138.2583999633789,188.45144076684L161.30146662394205,199.88930319199886L184.34453328450522,207.7162094905123L207.38759994506836,213.44044890349784L230.4306666056315,218.1894508129627L253.47373326619464,222.4612567700057L276.5167999267578,225.67528059519722L299.559866587321,228.94379443516746L322.6029332478841,231.68772572200842L345.64599990844727,234.3559482725535L368.68906656901044,236.72871385407623L391.73213322957355,239.22741895425224L414.7751998901367,240.94555107269647L437.81826655069983,243.0169812404501L460.861333211263,244.94510407734643L483.9043998718261,246.3581625135658L506.9474665323893,248.15640340179903L529.9905331929525,249.67003604359056L553.0335998535156,250.885895538729L576.0766665140789,252.54867875585666L599.119733174642,253.44486349762667L622.1627998352051,254.70444876560626L645.2058664957682,255.88048267759183L668.2489331563314,257.1174271332293L691.2919998168945,258.21937856129796L714.3350664774578,258.84822430808003L737.3781331380209,260.03759208156316L760.4211997985841,261.0731487642342L783.4642664591471,261.59525321850015L806.5073331197103,262.74042353555166L829.5503997802734,263.41989430769206L852.5934664408367,264.1308411594288L875.6365331013997,264.81980192380723L898.6795997619629,265.5711094027696L921.722666422526,266.2583453540187L944.7657330830892,266.86181874766606L967.8087997436522,267.2368705625654L990.8518664042155,267.8424559722895L1013.8949330647786,268.8117375904739L1036.9379997253418,269.0116821524545L1059.981066385905,269.8097707875157L1083.024133046468,269.9748670842309L1106.0671997070312,270.81599860693507L1129.1102663675945,271.0570359617146L1152.1533330281577,271.8190513621858L1175.1963996887207,271.9753722321023L1198.239466349284,272.5647373583574L1221.282533009847,272.5692570727615L1244.3255996704102,273.30883230241784" fill="none"></path></g><g><path style="fill: none;" stroke="rgb(0, 119, 187)" stroke-width="2px" d="M115.21533330281575,179.03522829050706L138.2583999633789,194.97034734884244L161.30146662394205,208.5998206965724L184.34453328450522,214.2966743010968L207.38759994506836,219.42590950490248L230.4306666056315,223.25403016460717L253.47373326619464,225.17533822962938L276.5167999267578,226.25440948353392L299.559866587321,228.60091566516977L322.6029332478841,230.73518535125862L345.64599990844727,234.99108782724412L368.68906656901044,237.1472591200483L391.73213322957355,236.73210011985253L414.7751998901367,240.71998071565196L437.81826655069983,241.85135956772262L460.861333211263,242.98384370820676L483.9043998718261,244.57179115568357L506.9474665323893,247.2456668692606L529.9905331929525,248.11532468910733L553.0335998535156,245.77887170399654L576.0766665140789,249.18411042471837L599.119733174642,248.9409399337014L622.1627998352051,250.8805239778406L645.2058664957682,248.47734536481346L668.2489331563314,251.4205594485977L691.2919998168945,255.57770405283696L714.3350664774578,256.5656136528178L737.3781331380209,255.91433829530123L760.4211997985841,255.16378410207287L783.4642664591471,259.778940512704L806.5073331197103,260.43419350049834L829.5503997802734,260.0720038635061L852.5934664408367,261.3069489439242L875.6365331013997,260.43152532018814L898.6795997619629,262.33781695090505L921.722666422526,260.7637736092665L944.7657330830892,263.05382560117226L967.8087997436522,263.9996638409054L990.8518664042155,263.45696722989163L1013.8949330647786,264.77676607621777L1036.9379997253418,264.85637500220196L1059.981066385905,265.68844597593716L1083.024133046468,265.72989077141546L1106.0671997070312,265.4854671508597L1129.1102663675945,266.36909243702695L1152.1533330281577,267.1386829351599L1175.1963996887207,267.8551773491248L1198.239466349284,264.9968803917308L1221.282533009847,267.4331190964118L1244.3255996704102,268.27877033352013" fill="none"></path></g><g><path style="fill: none;" stroke="rgb(255, 112, 67)" stroke-width="2px" d="M115.21533330281575,83.39853614275148L138.2583999633789,118.69988517708356L161.30146662394205,137.60190809953008L184.34453328450522,147.45520934298844L207.38759994506836,155.71070002389183L230.4306666056315,162.3328982721518L253.47373326619464,167.71428707535398L276.5167999267578,173.15386896152268L299.559866587321,178.2062760605118L322.6029332478841,182.77463723493702L345.64599990844727,187.22289509513422L368.68906656901044,191.35304109385976L391.73213322957355,195.81611122680818L414.7751998901367,199.1384955568413L437.81826655069983,202.41082510585676L460.861333211263,205.39240044164734L483.9043998718261,208.6920172383737L506.9474665323893,211.59996769373072L529.9905331929525,214.36466713865917L553.0335998535156,215.9116485143017L576.0766665140789,218.6472443776933L599.119733174642,221.18305760033684L622.1627998352051,222.82281984222854L645.2058664957682,224.53809369891565L668.2489331563314,226.44121026546392L691.2919998168945,227.7710200679936L714.3350664774578,230.13930817543374L737.3781331380209,231.53244325999628L760.4211997985841,232.34134541737012L783.4642664591471,234.35611019378604L806.5073331197103,235.19918477128078L829.5503997802734,236.5926648184692L852.5934664408367,238.33395167316758L875.6365331013997,238.26083367659243L898.6795997619629,239.85144930437946L921.722666422526,241.3028408323908L944.7657330830892,242.39273264866162L967.8087997436522,242.65917051679017L990.8518664042155,244.11918611044803L1013.8949330647786,244.51405567620034L1036.9379997253418,245.89277977106624L1059.981066385905,246.5470049110366L1083.024133046468,246.46557261117286L1106.0671997070312,248.45526775675842L1129.1102663675945,249.12443189044458L1152.1533330281577,248.77392874241002L1175.1963996887207,248.7269223045964L1198.239466349284,250.90638209467292L1221.282533009847,251.8822602430702L1244.3255996704102,252.18311693319527" fill="none"></path></g><g><path style="fill: none;" stroke="rgb(187, 187, 187)" stroke-width="2px" d="M115.21533330281575,106.77516080592517L138.2583999633789,136.46182774122343L161.30146662394205,144.5611981937376L184.34453328450522,151.78737671950336L207.38759994506836,157.85821205078156L230.4306666056315,161.3157654097231L253.47373326619464,163.02632947055918L276.5167999267578,167.0408496291393L299.559866587321,167.79766947006186L322.6029332478841,174.30011640677327L345.64599990844727,179.9108279155829L368.68906656901044,180.39283222460602L391.73213322957355,187.69411404205903L414.7751998901367,193.19429670952167L437.81826655069983,194.9501142348277L460.861333211263,196.54322204158524L483.9043998718261,199.58024483944263L506.9474665323893,200.8423293264463L529.9905331929525,203.8976140233135L553.0335998535156,206.47104929233655L576.0766665140789,205.31449520863168L599.119733174642,205.53524312896775L622.1627998352051,209.34112425938486L645.2058664957682,212.17453462734176L668.2489331563314,213.09320530027497L691.2919998168945,215.52479756958724L714.3350664774578,216.7534699622576L737.3781331380209,216.8947286375205L760.4211997985841,218.9055369038194L783.4642664591471,220.68603685700842L806.5073331197103,220.5274244496487L829.5503997802734,220.90129353554508L852.5934664408367,221.01427231554104L875.6365331013997,224.39767983008343L898.6795997619629,226.25261426986873L921.722666422526,224.44939606374808L944.7657330830892,225.7727149368687L967.8087997436522,224.5091872388793L990.8518664042155,227.09944823598L1013.8949330647786,225.15313390060973L1036.9379997253418,228.61363000195146L1059.981066385905,229.81360009613957L1083.024133046468,230.0325880030784L1106.0671997070312,232.55866483160835L1129.1102663675945,230.85770340386765L1152.1533330281577,232.55609521204838L1175.1963996887207,233.13128167037524L1198.239466349284,234.1378262922061L1221.282533009847,232.2310911381131L1244.3255996704102,233.67831495439978" fill="none"></path></g><g><path style="fill: none;" stroke="rgb(0, 153, 136)" stroke-width="2px" d="M115.21533330281575,205.83845823704513L138.2583999633789,243.65188847337228L161.30146662394205,255.38356753506724L184.34453328450522,263.8040348317748L207.38759994506836,270.08795850508426L230.4306666056315,274.31561628607074L253.47373326619464,278.5230796733373L276.5167999267578,281.3589505400235L299.559866587321,284.12155204898244L322.6029332478841,286.1740620727157L345.64599990844727,288.25337710048893L368.68906656901044,290.24994685840414L391.73213322957355,291.8559731634975L414.7751998901367,292.8389406458588L437.81826655069983,294.7049138896717L460.861333211263,296.15175050301093L483.9043998718261,297.15553894386176L506.9474665323893,297.6426226515493L529.9905331929525,298.813362443236L553.0335998535156,299.3174056400194L576.0766665140789,300.15523185756354L599.119733174642,301.5413092884031L622.1627998352051,302.03253430761447L645.2058664957682,302.62189063380254L668.2489331563314,302.6588280349705L691.2919998168945,303.28514464250077L714.3350664774578,303.9375657687389L737.3781331380209,304.13796617418944L760.4211997985841,305.1572902532977L783.4642664591471,304.4526319294293L806.5073331197103,305.71425881294965L829.5503997802734,305.02200330349166L852.5934664408367,306.90688437123106L875.6365331013997,305.91218111953685L898.6795997619629,305.2310664948834L921.722666422526,307.438975141513L944.7657330830892,305.4851420289097L967.8087997436522,307.75212200519104L990.8518664042155,308.7760608394269L1013.8949330647786,308.11097641679555L1036.9379997253418,307.7179038247218L1059.981066385905,309.79084056394345L1083.024133046468,307.12048487716095L1106.0671997070312,305.78920194341777L1129.1102663675945,307.9132688318428L1152.1533330281577,309.55504100903414L1175.1963996887207,309.1182092038647L1198.239466349284,309.6569633848686L1221.282533009847,309.49928906464964L1244.3255996704102,309.28481207204794" fill="none"></path></g><g><path style="fill: none;" stroke="rgb(238, 51, 119)" stroke-width="2px" d="M115.21533330281575,237.02253049061233L138.2583999633789,253.48009192578593L161.30146662394205,263.84323385015824L184.34453328450522,269.402095364285L207.38759994506836,274.2758857436413L230.4306666056315,276.69799154074246L253.47373326619464,282.7545672434762L276.5167999267578,285.55176357577136L299.559866587321,284.44115992184175L322.6029332478841,285.7778126564599L345.64599990844727,290.8300367140557L368.68906656901044,291.9072599538932L391.73213322957355,292.84447412797977L414.7751998901367,293.7710226208791L437.81826655069983,295.8782197808915L460.861333211263,295.9582581501446L483.9043998718261,298.19264795834914L506.9474665323893,294.79537153823645L529.9905331929525,298.27128535693805L553.0335998535156,300.40948691295637L576.0766665140789,300.7725530366205L599.119733174642,301.69689271270624L622.1627998352051,302.3917460019386L645.2058664957682,302.29524446736764L668.2489331563314,302.55031440896335L691.2919998168945,304.8314853732667L714.3350664774578,304.803826762729L737.3781331380209,305.47607795991394L760.4211997985841,304.4918485479467L783.4642664591471,305.86864014810243L806.5073331197103,306.25437524432306L829.5503997802734,306.6013618855899L852.5934664408367,307.2196088316938L875.6365331013997,306.95622106678263L898.6795997619629,306.60869058137604L921.722666422526,306.78817498761373L944.7657330830892,308.15840877785126L967.8087997436522,309.3246904556027L990.8518664042155,307.6430522149504L1013.8949330647786,309.1980416515504L1036.9379997253418,309.13876088030435L1059.981066385905,308.90557494528997L1083.024133046468,310.15889456557534L1106.0671997070312,309.32558454240854L1129.1102663675945,309.2380819563377L1152.1533330281577,310.2697278892401L1175.1963996887207,310.86456489714715L1198.239466349284,310.6753652169567L1221.282533009847,310.60393155320276L1244.3255996704102,310.8048388425117" fill="none"></path></g></g></g></g></g><g><g opacity="0.832561"><span fill="rgb(0, 0, 0)" stroke="none" stroke-width="1px">Alt + Scroll to Zoom</span></g></g></g><g transform="translate(51, 377)" clip-path="url(#clip_1)"><clipPath id="clip_1"><rect width="1382" height="22"></rect></clipPath><g><g><line x1="0" y1="0" x2="0" y2="5" style="visibility: inherit;" fill="rgb(0, 0, 0)" stroke="rgb(204, 204, 204)" stroke-width="1px"></line><line x1="115.21533330281575" y1="0" x2="115.21533330281575" y2="5" style="visibility: inherit;" fill="rgb(0, 0, 0)" stroke="rgb(204, 204, 204)" stroke-width="1px"></line><line x1="230.4306666056315" y1="0" x2="230.4306666056315" y2="5" style="visibility: inherit;" fill="rgb(0, 0, 0)" stroke="rgb(204, 204, 204)" stroke-width="1px"></line><line x1="345.64599990844727" y1="0" x2="345.64599990844727" y2="5" style="visibility: inherit;" fill="rgb(0, 0, 0)" stroke="rgb(204, 204, 204)" stroke-width="1px"></line><line x1="460.861333211263" y1="0" x2="460.861333211263" y2="5" style="visibility: inherit;" fill="rgb(0, 0, 0)" stroke="rgb(204, 204, 204)" stroke-width="1px"></line><line x1="576.0766665140789" y1="0" x2="576.0766665140789" y2="5" style="visibility: inherit;" fill="rgb(0, 0, 0)" stroke="rgb(204, 204, 204)" stroke-width="1px"></line><line x1="691.2919998168945" y1="0" x2="691.2919998168945" y2="5" style="visibility: inherit;" fill="rgb(0, 0, 0)" stroke="rgb(204, 204, 204)" stroke-width="1px"></line><line x1="806.5073331197103" y1="0" x2="806.5073331197103" y2="5" style="visibility: inherit;" fill="rgb(0, 0, 0)" stroke="rgb(204, 204, 204)" stroke-width="1px"></line><line x1="921.722666422526" y1="0" x2="921.722666422526" y2="5" style="visibility: inherit;" fill="rgb(0, 0, 0)" stroke="rgb(204, 204, 204)" stroke-width="1px"></line><line x1="1036.9379997253418" y1="0" x2="1036.9379997253418" y2="5" style="visibility: inherit;" fill="rgb(0, 0, 0)" stroke="rgb(204, 204, 204)" stroke-width="1px"></line><line x1="1152.1533330281577" y1="0" x2="1152.1533330281577" y2="5" style="visibility: inherit;" fill="rgb(0, 0, 0)" stroke="rgb(204, 204, 204)" stroke-width="1px"></line><line x1="1267.3686663309732" y1="0" x2="1267.3686663309732" y2="5" style="visibility: inherit;" fill="rgb(0, 0, 0)" stroke="rgb(204, 204, 204)" stroke-width="1px"></line><line x1="1382.583999633789" y1="0" x2="1382.583999633789" y2="5" style="visibility: inherit;" fill="rgb(0, 0, 0)" stroke="rgb(204, 204, 204)" stroke-width="1px"></line></g><g transform="translate(0, 8)"><text style="text-anchor: middle; visibility: hidden; font-family: &quot;Helvetica Neue&quot;, sans-serif; font-size: 12px; font-weight: 200;" x="0" y="0" dx="0em" dy="0.95em" fill="rgb(50, 49, 63)" stroke="none" stroke-width="1px">-5</text><text style="text-anchor: middle; visibility: inherit; font-family: &quot;Helvetica Neue&quot;, sans-serif; font-size: 12px; font-weight: 200;" x="115.21533330281575" y="0" dx="0em" dy="0.95em" fill="rgb(50, 49, 63)" stroke="none" stroke-width="1px">0</text><text style="text-anchor: middle; visibility: inherit; font-family: &quot;Helvetica Neue&quot;, sans-serif; font-size: 12px; font-weight: 200;" x="230.4306666056315" y="0" dx="0em" dy="0.95em" fill="rgb(50, 49, 63)" stroke="none" stroke-width="1px">5</text><text style="text-anchor: middle; visibility: inherit; font-family: &quot;Helvetica Neue&quot;, sans-serif; font-size: 12px; font-weight: 200;" x="345.64599990844727" y="0" dx="0em" dy="0.95em" fill="rgb(50, 49, 63)" stroke="none" stroke-width="1px">10</text><text style="text-anchor: middle; visibility: inherit; font-family: &quot;Helvetica Neue&quot;, sans-serif; font-size: 12px; font-weight: 200;" x="460.861333211263" y="0" dx="0em" dy="0.95em" fill="rgb(50, 49, 63)" stroke="none" stroke-width="1px">15</text><text style="text-anchor: middle; visibility: inherit; font-family: &quot;Helvetica Neue&quot;, sans-serif; font-size: 12px; font-weight: 200;" x="576.0766665140789" y="0" dx="0em" dy="0.95em" fill="rgb(50, 49, 63)" stroke="none" stroke-width="1px">20</text><text style="text-anchor: middle; visibility: inherit; font-family: &quot;Helvetica Neue&quot;, sans-serif; font-size: 12px; font-weight: 200;" x="691.2919998168945" y="0" dx="0em" dy="0.95em" fill="rgb(50, 49, 63)" stroke="none" stroke-width="1px">25</text><text style="text-anchor: middle; visibility: inherit; font-family: &quot;Helvetica Neue&quot;, sans-serif; font-size: 12px; font-weight: 200;" x="806.5073331197103" y="0" dx="0em" dy="0.95em" fill="rgb(50, 49, 63)" stroke="none" stroke-width="1px">30</text><text style="text-anchor: middle; visibility: inherit; font-family: &quot;Helvetica Neue&quot;, sans-serif; font-size: 12px; font-weight: 200;" x="921.722666422526" y="0" dx="0em" dy="0.95em" fill="rgb(50, 49, 63)" stroke="none" stroke-width="1px">35</text><text style="text-anchor: middle; visibility: inherit; font-family: &quot;Helvetica Neue&quot;, sans-serif; font-size: 12px; font-weight: 200;" x="1036.9379997253418" y="0" dx="0em" dy="0.95em" fill="rgb(50, 49, 63)" stroke="none" stroke-width="1px">40</text><text style="text-anchor: middle; visibility: inherit; font-family: &quot;Helvetica Neue&quot;, sans-serif; font-size: 12px; font-weight: 200;" x="1152.1533330281577" y="0" dx="0em" dy="0.95em" fill="rgb(50, 49, 63)" stroke="none" stroke-width="1px">45</text><text style="text-anchor: middle; visibility: inherit; font-family: &quot;Helvetica Neue&quot;, sans-serif; font-size: 12px; font-weight: 200;" x="1267.3686663309732" y="0" dx="0em" dy="0.95em" fill="rgb(50, 49, 63)" stroke="none" stroke-width="1px">50</text><text style="text-anchor: middle; visibility: hidden; font-family: &quot;Helvetica Neue&quot;, sans-serif; font-size: 12px; font-weight: 200;" x="1382.583999633789" y="0" dx="0em" dy="0.95em" fill="rgb(50, 49, 63)" stroke="none" stroke-width="1px">55</text></g><line x1="0" y1="0" x2="1382.583999633789" y2="0" fill="rgb(0, 0, 0)" stroke="rgb(204, 204, 204)" stroke-width="1px"></line></g></g></g></g></svg>