<svg viewBox="0 0 1434 400" xmlns="http://www.w3.org/2000/svg"><g><g><g><g><g><line x1="30.70800018310547" y1="377.95999908447266" x2="25.70800018310547" y2="377.95999908447266" style="visibility: inherit;" fill="rgb(0, 0, 0)" stroke="rgb(204, 204, 204)" stroke-width="1px"></line><line x1="30.70800018310547" y1="348.8861530010517" x2="25.70800018310547" y2="348.8861530010517" style="visibility: inherit;" fill="rgb(0, 0, 0)" stroke="rgb(204, 204, 204)" stroke-width="1px"></line><line x1="30.70800018310547" y1="319.81230691763074" x2="25.70800018310547" y2="319.81230691763074" style="visibility: inherit;" fill="rgb(0, 0, 0)" stroke="rgb(204, 204, 204)" stroke-width="1px"></line><line x1="30.70800018310547" y1="290.7384608342097" x2="25.70800018310547" y2="290.7384608342097" style="visibility: inherit;" fill="rgb(0, 0, 0)" stroke="rgb(204, 204, 204)" stroke-width="1px"></line><line x1="30.70800018310547" y1="261.66461475078876" x2="25.70800018310547" y2="261.66461475078876" style="visibility: inherit;" fill="rgb(0, 0, 0)" stroke="rgb(204, 204, 204)" stroke-width="1px"></line><line x1="30.70800018310547" y1="232.59076866736777" x2="25.70800018310547" y2="232.59076866736777" style="visibility: inherit;" fill="rgb(0, 0, 0)" stroke="rgb(204, 204, 204)" stroke-width="1px"></line><line x1="30.70800018310547" y1="203.5169225839468" x2="25.70800018310547" y2="203.5169225839468" style="visibility: inherit;" fill="rgb(0, 0, 0)" stroke="rgb(204, 204, 204)" stroke-width="1px"></line><line x1="30.70800018310547" y1="174.44307650052585" x2="25.70800018310547" y2="174.44307650052585" style="visibility: inherit;" fill="rgb(0, 0, 0)" stroke="rgb(204, 204, 204)" stroke-width="1px"></line><line x1="30.70800018310547" y1="145.36923041710486" x2="25.70800018310547" y2="145.36923041710486" style="visibility: inherit;" fill="rgb(0, 0, 0)" stroke="rgb(204, 204, 204)" stroke-width="1px"></line><line x1="30.70800018310547" y1="116.2953843336839" x2="25.70800018310547" y2="116.2953843336839" style="visibility: inherit;" fill="rgb(0, 0, 0)" stroke="rgb(204, 204, 204)" stroke-width="1px"></line><line x1="30.70800018310547" y1="87.22153825026288" x2="25.70800018310547" y2="87.22153825026288" style="visibility: inherit;" fill="rgb(0, 0, 0)" stroke="rgb(204, 204, 204)" stroke-width="1px"></line><line x1="30.70800018310547" y1="58.14769216684198" x2="25.70800018310547" y2="58.14769216684198" style="visibility: inherit;" fill="rgb(0, 0, 0)" stroke="rgb(204, 204, 204)" stroke-width="1px"></line><line x1="30.70800018310547" y1="29.07384608342096" x2="25.70800018310547" y2="29.07384608342096" style="visibility: inherit;" fill="rgb(0, 0, 0)" stroke="rgb(204, 204, 204)" stroke-width="1px"></line><line x1="30.70800018310547" y1="0" x2="25.70800018310547" y2="0" style="visibility: inherit;" fill="rgb(0, 0, 0)" stroke="rgb(204, 204, 204)" stroke-width="1px"></line></g><g transform="translate(20.70800018310547, 0)"><text style="text-anchor: end; visibility: hidden; font-family: &quot;Helvetica Neue&quot;, sans-serif; font-size: 12px; font-weight: 200;" x="0" y="377.95999908447266" dx="0em" dy="0.3em" fill="rgb(50, 49, 63)" stroke="none" stroke-width="1px">-2</text><text style="text-anchor: end; visibility: inherit; font-family: &quot;Helvetica Neue&quot;, sans-serif; font-size: 12px; font-weight: 200;" x="0" y="348.8861530010517" dx="0em" dy="0.3em" fill="rgb(50, 49, 63)" stroke="none" stroke-width="1px">0</text><text style="text-anchor: end; visibility: inherit; font-family: &quot;Helvetica Neue&quot;, sans-serif; font-size: 12px; font-weight: 200;" x="0" y="319.81230691763074" dx="0em" dy="0.3em" fill="rgb(50, 49, 63)" stroke="none" stroke-width="1px">2</text><text style="text-anchor: end; visibility: inherit; font-family: &quot;Helvetica Neue&quot;, sans-serif; font-size: 12px; font-weight: 200;" x="0" y="290.7384608342097" dx="0em" dy="0.3em" fill="rgb(50, 49, 63)" stroke="none" stroke-width="1px">4</text><text style="text-anchor: end; visibility: inherit; font-family: &quot;Helvetica Neue&quot;, sans-serif; font-size: 12px; font-weight: 200;" x="0" y="261.66461475078876" dx="0em" dy="0.3em" fill="rgb(50, 49, 63)" stroke="none" stroke-width="1px">6</text><text style="text-anchor: end; visibility: inherit; font-family: &quot;Helvetica Neue&quot;, sans-serif; font-size: 12px; font-weight: 200;" x="0" y="232.59076866736777" dx="0em" dy="0.3em" fill="rgb(50, 49, 63)" stroke="none" stroke-width="1px">8</text><text style="text-anchor: end; visibility: inherit; font-family: &quot;Helvetica Neue&quot;, sans-serif; font-size: 12px; font-weight: 200;" x="0" y="203.5169225839468" dx="0em" dy="0.3em" fill="rgb(50, 49, 63)" stroke="none" stroke-width="1px">10</text><text style="text-anchor: end; visibility: inherit; font-family: &quot;Helvetica Neue&quot;, sans-serif; font-size: 12px; font-weight: 200;" x="0" y="174.44307650052585" dx="0em" dy="0.3em" fill="rgb(50, 49, 63)" stroke="none" stroke-width="1px">12</text><text style="text-anchor: end; visibility: inherit; font-family: &quot;Helvetica Neue&quot;, sans-serif; font-size: 12px; font-weight: 200;" x="0" y="145.36923041710486" dx="0em" dy="0.3em" fill="rgb(50, 49, 63)" stroke="none" stroke-width="1px">14</text><text style="text-anchor: end; visibility: inherit; font-family: &quot;Helvetica Neue&quot;, sans-serif; font-size: 12px; font-weight: 200;" x="0" y="116.2953843336839" dx="0em" dy="0.3em" fill="rgb(50, 49, 63)" stroke="none" stroke-width="1px">16</text><text style="text-anchor: end; visibility: inherit; font-family: &quot;Helvetica Neue&quot;, sans-serif; font-size: 12px; font-weight: 200;" x="0" y="87.22153825026288" dx="0em" dy="0.3em" fill="rgb(50, 49, 63)" stroke="none" stroke-width="1px">18</text><text style="text-anchor: end; visibility: inherit; font-family: &quot;Helvetica Neue&quot;, sans-serif; font-size: 12px; font-weight: 200;" x="0" y="58.14769216684198" dx="0em" dy="0.3em" fill="rgb(50, 49, 63)" stroke="none" stroke-width="1px">20</text><text style="text-anchor: end; visibility: inherit; font-family: &quot;Helvetica Neue&quot;, sans-serif; font-size: 12px; font-weight: 200;" x="0" y="29.07384608342096" dx="0em" dy="0.3em" fill="rgb(50, 49, 63)" stroke="none" stroke-width="1px">22</text><text style="text-anchor: end; visibility: hidden; font-family: &quot;Helvetica Neue&quot;, sans-serif; font-size: 12px; font-weight: 200;" x="0" y="0" dx="0em" dy="0.3em" fill="rgb(50, 49, 63)" stroke="none" stroke-width="1px">24</text></g><line x1="30.70800018310547" y1="0" x2="30.70800018310547" y2="377.95999908447266" fill="rgb(0, 0, 0)" stroke="rgb(204, 204, 204)" stroke-width="1px"></line></g></g><g transform="translate(30, 0)" clip-path="url(#clip_0)"><clipPath id="clip_0"><rect width="1403" height="377"></rect></clipPath><g><g><g><line x1="0" y1="0" x2="0" y2="377.95999908447266" fill="rgb(0, 0, 0)" stroke="rgb(60, 60, 60)" stroke-width="1px" opacity="0.25"></line><line x1="116.94099998474121" y1="0" x2="116.94099998474121" y2="377.95999908447266" fill="rgb(0, 0, 0)" stroke="rgb(60, 60, 60)" stroke-width="1px" opacity="0.25"></line><line x1="233.88199996948242" y1="0" x2="233.88199996948242" y2="377.95999908447266" fill="rgb(0, 0, 0)" stroke="rgb(60, 60, 60)" stroke-width="1px" opacity="0.25"></line><line x1="350.82299995422363" y1="0" x2="350.82299995422363" y2="377.95999908447266" fill="rgb(0, 0, 0)" stroke="rgb(60, 60, 60)" stroke-width="1px" opacity="0.25"></line><line x1="467.76399993896484" y1="0" x2="467.76399993896484" y2="377.95999908447266" fill="rgb(0, 0, 0)" stroke="rgb(60, 60, 60)" stroke-width="1px" opacity="0.25"></line><line x1="584.704999923706" y1="0" x2="584.704999923706" y2="377.95999908447266" fill="rgb(0, 0, 0)" stroke="rgb(60, 60, 60)" stroke-width="1px" opacity="0.25"></line><line x1="701.6459999084473" y1="0" x2="701.6459999084473" y2="377.95999908447266" fill="rgb(0, 0, 0)" stroke="rgb(60, 60, 60)" stroke-width="1px" opacity="0.25"></line><line x1="818.5869998931885" y1="0" x2="818.5869998931885" y2="377.95999908447266" fill="rgb(0, 0, 0)" stroke="rgb(60, 60, 60)" stroke-width="1px" opacity="0.25"></line><line x1="935.5279998779297" y1="0" x2="935.5279998779297" y2="377.95999908447266" fill="rgb(0, 0, 0)" stroke="rgb(60, 60, 60)" stroke-width="1px" opacity="0.25"></line><line x1="1052.468999862671" y1="0" x2="1052.468999862671" y2="377.95999908447266" fill="rgb(0, 0, 0)" stroke="rgb(60, 60, 60)" stroke-width="1px" opacity="0.25"></line><line x1="1169.409999847412" y1="0" x2="1169.409999847412" y2="377.95999908447266" fill="rgb(0, 0, 0)" stroke="rgb(60, 60, 60)" stroke-width="1px" opacity="0.25"></line><line x1="1286.3509998321533" y1="0" x2="1286.3509998321533" y2="377.95999908447266" fill="rgb(0, 0, 0)" stroke="rgb(60, 60, 60)" stroke-width="1px" opacity="0.25"></line><line x1="1403.2919998168945" y1="0" x2="1403.2919998168945" y2="377.95999908447266" fill="rgb(0, 0, 0)" stroke="rgb(60, 60, 60)" stroke-width="1px" opacity="0.25"></line></g><g><line x1="0" y1="377.95999908447266" x2="1403.2919998168945" y2="377.95999908447266" fill="rgb(0, 0, 0)" stroke="rgb(60, 60, 60)" stroke-width="1px" opacity="0.25"></line><line x1="0" y1="348.8861530010517" x2="1403.2919998168945" y2="348.8861530010517" fill="rgb(0, 0, 0)" stroke="rgb(60, 60, 60)" stroke-width="1px" opacity="0.25"></line><line x1="0" y1="319.81230691763074" x2="1403.2919998168945" y2="319.81230691763074" fill="rgb(0, 0, 0)" stroke="rgb(60, 60, 60)" stroke-width="1px" opacity="0.25"></line><line x1="0" y1="290.7384608342097" x2="1403.2919998168945" y2="290.7384608342097" fill="rgb(0, 0, 0)" stroke="rgb(60, 60, 60)" stroke-width="1px" opacity="0.25"></line><line x1="0" y1="261.66461475078876" x2="1403.2919998168945" y2="261.66461475078876" fill="rgb(0, 0, 0)" stroke="rgb(60, 60, 60)" stroke-width="1px" opacity="0.25"></line><line x1="0" y1="232.59076866736777" x2="1403.2919998168945" y2="232.59076866736777" fill="rgb(0, 0, 0)" stroke="rgb(60, 60, 60)" stroke-width="1px" opacity="0.25"></line><line x1="0" y1="203.5169225839468" x2="1403.2919998168945" y2="203.5169225839468" fill="rgb(0, 0, 0)" stroke="rgb(60, 60, 60)" stroke-width="1px" opacity="0.25"></line><line x1="0" y1="174.44307650052585" x2="1403.2919998168945" y2="174.44307650052585" fill="rgb(0, 0, 0)" stroke="rgb(60, 60, 60)" stroke-width="1px" opacity="0.25"></line><line x1="0" y1="145.36923041710486" x2="1403.2919998168945" y2="145.36923041710486" fill="rgb(0, 0, 0)" stroke="rgb(60, 60, 60)" stroke-width="1px" opacity="0.25"></line><line x1="0" y1="116.2953843336839" x2="1403.2919998168945" y2="116.2953843336839" fill="rgb(0, 0, 0)" stroke="rgb(60, 60, 60)" stroke-width="1px" opacity="0.25"></line><line x1="0" y1="87.22153825026288" x2="1403.2919998168945" y2="87.22153825026288" fill="rgb(0, 0, 0)" stroke="rgb(60, 60, 60)" stroke-width="1px" opacity="0.25"></line><line x1="0" y1="58.14769216684198" x2="1403.2919998168945" y2="58.14769216684198" fill="rgb(0, 0, 0)" stroke="rgb(60, 60, 60)" stroke-width="1px" opacity="0.25"></line><line x1="0" y1="29.07384608342096" x2="1403.2919998168945" y2="29.07384608342096" fill="rgb(0, 0, 0)" stroke="rgb(60, 60, 60)" stroke-width="1px" opacity="0.25"></line><line x1="0" y1="0" x2="1403.2919998168945" y2="0" fill="rgb(0, 0, 0)" stroke="rgb(60, 60, 60)" stroke-width="1px" opacity="0.25"></line></g></g></g><g><g><line x1="0" y1="348.8861530010517" x2="1403.2919998168945" y2="348.8861530010517" fill="rgb(0, 0, 0)" stroke="rgb(153, 153, 153)" stroke-width="1.5px"></line></g></g><g><g><line x1="116.94099998474121" y1="0" x2="116.94099998474121" y2="377.95999908447266" fill="rgb(0, 0, 0)" stroke="rgb(153, 153, 153)" stroke-width="1.5px"></line></g></g><g><g><g><g><g><path style="fill: none;" stroke="rgb(204, 51, 17)" stroke-width="2px" d="M116.94099998474121,132.92202056231858L140.32919998168947,175.71714164241874L163.7173999786377,199.49986172860142L187.10559997558593,214.67356169051152L210.49379997253416,225.22788214066887L233.88199996948242,233.00884309074L257.27019996643065,239.09915968934106L280.65839996337894,243.8933244385976L304.04659996032717,247.74326060013368L327.4347999572754,251.09080243154722L350.82299995422363,253.65565773430055L374.21119995117186,256.05789738252065L397.5993999481201,258.1068035974029L420.9875999450683,259.87136839496407L444.37579994201656,261.45894258349153L467.76399993896484,262.9030690405019L491.1521999359131,264.198348597352L514.5403999328613,265.31863760400586L537.9285999298096,266.5095055543248L561.3167999267579,267.49075368386156L584.704999923706,268.5158314341819L608.0931999206543,269.35886010690075L631.4813999176025,270.29384288999046L654.8695999145508,271.16204700418393L678.257799911499,271.9433045159821L701.6459999084473,272.6345059984487L725.0341999053956,273.3446047293602L748.4223999023437,274.0016182996106L771.810599899292,274.6692642185042L795.1987998962402,275.1587055130784L818.5869998931885,275.579717485234L841.9751998901367,276.1421098901153L865.363399887085,276.7617089327823L888.7515998840331,277.3602500904253L912.1397998809815,277.98749745073684L935.5279998779297,278.44041114418224L958.916199874878,278.8738048806464L982.3043998718261,279.4089038570877L1005.6925998687744,279.83346805932996L1029.0807998657226,280.32933149177677L1052.468999862671,280.77191711180853L1075.8571998596192,281.1474697325535L1099.2453998565675,281.5336371994931L1122.6335998535158,281.8618358891017L1146.0217998504638,282.2226659195234L1169.409999847412,282.5860781155204L1192.7981998443604,282.9954277336146L1216.1863998413087,283.3769523891425L1239.5745998382567,283.70423973582217L1262.962799835205,283.99645599659254" fill="none"></path></g><g><path style="fill: none;" stroke="rgb(0, 119, 187)" stroke-width="2px" d="M116.94099998474121,185.65568710398796L140.32919998168947,204.45837487029394L163.7173999786377,217.7930807321777L187.10559997558593,223.1773804184334L210.49379997253416,232.4877588515892L233.88199996948242,239.45947566813194L257.27019996643065,245.46671492120245L280.65839996337894,249.9856729241522L304.04659996032717,253.33412184338619L327.4347999572754,256.15815713483465L350.82299995422363,259.03194171783434L374.21119995117186,260.7781296864059L397.5993999481201,262.40069877620306L420.9875999450683,264.36878186397246L444.37579994201656,265.675027744169L467.76399993896484,267.07717885995015L491.1521999359131,267.7421950702198L514.5403999328613,269.0028555853437L537.9285999298096,269.97345156427866L561.3167999267579,270.8493774815509L584.704999923706,271.23204058980195L608.0931999206543,272.3352246850603L631.4813999176025,273.49355917012446L654.8695999145508,274.35254878128256L678.257799911499,274.649270491297L701.6459999084473,274.7113956839898L725.0341999053956,275.2219735424324L748.4223999023437,276.03430712437006L771.810599899292,276.6892306582017L795.1987998962402,277.4840900648982L818.5869998931885,277.49031508933274L841.9751998901367,278.1875767985328L865.363399887085,278.78638375757254L888.7515998840331,279.39417652805156L912.1397998809815,280.1980475545204L935.5279998779297,280.08908952809975L958.916199874878,279.43782420695L982.3043998718261,279.5496248545362L1005.6925998687744,280.2211534144671L1029.0807998657226,281.4856781450036L1052.468999862671,282.26910881249296L1075.8571998596192,282.7096490693547L1099.2453998565675,283.011884323496L1122.6335998535158,283.2968051562082L1146.0217998504638,283.2197120901136L1169.409999847412,284.2090950093916L1192.7981998443604,284.4770852409036L1216.1863998413087,283.81089723838693L1239.5745998382567,284.4878674446877L1262.962799835205,284.86891228813226" fill="none"></path></g><g><path style="fill: none;" stroke="rgb(255, 112, 67)" stroke-width="2px" d="M116.94099998474121,63.827425444123094L140.32919998168947,84.28777072700143L163.7173999786377,109.87920944522432L187.10559997558593,130.70605124546228L210.49379997253416,147.23140302539645L233.88199996948242,160.00446684962648L257.27019996643065,170.20418853265687L280.65839996337894,178.53281453430947L304.04659996032717,185.42087924504904L327.4347999572754,191.2098309053109L350.82299995422363,196.16914261871995L374.21119995117186,200.44370203969848L397.5993999481201,204.44438097407422L420.9875999450683,207.66107235665305L444.37579994201656,210.78128996809286L467.76399993896484,213.6454317188655L491.1521999359131,216.22960395221565L514.5403999328613,218.6599045090288L537.9285999298096,221.019546754674L561.3167999267579,223.01918608443304L584.704999923706,225.0355780108496L608.0931999206543,226.87537786811285L631.4813999176025,228.54436696867936L654.8695999145508,230.36503546180415L678.257799911499,232.16777888202446L701.6459999084473,233.7581238837077L725.0341999053956,235.10313301756162L748.4223999023437,236.40425489061406L771.810599899292,237.8528512954525L795.1987998962402,239.1214964443796L818.5869998931885,240.44754024430742L841.9751998901367,241.56851205159822L865.363399887085,242.59616403271247L888.7515998840331,243.74544317784927L912.1397998809815,245.10420132463392L935.5279998779297,246.04110832502795L958.916199874878,246.95080744645392L982.3043998718261,248.15643754999746L1005.6925998687744,248.99550920746975L1029.0807998657226,250.02426757001257L1052.468999862671,251.04687994801495L1075.8571998596192,251.89439654328973L1099.2453998565675,252.53056429017857L1122.6335998535158,253.62502578441658L1146.0217998504638,254.42038749086151L1169.409999847412,254.81182832844843L1192.7981998443604,255.36639323182212L1216.1863998413087,256.4789119040056L1239.5745998382567,256.79572116980876L1262.962799835205,257.6235577756163" fill="none"></path></g><g><path style="fill: none;" stroke="rgb(187, 187, 187)" stroke-width="2px" d="M116.94099998474121,80.17694436826031L140.32919998168947,106.51616329966356L163.7173999786377,128.36741362790013L187.10559997558593,145.09362204137847L210.49379997253416,159.1405566467019L233.88199996948242,169.7647144837704L257.27019996643065,179.03756076843985L280.65839996337894,186.13297268195112L304.04659996032717,192.212741384028L327.4347999572754,197.46618028991418L350.82299995422363,201.7096270591472L374.21119995117186,205.18869399656154L397.5993999481201,208.27538302296142L420.9875999450683,210.44204882771325L444.37579994201656,213.16737533666011L467.76399993896484,214.8305562777768L491.1521999359131,215.46601656743005L514.5403999328613,217.6163904587304L537.9285999298096,220.1899464150068L561.3167999267579,222.19638273921476L584.704999923706,224.0372832942992L608.0931999206543,223.7530958768964L631.4813999176025,225.64250045319642L654.8695999145508,227.39554623323895L678.257799911499,228.24265396214767L701.6459999084473,229.03467545846186L725.0341999053956,230.34201383949716L748.4223999023437,231.77291809008247L771.810599899292,232.71294970315355L795.1987998962402,233.63504584272982L818.5869998931885,235.43445109991967L841.9751998901367,236.4934402722168L865.363399887085,237.37635803190983L888.7515998840331,238.07464434255948L912.1397998809815,238.1827328897073L935.5279998779297,239.19134589082287L958.916199874878,239.60235827685753L982.3043998718261,240.9456786892701L1005.6925998687744,241.939426953668L1029.0807998657226,242.57961485661238L1052.468999862671,243.3907702304895L1075.8571998596192,243.97182668646198L1099.2453998565675,244.67622267135823L1122.6335998535158,244.9793181593275L1146.0217998504638,245.37710208379576L1169.409999847412,246.49133224936995L1192.7981998443604,246.49256511403192L1216.1863998413087,247.06202956173576L1239.5745998382567,247.76094264439698L1262.962799835205,249.08020013894975" fill="none"></path></g><g><path style="fill: none;" stroke="rgb(0, 153, 136)" stroke-width="2px" d="M116.94099998474121,177.49542885261047L140.32919998168947,222.30448614897335L163.7173999786377,249.49367751785044L187.10559997558593,266.7717938871921L210.49379997253416,278.5814699772061L233.88199996948242,286.97560949692433L257.27019996643065,293.23355999620264L280.65839996337894,298.09837243447856L304.04659996032717,302.11693098508874L327.4347999572754,305.28379624954346L350.82299995422363,307.83695651969197L374.21119995117186,310.0150222946155L397.5993999481201,311.82072453387207L420.9875999450683,313.3287988717598L444.37579994201656,314.83199082892827L467.76399993896484,316.12252014963826L491.1521999359131,317.18430417843484L514.5403999328613,318.246910550489L537.9285999298096,318.97278281194895L561.3167999267579,319.9496572388663L584.704999923706,320.5821091664321L608.0931999206543,321.15139908762416L631.4813999176025,321.82536814805985L654.8695999145508,322.5264851928682L678.257799911499,322.97102490511224L701.6459999084473,323.48977204766885L725.0341999053956,323.9204545498833L748.4223999023437,324.4058161738801L771.810599899292,324.7765837728046L795.1987998962402,325.34572515353966L818.5869998931885,325.11229643430096L841.9751998901367,325.73477560437516L865.363399887085,326.3234757469457L888.7515998840331,326.630635753521L912.1397998809815,327.05448801342664L935.5279998779297,327.26918374803586L958.916199874878,327.3815632470181L982.3043998718261,327.77726453031187L1005.6925998687744,328.0167412549407L1029.0807998657226,328.38582545784243L1052.468999862671,328.3423391369987L1075.8571998596192,328.74672812259337L1099.2453998565675,329.0375870506561L1122.6335998535158,329.0675006598122L1146.0217998504638,329.4259756542326L1169.409999847412,329.71854785633025L1192.7981998443604,329.64326598212926L1216.1863998413087,330.0864216617716L1239.5745998382567,330.31103167542346L1262.962799835205,330.5095939993854" fill="none"></path></g><g><path style="fill: none;" stroke="rgb(238, 51, 119)" stroke-width="2px" d="M116.94099998474121,226.36374638965404L140.32919998168947,255.6497714567996L163.7173999786377,272.32871806425584L187.10559997558593,283.8049825963557L210.49379997253416,291.86371358685693L233.88199996948242,296.96151609971946L257.27019996643065,300.4443692921598L280.65839996337894,303.75636728262685L304.04659996032717,305.06093623427614L327.4347999572754,307.71997244991735L350.82299995422363,310.61377291954875L374.21119995117186,312.17636398337356L397.5993999481201,314.6218745508634L420.9875999450683,317.57590210537495L444.37579994201656,316.1492279774128L467.76399993896484,316.49004503930286L491.1521999359131,319.3121572928586L514.5403999328613,319.3434073697329L537.9285999298096,321.30979705940416L561.3167999267579,323.1546912252365L584.704999923706,323.53790073196024L608.0931999206543,322.8953995469321L631.4813999176025,323.90437372380467L654.8695999145508,325.1044206533374L678.257799911499,326.34462559617054L701.6459999084473,326.702700820657L725.0341999053956,325.29416941112555L748.4223999023437,326.36915644979274L771.810599899292,327.20653266729556L795.1987998962402,327.8404180815163L818.5869998931885,326.97624713295147L841.9751998901367,327.2012277297788L865.363399887085,327.59202798147476L888.7515998840331,326.4634143785922L912.1397998809815,327.63523034752643L935.5279998779297,327.0053328477153L958.916199874878,328.70648395928L982.3043998718261,329.5542580789652L1005.6925998687744,330.68434587095163L1029.0807998657226,329.280767076405L1052.468999862671,329.8832994512647L1075.8571998596192,330.66477518540165L1099.2453998565675,330.96138873801135L1122.6335998535158,330.421200352935L1146.0217998504638,330.75145306810384L1169.409999847412,330.863436174185L1192.7981998443604,331.93435520146636L1216.1863998413087,332.62190889316844L1239.5745998382567,330.9162994483368L1262.962799835205,331.68250656581085" fill="none"></path></g></g></g></g><g opacity="0.2"><g><g><g><path style="fill: none;" stroke="rgb(204, 51, 17)" stroke-width="2px" d="M116.94099998474121,132.92202056231858L140.32919998168947,201.3942142904788L163.7173999786377,222.33127301133686L187.10559997558593,232.51783284571783L210.49379997253416,239.0076029203943L233.88199996948242,243.7727132306304L257.27019996643065,247.80840987040617L280.65839996337894,250.88326266699522L304.04659996032717,253.42116862679947L327.4347999572754,256.0615119152811L350.82299995422363,257.4796776396079L374.21119995117186,259.64818397276815L397.5993999481201,261.17347288544124L420.9875999450683,262.514758625172L444.37579994201656,263.8384377324194L467.76399993896484,265.0682402161535L491.1521999359131,266.1407198137285L514.5403999328613,266.99878667272924L537.9285999298096,268.29562606305694L561.3167999267579,268.96253618820094L584.704999923706,270.05339184196237L608.0931999206543,270.62337537576144L631.4813999176025,271.69629860502096L654.8695999145508,272.46434289076876L678.257799911499,273.1151852308353L701.6459999084473,273.67130527448995L725.0341999053956,274.4097510087794L748.4223999023437,274.98713764631555L771.810599899292,275.6707324818484L795.1987998962402,275.892867184433L818.5869998931885,276.2112353038553L841.9751998901367,276.98569838554L865.363399887085,277.6911074228151L888.7515998840331,278.2580617840176L912.1397998809815,278.928368464247L935.5279998779297,279.1197816726715L958.916199874878,279.52389547863726L982.3043998718261,280.21155231678244L1005.6925998687744,280.47031436032864L1029.0807998657226,281.07312663878974L1052.468999862671,281.4357955409687L1075.8571998596192,281.7107986632191L1099.2453998565675,282.1128883996238L1122.6335998535158,282.3541339233725L1146.0217998504638,282.7639109650622L1169.409999847412,283.1311964094593L1192.7981998443604,283.6094521607175L1216.1863998413087,283.94923937241305L1239.5745998382567,284.1951707558306L1262.962799835205,284.43478038774225" fill="none"></path></g><g><path style="fill: none;" stroke="rgb(0, 119, 187)" stroke-width="2px" d="M116.94099998474121,185.65568710398796L140.32919998168947,215.73998753007757L163.7173999786377,230.5943983595862L187.10559997558593,229.50931684946997L210.49379997253416,244.64338893391755L233.88199996948242,249.10386984346448L257.27019996643065,254.05716316892133L280.65839996337894,256.5743570744498L304.04659996032717,258.27243359653824L327.4347999572754,260.3515204182667L350.82299995422363,263.3165535776765L374.21119995117186,263.38790896144997L397.5993999481201,264.8292544412984L420.9875999450683,267.3170508159755L444.37579994201656,267.63286112146614L467.76399993896484,269.1794166280208L491.1521999359131,268.73943797305134L514.5403999328613,270.89352627646133L537.9285999298096,271.4291976721529L561.3167999267579,272.1631862943608L584.704999923706,271.8060142660242L608.0931999206543,273.9899645272053L631.4813999176025,275.23103802842695L654.8695999145508,275.64102302246886L678.257799911499,275.0943509473477L701.6459999084473,274.8045832080934L725.0341999053956,275.98783902366756L748.4223999023437,277.2528062501532L771.810599899292,277.67161535567203L795.1987998962402,278.6763787356364L818.5869998931885,277.4996526239202L841.9751998901367,279.2334692236011L865.363399887085,279.68459412464665L888.7515998840331,280.30586564023514L912.1397998809815,281.40385405967584L935.5279998779297,279.92565249127847L958.916199874878,278.46092623530143L982.3043998718261,279.7173258248777L1005.6925998687744,281.22844625062316L1029.0807998657226,283.38246523658245L1052.468999862671,283.44425481215626L1075.8571998596192,283.3704594541173L1099.2453998565675,283.4652372044899L1122.6335998535158,283.72418640515303L1146.0217998504638,283.10407249099165L1169.409999847412,285.6931693881543L1192.7981998443604,284.8790705881466L1216.1863998413087,282.8116152346493L1239.5745998382567,285.50332275411614L1262.962799835205,285.4404795532913" fill="none"></path></g><g><path style="fill: none;" stroke="rgb(255, 112, 67)" stroke-width="2px" d="M116.94099998474121,63.827425444123094L140.32919998168947,96.56397789672837L163.7173999786377,134.44699061471832L187.10559997558593,155.19841720254212L210.49379997253416,168.80690230927854L233.88199996948242,177.67421242151335L257.27019996643065,184.78995373493728L280.65839996337894,190.67603119952847L304.04659996032717,195.57943675570053L327.4347999572754,199.80574945321746L350.82299995422363,203.56312959659826L374.21119995117186,206.83227920756187L397.5993999481201,210.4323364647834L420.9875999450683,212.47980759723745L444.37579994201656,215.45794868657882L467.76399993896484,217.93962433035713L491.1521999359131,220.10476876715734L514.5403999328613,222.30473829120038L537.9285999298096,224.55865065539547L561.3167999267579,226.0184623041163L584.704999923706,228.0600553167491L608.0931999206543,229.63501711460972L631.4813999176025,231.04781766825067L654.8695999145508,233.09601663393732L678.257799911499,234.8718811992263L701.6459999084473,236.14363460413762L725.0341999053956,237.12064327683274L748.4223999023437,238.35593570266414L771.810599899292,240.02574456834805L795.1987998962402,241.0244634666094L818.5869998931885,242.43660550446853L841.9751998901367,243.24996953949855L865.363399887085,244.13764188170285L888.7515998840331,245.46936181323395L912.1397998809815,247.1423384864159L935.5279998779297,247.44646880145984L958.916199874878,248.3153561145184L982.3043998718261,249.96488269412097L1005.6925998687744,250.25411668900472L1029.0807998657226,251.5674051103888L1052.468999862671,252.58079851296804L1075.8571998596192,253.16567143518228L1099.2453998565675,253.48481591005265L1122.6335998535158,255.26671802529955L1146.0217998504638,255.6134300503222L1169.409999847412,255.39898958476778L1192.7981998443604,256.1982405868307L1216.1863998413087,258.1476899122184L1239.5745998382567,257.2709350685029L1262.962799835205,258.8653126843109" fill="none"></path></g><g><path style="fill: none;" stroke="rgb(187, 187, 187)" stroke-width="2px" d="M116.94099998474121,80.17694436826031L140.32919998168947,122.31969465850545L163.7173999786377,149.3446139430072L187.10559997558593,164.76364313562897L210.49379997253416,177.48023446741215L233.88199996948242,184.46174946925748L257.27019996643065,192.29787932105765L280.65839996337894,196.47815136780488L304.04659996032717,201.17921928531862L327.4347999572754,205.26692480837133L350.82299995422363,208.0363094631175L374.21119995117186,210.38836147404518L397.5993999481201,212.89533798733714L420.9875999450683,213.68780281097443L444.37579994201656,217.252161581074L467.76399993896484,217.32415468539412L491.1521999359131,216.41893809641206L514.5403999328613,220.84140531598285L537.9285999298096,224.0498882940743L561.3167999267579,225.20585382929912L584.704999923706,226.7985331675644L608.0931999206543,223.32682410210018L631.4813999176025,228.47657001464904L654.8695999145508,230.02509413680423L678.257799911499,229.51330953463156L701.6459999084473,230.22270432532324L725.0341999053956,232.3030180659295L748.4223999023437,233.91927226918543L771.810599899292,234.12299625685816L795.1987998962402,235.01818954246582L818.5869998931885,238.13355838900202L841.9751998901367,238.081923819959L865.363399887085,238.70073456604686L888.7515998840331,239.12207375851708L912.1397998809815,238.3448657057838L935.5279998779297,240.70426536648804L958.916199874878,240.21887684955044L982.3043998718261,242.96065929541902L1005.6925998687744,243.43004934472992L1029.0807998657226,243.5398967088895L1052.468999862671,244.60750328967865L1075.8571998596192,244.84341136972174L1099.2453998565675,245.7328166481941L1122.6335998535158,245.43396139115012L1146.0217998504638,245.97377797039485L1169.409999847412,248.16267749755752L1192.7981998443604,246.4944144110247L1216.1863998413087,247.91622623325958L1239.5745998382567,248.8093122683653L1262.962799835205,251.05908638075226" fill="none"></path></g><g><path style="fill: none;" stroke="rgb(0, 153, 136)" stroke-width="2px" d="M116.94099998474121,177.49542885261047L140.32919998168947,249.1899205267911L163.7173999786377,275.5953012319724L187.10559997558593,287.0908587375378L210.49379997253416,294.00018308032844L233.88199996948242,298.58772634292177L257.27019996643065,302.1825293373786L280.65839996337894,305.19131567168426L304.04659996032717,308.04352428242595L327.4347999572754,309.98622208811327L350.82299995422363,311.64353994917707L374.21119995117186,313.27026801923705L397.5993999481201,314.52338196164914L420.9875999450683,315.5879559039692L444.37579994201656,317.0850118189631L467.76399993896484,318.05740394944013L491.1521999359131,318.77653091021324L514.5403999328613,319.8405503129275L537.9285999298096,320.06148062480577L561.3167999267579,321.4148795890503L584.704999923706,321.5307523726139L608.0931999206543,322.00531523668496L631.4813999176025,322.83630843236995L654.8695999145508,323.57815245468095L678.257799911499,323.6378313138803L701.6459999084473,324.26789054928406L725.0341999053956,324.5664772012065L748.4223999023437,325.13385786473094L771.810599899292,325.33273482966194L795.1987998962402,326.1994369100865L818.5869998931885,324.7621534328504L841.9751998901367,326.66849423563394L865.363399887085,327.2065258905226L888.7515998840331,327.0913757413827L912.1397998809815,327.69026638506926L935.5279998779297,327.59122734441354L958.916199874878,327.5501324937528L982.3043998718261,328.3708164515791L1005.6925998687744,328.3759563405502L1029.0807998657226,328.9394517609616L1052.468999862671,328.27710965582025L1075.8571998596192,329.35331160049896L1099.2453998565675,329.4738754425402L1122.6335998535158,329.1123710735334L1146.0217998504638,329.9636881457701L1169.409999847412,330.1574061594311L1192.7981998443604,329.5303431708348L1216.1863998413087,330.7511551812103L1239.5745998382567,330.64794669589367L1262.962799835205,330.8074374853243" fill="none"></path></g><g><path style="fill: none;" stroke="rgb(238, 51, 119)" stroke-width="2px" d="M116.94099998474121,226.36374638965404L140.32919998168947,273.22138649708694L163.7173999786377,288.34050680741376L187.10559997558593,297.3010696861052L210.49379997253416,302.3851927680553L233.88199996948242,304.0136121839129L257.27019996643065,305.4249050830007L280.65839996337894,308.5852921479085L304.04659996032717,306.9849220384856L327.4347999572754,311.66833133542787L350.82299995422363,314.92822706672L374.21119995117186,314.5117470275454L397.5993999481201,318.28215538578945L420.9875999450683,322.0011561896416L444.37579994201656,314.0108937873517L467.76399993896484,317.0010302615405L491.1521999359131,323.5441314498665L514.5403999328613,319.39027455065326L537.9285999298096,324.25908203423353L561.3167999267579,325.9218638433505L584.704999923706,324.1126939759257L608.0931999206543,321.9316689111651L631.4813999176025,325.41781506867846L654.8695999145508,326.90447683193656L678.257799911499,328.20492419557434L701.6459999084473,327.2398121303594L725.0341999053956,323.1813759008742L748.4223999023437,327.9816353574352L771.810599899292,328.46259622220794L795.1987998962402,328.7912458525086L818.5869998931885,325.67999099667276L841.9751998901367,327.5386985802562L865.363399887085,328.1782283123649L888.7515998840331,324.77049405510854L912.1397998809815,329.392954250567L935.5279998779297,326.06048661424114L958.916199874878,331.25821060030745L982.3043998718261,330.8259192506231L1005.6925998687744,332.37947755263696L1029.0807998657226,327.1753988892757L1052.468999862671,330.78709801234606L1075.8571998596192,331.8369887856669L1099.2453998565675,331.4063090667118L1122.6335998535158,329.61091777555436L1146.0217998504638,331.24683214077135L1169.409999847412,331.0314108332892L1192.7981998443604,333.5407337422881L1216.1863998413087,333.6532394306829L1239.5745998382567,328.3578852811469L1262.962799835205,332.8318172420064" fill="none"></path></g></g></g></g></g><g><g opacity="0.0146694"><span fill="rgb(0, 0, 0)" stroke="none" stroke-width="1px">Alt + Scroll to Zoom</span></g></g></g><g transform="translate(30, 377)" clip-path="url(#clip_1)"><clipPath id="clip_1"><rect width="1403" height="22"></rect></clipPath><g><g><line x1="0" y1="0" x2="0" y2="5" style="visibility: inherit;" fill="rgb(0, 0, 0)" stroke="rgb(204, 204, 204)" stroke-width="1px"></line><line x1="116.94099998474121" y1="0" x2="116.94099998474121" y2="5" style="visibility: inherit;" fill="rgb(0, 0, 0)" stroke="rgb(204, 204, 204)" stroke-width="1px"></line><line x1="233.88199996948242" y1="0" x2="233.88199996948242" y2="5" style="visibility: inherit;" fill="rgb(0, 0, 0)" stroke="rgb(204, 204, 204)" stroke-width="1px"></line><line x1="350.82299995422363" y1="0" x2="350.82299995422363" y2="5" style="visibility: inherit;" fill="rgb(0, 0, 0)" stroke="rgb(204, 204, 204)" stroke-width="1px"></line><line x1="467.76399993896484" y1="0" x2="467.76399993896484" y2="5" style="visibility: inherit;" fill="rgb(0, 0, 0)" stroke="rgb(204, 204, 204)" stroke-width="1px"></line><line x1="584.704999923706" y1="0" x2="584.704999923706" y2="5" style="visibility: inherit;" fill="rgb(0, 0, 0)" stroke="rgb(204, 204, 204)" stroke-width="1px"></line><line x1="701.6459999084473" y1="0" x2="701.6459999084473" y2="5" style="visibility: inherit;" fill="rgb(0, 0, 0)" stroke="rgb(204, 204, 204)" stroke-width="1px"></line><line x1="818.5869998931885" y1="0" x2="818.5869998931885" y2="5" style="visibility: inherit;" fill="rgb(0, 0, 0)" stroke="rgb(204, 204, 204)" stroke-width="1px"></line><line x1="935.5279998779297" y1="0" x2="935.5279998779297" y2="5" style="visibility: inherit;" fill="rgb(0, 0, 0)" stroke="rgb(204, 204, 204)" stroke-width="1px"></line><line x1="1052.468999862671" y1="0" x2="1052.468999862671" y2="5" style="visibility: inherit;" fill="rgb(0, 0, 0)" stroke="rgb(204, 204, 204)" stroke-width="1px"></line><line x1="1169.409999847412" y1="0" x2="1169.409999847412" y2="5" style="visibility: inherit;" fill="rgb(0, 0, 0)" stroke="rgb(204, 204, 204)" stroke-width="1px"></line><line x1="1286.3509998321533" y1="0" x2="1286.3509998321533" y2="5" style="visibility: inherit;" fill="rgb(0, 0, 0)" stroke="rgb(204, 204, 204)" stroke-width="1px"></line><line x1="1403.2919998168945" y1="0" x2="1403.2919998168945" y2="5" style="visibility: inherit;" fill="rgb(0, 0, 0)" stroke="rgb(204, 204, 204)" stroke-width="1px"></line></g><g transform="translate(0, 8)"><text style="text-anchor: middle; visibility: hidden; font-family: &quot;Helvetica Neue&quot;, sans-serif; font-size: 12px; font-weight: 200;" x="0" y="0" dx="0em" dy="0.95em" fill="rgb(50, 49, 63)" stroke="none" stroke-width="1px">-5</text><text style="text-anchor: middle; visibility: inherit; font-family: &quot;Helvetica Neue&quot;, sans-serif; font-size: 12px; font-weight: 200;" x="116.94099998474121" y="0" dx="0em" dy="0.95em" fill="rgb(50, 49, 63)" stroke="none" stroke-width="1px">0</text><text style="text-anchor: middle; visibility: inherit; font-family: &quot;Helvetica Neue&quot;, sans-serif; font-size: 12px; font-weight: 200;" x="233.88199996948242" y="0" dx="0em" dy="0.95em" fill="rgb(50, 49, 63)" stroke="none" stroke-width="1px">5</text><text style="text-anchor: middle; visibility: inherit; font-family: &quot;Helvetica Neue&quot;, sans-serif; font-size: 12px; font-weight: 200;" x="350.82299995422363" y="0" dx="0em" dy="0.95em" fill="rgb(50, 49, 63)" stroke="none" stroke-width="1px">10</text><text style="text-anchor: middle; visibility: inherit; font-family: &quot;Helvetica Neue&quot;, sans-serif; font-size: 12px; font-weight: 200;" x="467.76399993896484" y="0" dx="0em" dy="0.95em" fill="rgb(50, 49, 63)" stroke="none" stroke-width="1px">15</text><text style="text-anchor: middle; visibility: inherit; font-family: &quot;Helvetica Neue&quot;, sans-serif; font-size: 12px; font-weight: 200;" x="584.704999923706" y="0" dx="0em" dy="0.95em" fill="rgb(50, 49, 63)" stroke="none" stroke-width="1px">20</text><text style="text-anchor: middle; visibility: inherit; font-family: &quot;Helvetica Neue&quot;, sans-serif; font-size: 12px; font-weight: 200;" x="701.6459999084473" y="0" dx="0em" dy="0.95em" fill="rgb(50, 49, 63)" stroke="none" stroke-width="1px">25</text><text style="text-anchor: middle; visibility: inherit; font-family: &quot;Helvetica Neue&quot;, sans-serif; font-size: 12px; font-weight: 200;" x="818.5869998931885" y="0" dx="0em" dy="0.95em" fill="rgb(50, 49, 63)" stroke="none" stroke-width="1px">30</text><text style="text-anchor: middle; visibility: inherit; font-family: &quot;Helvetica Neue&quot;, sans-serif; font-size: 12px; font-weight: 200;" x="935.5279998779297" y="0" dx="0em" dy="0.95em" fill="rgb(50, 49, 63)" stroke="none" stroke-width="1px">35</text><text style="text-anchor: middle; visibility: inherit; font-family: &quot;Helvetica Neue&quot;, sans-serif; font-size: 12px; font-weight: 200;" x="1052.468999862671" y="0" dx="0em" dy="0.95em" fill="rgb(50, 49, 63)" stroke="none" stroke-width="1px">40</text><text style="text-anchor: middle; visibility: inherit; font-family: &quot;Helvetica Neue&quot;, sans-serif; font-size: 12px; font-weight: 200;" x="1169.409999847412" y="0" dx="0em" dy="0.95em" fill="rgb(50, 49, 63)" stroke="none" stroke-width="1px">45</text><text style="text-anchor: middle; visibility: inherit; font-family: &quot;Helvetica Neue&quot;, sans-serif; font-size: 12px; font-weight: 200;" x="1286.3509998321533" y="0" dx="0em" dy="0.95em" fill="rgb(50, 49, 63)" stroke="none" stroke-width="1px">50</text><text style="text-anchor: middle; visibility: hidden; font-family: &quot;Helvetica Neue&quot;, sans-serif; font-size: 12px; font-weight: 200;" x="1403.2919998168945" y="0" dx="0em" dy="0.95em" fill="rgb(50, 49, 63)" stroke="none" stroke-width="1px">55</text></g><line x1="0" y1="0" x2="1403.2919998168945" y2="0" fill="rgb(0, 0, 0)" stroke="rgb(204, 204, 204)" stroke-width="1px"></line></g></g></g></g></svg>